<?xml version="1.0" encoding="UTF-8"?>
<svg width="300px" height="400px" viewBox="0 0 300 400" version="1.1" xmlns="http://www.w3.org/2000/svg" xmlns:xlink="http://www.w3.org/1999/xlink">
    <!-- Generator: Sketch 50.2 (55047) - http://www.bohemiancoding.com/sketch -->
    <title>figure-from</title>
    <desc>Created with Sketch.</desc>
    <defs></defs>
    <g id="Homepage" stroke="none" stroke-width="1" fill="none" fill-rule="evenodd">
        <g id="F_style" transform="translate(-200.000000, -1982.000000)">
            <g id="figure-from" transform="translate(200.000000, 1982.000000)">
                <g id="Group-45">
                    <g id="Zlta" transform="translate(0.000000, 200.000000)">
                        <rect id="Rectangle-18-Copy-6" fill="#FFD527" x="100" y="100" width="200" height="100"></rect>
                        <rect id="Rectangle-18-Copy-5" fill="#FCC30B" x="0" y="0" width="100" height="200"></rect>
                        <rect id="Rectangle-18-Copy-13" fill="#FFD527" x="0" y="0" width="10" height="200"></rect>
                        <rect id="Rectangle-18-Copy-16" fill="#FFD527" x="90" y="0" width="10" height="110"></rect>
                        <rect id="Rectangle-18-Copy-14" fill="#FFD527" x="10" y="190" width="90" height="10"></rect>
                        <rect id="Rectangle-18-Copy-15" fill="#FFD527" x="10" y="0" width="80" height="10"></rect>
                    </g>
                    <g id="Modra" transform="translate(0.000000, 100.000000)">
                        <rect id="Rectangle-18-Copy-4" fill="#54B6ED" x="200" y="100" width="100" height="100"></rect>
                        <rect id="Rectangle-18-Copy-2" fill="#54B6ED" x="0" y="0" width="100" height="100"></rect>
                        <rect id="Rectangle-18-Copy-3" fill="#49A3EF" x="100" y="0" width="100" height="200"></rect>
                        <rect id="Rectangle-18-Copy-9" fill="#54B6ED" x="100" y="90" width="10" height="110"></rect>
                        <rect id="Rectangle-18-Copy-10" fill="#54B6ED" x="110" y="190" width="90" height="10"></rect>
                        <rect id="Rectangle-18-Copy-12" fill="#54B6ED" x="100" y="0" width="90" height="10"></rect>
                        <rect id="Rectangle-18-Copy-11" fill="#54B6ED" x="190" y="0" width="10" height="110"></rect>
                    </g>
                    <g id="Cervena">
                        <rect id="Rectangle-18" fill="#FF4867" x="0" y="0" width="300" height="100"></rect>
                        <rect id="Rectangle-18-Copy" fill="#F43959" x="200" y="100" width="100" height="100"></rect>
                        <rect id="Rectangle-18-Copy" fill="#FF4867" x="200" y="100" width="10" height="100"></rect>
                        <rect id="Rectangle-18-Copy-8" fill="#FF4867" x="210" y="190" width="80" height="10"></rect>
                        <rect id="Rectangle-18-Copy-7" fill="#FF4867" x="290" y="100" width="10" height="100"></rect>
                    </g>
                </g>
            </g>
        </g>
    </g>
</svg>