<?xml version="1.0" encoding="UTF-8"?>
<svg width="395px" height="402px" viewBox="0 0 395 402" version="1.1" xmlns="http://www.w3.org/2000/svg" xmlns:xlink="http://www.w3.org/1999/xlink">
    <!-- Generator: Sketch 50.2 (55047) - http://www.bohemiancoding.com/sketch -->
    <title>fugure-to</title>
    <desc>Created with Sketch.</desc>
    <defs></defs>
    <g id="Homepage" stroke="none" stroke-width="1" fill="none" fill-rule="evenodd">
        <g id="F_style" transform="translate(-844.000000, -1981.000000)">
            <g id="fugure-to" transform="translate(844.000000, 1981.000000)">
                <g id="Group-3">
                    <g id="Group" transform="translate(0.000000, 206.000000)">
                        <polygon id="Fill-1" fill="#FCC30B" points="79.2972 149.7469 158.5932 195.5289 237.3752 149.7459 158.0782 103.9639"></polygon>
                        <polygon id="Fill-2" fill="#FFD527" points="0 103.9648 79.297 149.7468 158.079 103.9638 78.782 58.1818"></polygon>
                        <polygon id="Fill-3" fill="#FCC30B" points="316.1571 103.9631 236.8601 58.1811 158.0781 103.9641 237.3751 149.7461"></polygon>
                        <polygon id="Fill-4" fill="#FCC30B" points="236.8602 58.1809 316.1572 103.9629 394.9532 58.1719 315.6562 12.3899"></polygon>
                        <polygon id="Fill-1" fill="#FCC30B" points="79.2972 149.7469 158.5932 195.5289 237.3752 149.7459 158.0782 103.9639"></polygon>
                        <polygon id="Fill-2" fill="#FCC30B" points="0 103.9648 79.297 149.7468 158.079 103.9638 78.782 58.1818"></polygon>
                        <polygon id="Fill-3" fill="#FFD527" points="316.1571 103.9631 236.8601 58.1811 158.0781 103.9641 237.3751 149.7461"></polygon>
                        <polygon id="Fill-4" fill="#FFD527" points="236.8602 58.1809 316.1572 103.9629 394.9532 58.1719 315.6562 12.3899"></polygon>
                        <polygon id="Fill-5" fill="#F1B20F" points="375.244 46.7815 375.212 58.1725 315.735 23.8335 315.767 12.4425"></polygon>
                        <polygon id="Fill-6" fill="#F1B20F" points="78.8783 58.2268 78.8453 69.6178 19.7563 103.9558 19.7883 92.5658"></polygon>
                        <polygon id="Fill-7" fill="#F1B20F" points="148.2723 98.2913 148.2403 109.6823 78.8453 69.6173 78.8783 58.2273"></polygon>
                        <polygon id="Fill-8" fill="#F1B20F" points="168.0428 98.2913 168.0108 109.6823 158.1578 115.4073 158.1898 104.0173"></polygon>
                        <polygon id="Fill-9" fill="#F1B20F" points="158.1898 104.0169 158.1578 115.4079 148.2398 109.6819 148.2728 98.2909"></polygon>
                        <path d="M315.6885,0.9994 L158.1255,92.5644 L78.8285,46.7834 L0.0325,92.5744 L158.6255,184.1384 L394.9845,46.7814 L315.6885,0.9994 Z M168.0425,98.2914 L315.7675,12.4434 L375.2445,46.7814 L158.5765,172.6964 L19.7885,92.5654 L78.8785,58.2264 L148.2725,98.2914 L158.1895,104.0174 L168.0425,98.2914 Z" id="Fill-10" fill="#FFD527"></path>
                        <polygon id="Fill-11" fill="#F1B20F" points="315.7675 12.4426 315.7355 23.8336 168.0105 109.6816 168.0425 98.2916"></polygon>
                        <polygon id="Fill-12" fill="#F1B20F" points="0 103.9648 158.593 195.5288 158.626 184.1388 0.032 92.5748"></polygon>
                        <polygon id="Fill-13" fill="#F1B20F" points="158.6259 184.1386 158.5939 195.5286 394.9529 58.1716 394.9849 46.7816"></polygon>
                    </g>
                    <g id="Group" transform="translate(0.000000, 127.000000)">
                        <polygon id="Fill-1" fill="#54B6ED" points="236.8749 57.1731 157.5779 11.3911 78.7959 57.1731 158.0929 102.9551"></polygon>
                        <polygon id="Fill-2" fill="#49A3EF" points="0.0144 102.9559 79.3114 148.7389 158.0934 102.9549 78.7954 57.1739"></polygon>
                        <polygon id="Fill-3" fill="#49A3EF" points="158.0931 102.955 237.4041 148.746 316.1861 102.963 236.8751 57.173"></polygon>
                        <polygon id="Fill-4" fill="#54B6ED" points="236.8746 57.1729 316.1866 102.9629 394.9816 57.1719 315.6706 11.3819"></polygon>
                        <polygon id="Fill-1" fill="#49A3EF" points="236.8749 57.1731 157.5779 11.3911 78.7959 57.1731 158.0929 102.9551"></polygon>
                        <polygon id="Fill-2" fill="#54B6ED" points="0.0144 102.9559 79.3114 148.7389 158.0934 102.9549 78.7954 57.1739"></polygon>
                        <polygon id="Fill-3" fill="#49A3EF" points="158.0931 102.955 237.4041 148.746 316.1861 102.963 236.8751 57.173"></polygon>
                        <polygon id="Fill-4" fill="#54B6ED" points="236.8746 57.1729 316.1866 102.9629 394.9816 57.1719 315.6706 11.3819"></polygon>
                        <polygon id="Fill-5" fill="#4495DD" points="375.2441 45.7819 375.2121 57.1719 315.7351 22.8339 315.7671 11.4429"></polygon>
                        <polygon id="Fill-6" fill="#4495DD" points="315.7675 11.4431 315.7355 22.8341 246.7915 62.8991 246.8245 51.5081"></polygon>
                        <polygon id="Fill-7" fill="#4495DD" points="227.0536 51.5085 227.0216 62.8995 157.6416 22.8425 157.6746 11.4525"></polygon>
                        <polygon id="Fill-8" fill="#4495DD" points="236.9716 57.2346 236.9396 68.6246 227.0216 62.8996 227.0536 51.5086"></polygon>
                        <polygon id="Fill-9" fill="#4495DD" points="246.8242 51.5085 246.7922 62.8985 236.9392 68.6245 236.9712 57.2345"></polygon>
                        <polygon id="Fill-10" fill="#4495DD" points="157.6743 11.4524 157.6423 22.8434 19.7713 102.9654 19.8033 91.5744"></polygon>
                        <polygon id="Fill-11" fill="#4495DD" points="158.0931 102.955 237.4041 148.746 237.4371 137.356 158.1251 91.566"></polygon>
                        <polygon id="Fill-12" fill="#4495DD" points="237.4371 137.3557 237.4041 148.7457 394.9681 57.1807 395.0001 45.7907"></polygon>
                        <polygon id="Fill-13" fill="#4495DD" points="0 102.9649 79.297 148.7469 79.329 137.3569 0.032 91.5749"></polygon>
                        <polygon id="Fill-14" fill="#4495DD" points="79.3287 137.3566 79.2967 148.7466 158.0927 102.9546 158.1257 91.5656"></polygon>
                        <path d="M315.6885,-0.0005 L236.9065,45.7825 L157.6095,0.0005 L0.0325,91.5745 L79.3285,137.3565 L158.1255,91.5655 L237.4375,137.3555 L395.0005,45.7905 L315.6885,-0.0005 Z M246.8245,51.5085 L315.7675,11.4425 L375.2445,45.7815 L237.3575,125.9125 L167.9635,85.8475 L158.0605,80.1305 L148.2225,85.8475 L79.2795,125.9135 L19.8035,91.5745 L157.6745,11.4515 L227.0535,51.5085 L236.9715,57.2345 L246.8245,51.5085 Z" id="Fill-15" fill="#54B6ED"></path>
                    </g>
                    <g id="Group">
                        <polygon id="Fill-1" fill="#45C7F4" points="236.8746 102.972 316.1716 148.754 394.9676 102.963 315.6706 57.181"></polygon>
                        <polygon id="Fill-2" fill="#F43959" points="394.9677 102.9629 315.6707 57.1809 236.8747 102.9719 316.1717 148.7549"></polygon>
                        <polygon id="Fill-4" fill="#45C7F4" points="236.8749 102.9722 157.5629 57.1812 78.7819 102.9642 158.0929 148.7552"></polygon>
                        <polygon id="Fill-5" fill="#F43959" points="236.8749 102.9722 157.5629 57.1812 78.7819 102.9642 158.0929 148.7552"></polygon>
                        <polygon id="Fill-7" fill="#FF4867" points="315.6708 57.1812 236.3588 11.3902 157.5628 57.1812 236.8748 102.9722"></polygon>
                        <polygon id="Fill-8" fill="#FF4867" points="0 148.7478 79.312 194.5378 158.093 148.7548 78.782 102.9648"></polygon>
                        <polygon id="Fill-2" fill="#F43959" points="394.9677 102.9629 315.6707 57.1809 236.8747 102.9719 316.1717 148.7549"></polygon>
                        <polygon id="Fill-5" fill="#FF4867" points="236.8749 102.9722 157.5629 57.1812 78.7819 102.9642 158.0929 148.7552"></polygon>
                        <polygon id="Fill-7" fill="#FF4867" points="315.6708 57.1812 236.3588 11.3902 157.5628 57.1812 236.8748 102.9722"></polygon>
                        <polygon id="Fill-8" fill="#FF4867" points="0 148.7478 79.312 194.5378 158.093 148.7548 78.782 102.9648"></polygon>
                        <polygon id="Fill-9" fill="#E33552" points="375.2294 91.5728 375.1974 102.9638 236.4234 22.8428 236.4564 11.4518"></polygon>
                        <polygon id="Fill-10" fill="#E33552" points="316.2186 137.3556 316.1866 148.7456 394.9676 102.9626 394.9996 91.5726"></polygon>
                        <polygon id="Fill-11" fill="#E33552" points="316.2187 137.3555 316.1867 148.7465 236.8747 102.9555 236.9067 91.5645"></polygon>
                        <polygon id="Fill-12" fill="#E33552" points="236.456 11.4517 236.424 22.8427 19.771 148.7467 19.803 137.3567"></polygon>
                        <path d="M236.3913,0.0003 L0.0323,137.3573 L79.3283,183.1383 L236.9073,91.5653 L316.2183,137.3553 L395.0003,91.5723 L236.3913,0.0003 Z M19.8033,137.3573 L236.4563,11.4523 L375.2303,91.5723 L316.1393,125.9123 L246.7453,85.8463 L236.8433,80.1303 L227.0033,85.8463 L79.2793,171.6953 L19.8033,137.3573 Z" id="Fill-13" fill="#FF4867"></path>
                        <polygon id="Fill-14" fill="#E33552" points="79.3287 183.1386 79.2967 194.5296 236.8747 102.9546 236.9067 91.5656"></polygon>
                        <polygon id="Fill-15" fill="#E33552" points="0 148.7478 79.297 194.5298 79.329 183.1388 0.032 137.3578"></polygon>
                    </g>
                </g>
            </g>
        </g>
    </g>
</svg>