<?xml version="1.0" encoding="UTF-8"?>
<svg width="16px" height="16px" viewBox="0 0 16 16" version="1.1" xmlns="http://www.w3.org/2000/svg" xmlns:xlink="http://www.w3.org/1999/xlink">
    <!-- Generator: Sketch 50.2 (55047) - http://www.bohemiancoding.com/sketch -->
    <title>insta</title>
    <desc>Created with Sketch.</desc>
    <defs></defs>
    <g id="Homepage" stroke="none" stroke-width="1" fill="none" fill-rule="evenodd">
        <g id="F_01_1" transform="translate(-121.000000, -7116.000000)" fill="#FFFFFF">
            <g id="Group-16" transform="translate(90.000000, 7015.000000)">
                <g id="insta" transform="translate(31.000000, 101.000000)">
                    <path d="M13.2780083,14 L2.65560166,14 C2.25726141,14 1.99170124,13.7333333 1.99170124,13.3333333 L1.99170124,6.66666667 L3.31950207,6.66666667 C3.12033195,7.4 3.05394191,8.26666667 3.25311203,9.06666667 C3.65145228,10.9333333 5.17842324,12.4 7.0373444,12.7333333 C10.1576763,13.3333333 12.879668,11 12.879668,8 C12.879668,7.53333333 12.746888,7.06666667 12.6804979,6.66666667 L14.0082988,6.66666667 L14.0082988,13.3333333 C13.9419087,13.7333333 13.6763485,14 13.2780083,14 M7.96680498,4.93333333 C9.62655602,4.93333333 11.0207469,6.33333333 11.0207469,8 C11.0207469,9.66666667 9.62655602,11.0666667 7.96680498,11.0666667 C6.30705394,11.0666667 4.91286307,9.66666667 4.91286307,8 C4.91286307,6.33333333 6.30705394,4.93333333 7.96680498,4.93333333 M11.9502075,2 L13.2780083,2 C13.6763485,2 13.9419087,2.26666667 13.9419087,2.66666667 L13.9419087,4 C13.9419087,4.4 13.6763485,4.66666667 13.2780083,4.66666667 L11.9502075,4.66666667 C11.5518672,4.66666667 11.2863071,4.4 11.2863071,4 L11.2863071,2.66666667 C11.2863071,2.26666667 11.5518672,2 11.9502075,2 M14.0082988,0 L1.9253112,0 C0.863070539,0 0,0.866666667 0,1.86666667 L0,14.0666667 C0,15.1333333 0.863070539,16 1.9253112,16 L14.0746888,16 C15.1369295,16 16,15.1333333 16,14.1333333 L16,1.86666667 C15.93361,0.866666667 15.0705394,0 14.0082988,0" id="Page-1"></path>
                </g>
            </g>
        </g>
    </g>
</svg>