<?xml version="1.0" encoding="utf-8"?>
<!-- Generator: Adobe Illustrator 21.1.0, SVG Export Plug-In . SVG Version: 6.00 Build 0)  -->
<svg version="1.1" id="Слой_1" xmlns="http://www.w3.org/2000/svg" xmlns:xlink="http://www.w3.org/1999/xlink" x="0px" y="0px"
	 viewBox="0 0 29 31.5" enable-background="new 0 0 29 31.5" xml:space="preserve">
<title>logo</title>
<desc>Created with Sketch.</desc>
<g id="Homepage">
	<g id="F_2400" transform="translate(-569.000000, -49.000000)">
		<g id="Group-17-Copy" transform="translate(570.000000, 50.000000)">
			<g id="logo">
				<g id="Path-75">
					<path fill="#F03454" d="M25,30.5H2c-1.7,0-3-1.3-3-3v-17c0-1,0.5-1.9,1.3-2.4l12-8.5c1.1-0.8,2.5-0.7,3.6,0.1l11,8.5
						c0.7,0.6,1.2,1.5,1.2,2.4v17C28,29.2,26.7,30.5,25,30.5z M14,1c-0.2,0-0.4,0.1-0.6,0.2l-12,8.5C1.2,9.9,1,10.2,1,10.5v17
						c0,0.6,0.4,1,1,1h23c0.6,0,1-0.4,1-1v-17c0-0.3-0.1-0.6-0.4-0.8l-11-8.5C14.4,1.1,14.2,1,14,1z"/>
				</g>
				<g id="Path-75_1_">
					<path fill="#F03454" d="M5,26.5h17c1.1,0,2-0.9,2-2v-12c0-0.6-0.3-1.2-0.8-1.6l-8.1-6.4c-0.7-0.6-1.7-0.6-2.4-0.1l-8.9,6.5
						c-0.5,0.4-0.8,1-0.8,1.6v12C3,25.6,3.9,26.5,5,26.5z"/>
				</g>
			</g>
		</g>
	</g>
</g>
</svg>
