<?xml version="1.0" encoding="utf-8"?>
<!-- Generator: Adobe Illustrator 21.1.0, SVG Export Plug-In . SVG Version: 6.00 Build 0)  -->
<svg version="1.1" id="Слой_1" xmlns="http://www.w3.org/2000/svg" xmlns:xlink="http://www.w3.org/1999/xlink" x="0px" y="0px"
	 viewBox="0 0 13.7 16" enable-background="new 0 0 13.7 16" xml:space="preserve">
<title>user</title>
<desc>Created with Sketch.</desc>
<g id="Homepage">
	<g id="F_1600" transform="translate(-1050.000000, -4252.000000)">
		<g id="Group-13" transform="translate(990.000000, 3910.000000)">
			<g id="Group-6" transform="translate(60.000000, 342.000000)">
				<g id="user">
					<g id="Rectangle-4">
						<path fill="#1A1A1A" d="M12,16H1.7c-0.6,0-1-0.2-1.4-0.6C0,15-0.1,14.5,0,14l0,0c0-0.8,0.3-1.7,0.8-2.5C1.9,9.8,4,9,6.9,9
							s5,0.8,6.1,2.5c0.5,0.8,0.8,1.6,0.7,2.4l0,0.1c0.1,0.5-0.1,1-0.4,1.3C13,15.8,12.6,16,12,16z M2,14h10c0,0,0,0,0,0l0.4,0
							l-0.6,0c0-0.2,0-0.7-0.4-1.4C10.6,11.5,9.1,11,6.9,11c-2.2,0-3.7,0.5-4.4,1.6C2.1,13.1,2,13.6,2,14L2,14z"/>
					</g>
					<g id="Oval-7">
						<path fill="#1A1A1A" d="M6.9,6c-1.7,0-3-1.3-3-3s1.3-3,3-3s3,1.3,3,3S8.5,6,6.9,6z M6.9,2c-0.6,0-1,0.4-1,1s0.4,1,1,1
							s1-0.4,1-1S7.4,2,6.9,2z"/>
					</g>
				</g>
			</g>
		</g>
	</g>
</g>
</svg>
