<?xml version="1.0" encoding="utf-8"?>
<!-- Generator: Adobe Illustrator 21.1.0, SVG Export Plug-In . SVG Version: 6.00 Build 0)  -->
<svg version="1.1" id="Слой_1" xmlns="http://www.w3.org/2000/svg" xmlns:xlink="http://www.w3.org/1999/xlink" x="0px" y="0px"
	 width="728.7px" height="523.1px" viewBox="0 0 728.7 523.1" enable-background="new 0 0 728.7 523.1" xml:space="preserve">
<g>
	<g>
		<g opacity="0.7">
			<g>
				<defs>
					<rect id="SVGID_1_" x="369.9" y="9.6" width="343.5" height="488.5"/>
				</defs>
				<clipPath id="SVGID_2_">
					<use xlink:href="#SVGID_1_"  overflow="visible"/>
				</clipPath>
				<polygon clip-path="url(#SVGID_2_)" fill="#54B6ED" points="713.4,9.6 631.4,9.6 631.4,135.6 543.4,135.6 543.4,251.6 
					589.4,251.6 589.4,373.1 369.9,373.1 369.9,498.1 712.4,498.1 712.4,378.6 713.4,378.6 				"/>
			</g>
		</g>
		<g opacity="0.3">
			<g>
				<defs>
					<rect id="SVGID_3_" x="207.4" y="9.6" width="423" height="127"/>
				</defs>
				<clipPath id="SVGID_4_">
					<use xlink:href="#SVGID_3_"  overflow="visible"/>
				</clipPath>
				<polygon clip-path="url(#SVGID_4_)" fill="#54B6ED" points="630.4,9.6 461.4,9.6 456.4,9.6 207.4,9.6 207.4,136.6 461.4,136.6 
					461.4,92.6 630.4,92.6 				"/>
			</g>
		</g>
		<path fill="#4D4D4D" d="M229.9,38.9c1.2,0,2.2,1,2.2,2.2v12.1c0,1.2-1,2.2-2.2,2.2h-7.3c-3.6,0-6.5-2.9-6.5-6.5v-3.6
			c0-3.6,2.9-6.5,6.5-6.5H229.9 M229.9,38.4h-7.3c-3.8,0-7,3.1-7,7V49c0,3.8,3.1,7,7,7h7.3c1.5,0,2.7-1.2,2.7-2.7V41.2
			C232.6,39.7,231.4,38.4,229.9,38.4"/>
		<path fill="none" stroke="#4D4D4D" stroke-width="0.5" stroke-linecap="round" stroke-miterlimit="10" d="M225.8,54h-3
			c-2.9,0-5.3-2.4-5.3-5.3v-3c0-2.9,2.4-5.3,5.3-5.3h3"/>
		<path fill="#4D4D4D" d="M229.9,59c1.2,0,2.2,1,2.2,2.2v12.1c0,1.2-1,2.2-2.2,2.2h-7.3c-3.6,0-6.5-2.9-6.5-6.5v-3.6
			c0-3.6,2.9-6.5,6.5-6.5H229.9 M229.9,58.5h-7.3c-3.8,0-7,3.1-7,7v3.6c0,3.8,3.1,7,7,7h7.3c1.5,0,2.7-1.2,2.7-2.7V61.2
			C232.6,59.7,231.4,58.5,229.9,58.5"/>
		<path fill="none" stroke="#4D4D4D" stroke-width="0.5" stroke-linecap="round" stroke-miterlimit="10" d="M225.8,74h-3
			c-2.9,0-5.3-2.4-5.3-5.3v-3c0-2.9,2.4-5.3,5.3-5.3h3"/>
		<path fill="#4D4D4D" d="M229.9,79.1c1.2,0,2.2,1,2.2,2.2v12.1c0,1.2-1,2.2-2.2,2.2h-7.3c-3.6,0-6.5-2.9-6.5-6.5v-3.6
			c0-3.6,2.9-6.5,6.5-6.5H229.9 M229.9,78.6h-7.3c-3.8,0-7,3.1-7,7v3.6c0,3.8,3.1,7,7,7h7.3c1.5,0,2.7-1.2,2.7-2.7V81.3
			C232.6,79.8,231.4,78.6,229.9,78.6"/>
		<path fill="none" stroke="#4D4D4D" stroke-width="0.5" stroke-linecap="round" stroke-miterlimit="10" d="M225.8,94.1h-3
			c-2.9,0-5.3-2.4-5.3-5.3v-3c0-2.9,2.4-5.3,5.3-5.3h3"/>
		<path fill="#4D4D4D" d="M274.3,79.1c3.6,0,6.5,2.9,6.5,6.5v3.6c0,3.6-2.9,6.5-6.5,6.5H267c-1.2,0-2.2-1-2.2-2.2V81.3
			c0-1.2,1-2.2,2.2-2.2H274.3 M274.3,78.6H267c-1.5,0-2.7,1.2-2.7,2.7v12.1c0,1.5,1.2,2.7,2.7,2.7h7.3c3.8,0,7-3.1,7-7v-3.6
			C281.3,81.7,278.2,78.6,274.3,78.6"/>
		<path fill="none" stroke="#4D4D4D" stroke-width="0.5" stroke-linecap="round" stroke-miterlimit="10" d="M271.1,80.6h3
			c2.9,0,5.3,2.4,5.3,5.3v3c0,2.9-2.4,5.3-5.3,5.3h-3"/>
		<path fill="#4D4D4D" d="M274.3,59c3.6,0,6.5,2.9,6.5,6.5v3.6c0,3.6-2.9,6.5-6.5,6.5H267c-1.2,0-2.2-1-2.2-2.2V61.2
			c0-1.2,1-2.2,2.2-2.2H274.3 M274.3,58.5H267c-1.5,0-2.7,1.2-2.7,2.7v12.1c0,1.5,1.2,2.7,2.7,2.7h7.3c3.8,0,7-3.1,7-7v-3.6
			C281.3,61.6,278.2,58.5,274.3,58.5"/>
		<path fill="none" stroke="#4D4D4D" stroke-width="0.5" stroke-linecap="round" stroke-miterlimit="10" d="M271.1,60.5h3
			c2.9,0,5.3,2.4,5.3,5.3v3c0,2.9-2.4,5.3-5.3,5.3h-3"/>
		<path fill="#4D4D4D" d="M274.3,38.9c3.6,0,6.5,2.9,6.5,6.5V49c0,3.6-2.9,6.5-6.5,6.5H267c-1.2,0-2.2-1-2.2-2.2V41.2
			c0-1.2,1-2.2,2.2-2.2H274.3 M274.3,38.4H267c-1.5,0-2.7,1.2-2.7,2.7v12.1c0,1.5,1.2,2.7,2.7,2.7h7.3c3.8,0,7-3.1,7-7v-3.6
			C281.3,41.6,278.2,38.4,274.3,38.4"/>
		<path fill="none" stroke="#4D4D4D" stroke-width="0.5" stroke-linecap="round" stroke-miterlimit="10" d="M271.1,40.5h3
			c2.9,0,5.3,2.4,5.3,5.3v3c0,2.9-2.4,5.3-5.3,5.3h-3"/>
		<path fill="#4D4D4D" d="M262.5,99.4h-28.3V35.2h28.3V99.4z M262.9,34.8h-0.4h-28.3h-0.4v0.4v64.2v0.4h0.4h28.3h0.4v-0.4V35.2V34.8
			z"/>
		<path fill="#4D4D4D" d="M313.1,38.9c1.2,0,2.2,1,2.2,2.2v12.1c0,1.2-1,2.2-2.2,2.2h-7.3c-3.6,0-6.5-2.9-6.5-6.5v-3.6
			c0-3.6,2.9-6.5,6.5-6.5H313.1 M313.1,38.4h-7.3c-3.8,0-7,3.1-7,7V49c0,3.8,3.1,7,7,7h7.3c1.5,0,2.7-1.2,2.7-2.7V41.2
			C315.8,39.7,314.6,38.4,313.1,38.4"/>
		<path fill="none" stroke="#4D4D4D" stroke-width="0.5" stroke-linecap="round" stroke-miterlimit="10" d="M309,54h-3
			c-2.9,0-5.3-2.4-5.3-5.3v-3c0-2.9,2.4-5.3,5.3-5.3h3"/>
		<path fill="#4D4D4D" d="M313.1,59c1.2,0,2.2,1,2.2,2.2v12.1c0,1.2-1,2.2-2.2,2.2h-7.3c-3.6,0-6.5-2.9-6.5-6.5v-3.6
			c0-3.6,2.9-6.5,6.5-6.5H313.1 M313.1,58.5h-7.3c-3.8,0-7,3.1-7,7v3.6c0,3.8,3.1,7,7,7h7.3c1.5,0,2.7-1.2,2.7-2.7V61.2
			C315.8,59.7,314.6,58.5,313.1,58.5"/>
		<path fill="none" stroke="#4D4D4D" stroke-width="0.5" stroke-linecap="round" stroke-miterlimit="10" d="M309,74h-3
			c-2.9,0-5.3-2.4-5.3-5.3v-3c0-2.9,2.4-5.3,5.3-5.3h3"/>
		<path fill="#4D4D4D" d="M313.1,79.1c1.2,0,2.2,1,2.2,2.2v12.1c0,1.2-1,2.2-2.2,2.2h-7.3c-3.6,0-6.5-2.9-6.5-6.5v-3.6
			c0-3.6,2.9-6.5,6.5-6.5H313.1 M313.1,78.6h-7.3c-3.8,0-7,3.1-7,7v3.6c0,3.8,3.1,7,7,7h7.3c1.5,0,2.7-1.2,2.7-2.7V81.3
			C315.8,79.8,314.6,78.6,313.1,78.6"/>
		<path fill="none" stroke="#4D4D4D" stroke-width="0.5" stroke-linecap="round" stroke-miterlimit="10" d="M309,94.1h-3
			c-2.9,0-5.3-2.4-5.3-5.3v-3c0-2.9,2.4-5.3,5.3-5.3h3"/>
		<path fill="#4D4D4D" d="M357.5,79.1c3.6,0,6.5,2.9,6.5,6.5v3.6c0,3.6-2.9,6.5-6.5,6.5h-7.3c-1.2,0-2.2-1-2.2-2.2V81.3
			c0-1.2,1-2.2,2.2-2.2H357.5 M357.5,78.6h-7.3c-1.5,0-2.7,1.2-2.7,2.7v12.1c0,1.5,1.2,2.7,2.7,2.7h7.3c3.8,0,7-3.1,7-7v-3.6
			C364.5,81.7,361.3,78.6,357.5,78.6"/>
		<path fill="none" stroke="#4D4D4D" stroke-width="0.5" stroke-linecap="round" stroke-miterlimit="10" d="M354.2,80.6h3
			c2.9,0,5.3,2.4,5.3,5.3v3c0,2.9-2.4,5.3-5.3,5.3h-3"/>
		<path fill="#4D4D4D" d="M357.5,59c3.6,0,6.5,2.9,6.5,6.5v3.6c0,3.6-2.9,6.5-6.5,6.5h-7.3c-1.2,0-2.2-1-2.2-2.2V61.2
			c0-1.2,1-2.2,2.2-2.2H357.5 M357.5,58.5h-7.3c-1.5,0-2.7,1.2-2.7,2.7v12.1c0,1.5,1.2,2.7,2.7,2.7h7.3c3.8,0,7-3.1,7-7v-3.6
			C364.5,61.6,361.3,58.5,357.5,58.5"/>
		<path fill="none" stroke="#4D4D4D" stroke-width="0.5" stroke-linecap="round" stroke-miterlimit="10" d="M354.2,60.5h3
			c2.9,0,5.3,2.4,5.3,5.3v3c0,2.9-2.4,5.3-5.3,5.3h-3"/>
		<path fill="#4D4D4D" d="M357.5,38.9c3.6,0,6.5,2.9,6.5,6.5V49c0,3.6-2.9,6.5-6.5,6.5h-7.3c-1.2,0-2.2-1-2.2-2.2V41.2
			c0-1.2,1-2.2,2.2-2.2H357.5 M357.5,38.4h-7.3c-1.5,0-2.7,1.2-2.7,2.7v12.1c0,1.5,1.2,2.7,2.7,2.7h7.3c3.8,0,7-3.1,7-7v-3.6
			C364.5,41.6,361.3,38.4,357.5,38.4"/>
		<path fill="none" stroke="#4D4D4D" stroke-width="0.5" stroke-linecap="round" stroke-miterlimit="10" d="M354.2,40.5h3
			c2.9,0,5.3,2.4,5.3,5.3v3c0,2.9-2.4,5.3-5.3,5.3h-3"/>
		<path fill="#4D4D4D" d="M345.6,99.4h-28.3V35.2h28.3V99.4z M346,34.8h-0.4h-28.3H317v0.4v64.2v0.4h0.4h28.3h0.4v-0.4V35.2V34.8z"
			/>
		<path fill="#4D4D4D" d="M652.9,88.9h-21.2V9.8h21.2V88.9z M653.3,9.4h-0.4h-21.2h-0.4v0.4v79.1v0.4h0.4h21.2h0.4v-0.4V9.8V9.4z"/>
		<path fill="#4D4D4D" d="M403.7,20.3c6.3,0,11.9,4.4,13.2,10.9c1.4,7.3-3.3,14.4-10.6,15.8c-0.9,0.2-1.8,0.3-2.6,0.3
			c-6.3,0-11.9-4.4-13.2-10.9c-1.5-7.3,3.3-14.4,10.6-15.8C402,20.3,402.8,20.3,403.7,20.3 M403.7,19.8L403.7,19.8
			c-0.9,0-1.8,0.1-2.7,0.3c-7.6,1.5-12.5,8.9-11,16.4c1.3,6.5,7.1,11.3,13.7,11.3c0.9,0,1.8-0.1,2.7-0.3c7.6-1.5,12.5-8.9,11-16.4
			C416.1,24.5,410.3,19.8,403.7,19.8"/>
		<path fill="#4D4D4D" d="M405.1,28c4.5,0,8.4,3.1,9.3,7.7c1,5.2-2.3,10.2-7.5,11.2c-0.6,0.1-1.2,0.2-1.9,0.2
			c-4.5,0-8.4-3.1-9.3-7.7c-1-5.2,2.3-10.2,7.5-11.2C403.8,28,404.4,28,405.1,28 M405.1,27.5L405.1,27.5c-0.7,0-1.3,0.1-2,0.2
			c-5.4,1.1-9,6.4-7.9,11.8c0.9,4.7,5.1,8.1,9.8,8.1c0.7,0,1.3-0.1,2-0.2c2.6-0.5,4.9-2,6.4-4.3c1.5-2.2,2-4.9,1.5-7.5
			C413.9,30.9,409.8,27.5,405.1,27.5"/>
		<path fill="#4D4D4D" d="M439.6,26.6c2.8,0,5.6,0.9,8,2.7c6,4.5,7.2,12.9,2.7,18.9c-2.6,3.5-6.7,5.4-10.8,5.4
			c-2.8,0-5.6-0.9-8.1-2.7c-6-4.5-7.2-12.9-2.7-18.9C431.5,28.4,435.5,26.6,439.6,26.6 M439.6,26.1v0.5V26.1L439.6,26.1
			c-4.5,0-8.5,2-11.2,5.6c-2.2,3-3.2,6.7-2.6,10.4c0.5,3.7,2.5,7,5.5,9.2c2.4,1.8,5.3,2.8,8.3,2.8c4.5,0,8.5-2,11.2-5.6
			c4.6-6.2,3.3-14.9-2.8-19.6C445.5,27,442.6,26.1,439.6,26.1"/>
		<path fill="#4D4D4D" d="M437.7,34c2,0,4,0.6,5.7,1.9c4.2,3.1,5.1,9.1,1.9,13.3c-1.9,2.5-4.7,3.8-7.6,3.8c-2,0-4-0.6-5.7-1.9
			c-4.2-3.1-5.1-9.1-1.9-13.3C432,35.3,434.8,34,437.7,34 M437.7,33.5L437.7,33.5c-3.2,0-6.1,1.5-8,4c-1.6,2.1-2.3,4.8-1.9,7.4
			c0.4,2.7,1.8,5,3.9,6.6c1.7,1.3,3.8,2,6,2c3.2,0,6.1-1.5,8-4c3.3-4.4,2.4-10.7-2-14C442,34.2,439.9,33.5,437.7,33.5"/>
		<path fill="#4D4D4D" d="M422.7,82.2c6.3,0,11.9,4.4,13.2,10.8c1.5,7.3-3.3,14.4-10.6,15.8c-0.9,0.2-1.8,0.3-2.6,0.3
			c-6.3,0-11.9-4.4-13.2-10.8C408,91,412.7,83.9,420,82.4C420.9,82.3,421.8,82.2,422.7,82.2 M422.7,81.7L422.7,81.7
			c-0.9,0-1.8,0.1-2.7,0.3c-7.6,1.5-12.5,8.9-11,16.4c1.3,6.5,7.1,11.2,13.7,11.2c0.9,0,1.8-0.1,2.7-0.3c7.6-1.5,12.5-8.9,11-16.4
			C435.1,86.4,429.3,81.7,422.7,81.7"/>
		<path fill="#4D4D4D" d="M421.3,82.4c4.5,0,8.4,3.1,9.3,7.7c1,5.2-2.3,10.2-7.5,11.2c-0.6,0.1-1.3,0.2-1.9,0.2
			c-4.5,0-8.4-3.1-9.3-7.7c-1-5.2,2.3-10.2,7.5-11.2C420.1,82.4,420.7,82.4,421.3,82.4 M421.3,81.9L421.3,81.9c-0.7,0-1.3,0.1-2,0.2
			c-5.4,1.1-9,6.4-7.9,11.8c0.9,4.7,5.1,8.1,9.8,8.1c0.7,0,1.3-0.1,2-0.2c5.4-1.1,9-6.4,7.9-11.8C430.2,85.3,426.1,81.9,421.3,81.9"
			/>
		<path fill="#4D4D4D" d="M393.5,67.1c5,0,9.9,2.8,12.2,7.7c3.2,6.7,0.4,14.8-6.3,18c-1.9,0.9-3.9,1.3-5.8,1.3
			c-5,0-9.9-2.8-12.2-7.7c-3.2-6.7-0.4-14.8,6.3-18C389.6,67.6,391.5,67.1,393.5,67.1 M393.5,66.6L393.5,66.6c-2.1,0-4.1,0.5-6,1.4
			c-3.4,1.6-5.9,4.4-7.1,8c-1.2,3.5-1,7.3,0.6,10.7c2.3,4.8,7.3,7.9,12.6,7.9c2.1,0,4.1-0.5,6-1.4c7-3.3,9.9-11.7,6.6-18.6
			C403.8,69.8,398.8,66.6,393.5,66.6"/>
		<path fill="#4D4D4D" d="M396.8,68.9c3.6,0,7,2,8.6,5.4c2.3,4.7,0.3,10.4-4.5,12.7c-1.3,0.6-2.7,0.9-4.1,0.9c-3.6,0-7-2-8.6-5.4
			c-2.3-4.7-0.3-10.4,4.5-12.7C394,69.2,395.4,68.9,396.8,68.9 M396.8,68.4L396.8,68.4c-1.5,0-3,0.3-4.3,1c-2.4,1.2-4.2,3.2-5.1,5.7
			c-0.9,2.5-0.7,5.2,0.4,7.7c1.7,3.5,5.2,5.7,9.1,5.7c1.5,0,3-0.3,4.3-1c5-2.4,7.1-8.4,4.7-13.4C404.2,70.6,400.6,68.4,396.8,68.4"
			/>
		<path fill="#4D4D4D" d="M419.4,49.7c7.9,0,14.3,6.4,14.3,14.3c0,7.9-6.4,14.3-14.3,14.3c-7.9,0-14.3-6.4-14.3-14.3
			C405.1,56.1,411.5,49.7,419.4,49.7 M419.4,49.2c-8.2,0-14.8,6.6-14.8,14.8s6.6,14.8,14.8,14.8c8.1,0,14.8-6.6,14.8-14.8
			S427.6,49.2,419.4,49.2"/>
		<path fill="#4D4D4D" d="M666.4,21c3.6,0,6.5,2.9,6.5,6.5v3.6c0,3.6-2.9,6.5-6.5,6.5H659c-1.2,0-2.2-1-2.2-2.2V23.3
			c0-1.2,1-2.2,2.2-2.2H666.4 M666.4,20.5H659c-1.5,0-2.7,1.2-2.7,2.7v12.1c0,1.5,1.2,2.7,2.7,2.7h7.3c3.8,0,7-3.1,7-7v-3.6
			C673.3,23.7,670.2,20.5,666.4,20.5"/>
		<path fill="none" stroke="#4D4D4D" stroke-width="0.5" stroke-linecap="round" stroke-miterlimit="10" d="M663.1,22.6h3
			c2.9,0,5.3,2.4,5.3,5.3v3c0,2.9-2.4,5.3-5.3,5.3h-3"/>
		<path fill="#4D4D4D" d="M666.4,60.8c3.6,0,6.5,2.9,6.5,6.5v3.6c0,3.6-2.9,6.5-6.5,6.5H659c-1.2,0-2.2-1-2.2-2.2V63
			c0-1.2,1-2.2,2.2-2.2H666.4 M666.4,60.3H659c-1.5,0-2.7,1.2-2.7,2.7v12.1c0,1.5,1.2,2.7,2.7,2.7h7.3c3.8,0,7-3.1,7-7v-3.6
			C673.3,63.4,670.2,60.3,666.4,60.3"/>
		<path fill="none" stroke="#4D4D4D" stroke-width="0.5" stroke-linecap="round" stroke-miterlimit="10" d="M663.1,62.3h3
			c2.9,0,5.3,2.4,5.3,5.3v3c0,2.9-2.4,5.3-5.3,5.3h-3"/>
		<path fill="#4D4D4D" d="M392.9,490.7h-21.2v-79.1h21.2V490.7z M393.3,411.2h-0.4h-21.2h-0.4v0.4v79.1v0.4h0.4h21.2h0.4v-0.4v-79.1
			V411.2z"/>
		<path fill="#4D4D4D" d="M406.3,422.8c3.6,0,6.5,2.9,6.5,6.5v3.6c0,3.6-2.9,6.5-6.5,6.5h-7.3c-1.2,0-2.2-1-2.2-2.2V425
			c0-1.2,1-2.2,2.2-2.2H406.3 M406.3,422.3h-7.3c-1.5,0-2.7,1.2-2.7,2.7v12.1c0,1.5,1.2,2.7,2.7,2.7h7.3c3.8,0,7-3.1,7-7v-3.6
			C413.2,425.4,410.1,422.3,406.3,422.3"/>
		<path fill="none" stroke="#4D4D4D" stroke-width="0.5" stroke-linecap="round" stroke-miterlimit="10" d="M403,424.3h3
			c2.9,0,5.3,2.4,5.3,5.3v3c0,2.9-2.4,5.3-5.3,5.3h-3"/>
		<path fill="#4D4D4D" d="M406.3,462.5c3.6,0,6.5,2.9,6.5,6.5v3.6c0,3.6-2.9,6.5-6.5,6.5h-7.3c-1.2,0-2.2-1-2.2-2.2v-12.1
			c0-1.2,1-2.2,2.2-2.2H406.3 M406.3,462h-7.3c-1.5,0-2.7,1.2-2.7,2.7v12.1c0,1.5,1.2,2.7,2.7,2.7h7.3c3.8,0,7-3.1,7-7V469
			C413.2,465.2,410.1,462,406.3,462"/>
		<path fill="none" stroke="#4D4D4D" stroke-width="0.5" stroke-linecap="round" stroke-miterlimit="10" d="M403,464.1h3
			c2.9,0,5.3,2.4,5.3,5.3v3c0,2.9-2.4,5.3-5.3,5.3h-3"/>
		<path fill="#4D4D4D" d="M686.2,150.4c3.6,0,6.5,2.9,6.5,6.5v7.3c0,1.2-1,2.2-2.2,2.2h-12.1c-1.2,0-2.2-1-2.2-2.2v-7.3
			c0-3.6,2.9-6.5,6.5-6.5H686.2 M686.2,149.9h-3.6c-3.8,0-7,3.1-7,7v7.3c0,1.5,1.2,2.7,2.7,2.7h12.1c1.5,0,2.7-1.2,2.7-2.7v-7.3
			C693.1,153,690,149.9,686.2,149.9"/>
		<path fill="none" stroke="#4D4D4D" stroke-width="0.5" stroke-linecap="round" stroke-miterlimit="10" d="M677.6,160.1v-3
			c0-2.9,2.4-5.3,5.3-5.3h3c2.9,0,5.3,2.4,5.3,5.3v3"/>
		<path fill="#4D4D4D" d="M647.4,150.4c3.6,0,6.5,2.9,6.5,6.5v7.3c0,1.2-1,2.2-2.2,2.2h-12.1c-1.2,0-2.2-1-2.2-2.2v-7.3
			c0-3.6,2.9-6.5,6.5-6.5H647.4 M647.4,149.9h-3.6c-3.8,0-7,3.1-7,7v7.3c0,1.5,1.2,2.7,2.7,2.7h12.1c1.5,0,2.7-1.2,2.7-2.7v-7.3
			C654.3,153,651.2,149.9,647.4,149.9"/>
		<path fill="none" stroke="#4D4D4D" stroke-width="0.5" stroke-linecap="round" stroke-miterlimit="10" d="M638.8,160.1v-3
			c0-2.9,2.4-5.3,5.3-5.3h3c2.9,0,5.3,2.4,5.3,5.3v3"/>
		<path fill="#4D4D4D" d="M606.5,150.4c3.6,0,6.5,2.9,6.5,6.5v7.3c0,1.2-1,2.2-2.2,2.2h-12.1c-1.2,0-2.2-1-2.2-2.2v-7.3
			c0-3.6,2.9-6.5,6.5-6.5H606.5 M606.5,149.9h-3.6c-3.8,0-7,3.1-7,7v7.3c0,1.5,1.2,2.7,2.7,2.7h12.1c1.5,0,2.7-1.2,2.7-2.7v-7.3
			C613.5,153,610.4,149.9,606.5,149.9"/>
		<path fill="none" stroke="#4D4D4D" stroke-width="0.5" stroke-linecap="round" stroke-miterlimit="10" d="M598,160.1v-3
			c0-2.9,2.4-5.3,5.3-5.3h3c2.9,0,5.3,2.4,5.3,5.3v3"/>
		<path fill="#4D4D4D" d="M610.8,214.8c1.2,0,2.2,1,2.2,2.2v7.3c0,3.6-2.9,6.5-6.5,6.5h-3.6c-3.6,0-6.5-2.9-6.5-6.5V217
			c0-1.2,1-2.2,2.2-2.2H610.8 M610.8,214.3h-12.1c-1.5,0-2.7,1.2-2.7,2.7v7.3c0,3.8,3.1,7,7,7h3.6c3.8,0,7-3.1,7-7V217
			C613.5,215.5,612.3,214.3,610.8,214.3"/>
		<path fill="none" stroke="#4D4D4D" stroke-width="0.5" stroke-linecap="round" stroke-miterlimit="10" d="M611.5,221.1v3
			c0,2.9-2.4,5.3-5.3,5.3h-3c-2.9,0-5.3-2.4-5.3-5.3v-3"/>
		<path fill="#4D4D4D" d="M651.6,214.8c1.2,0,2.2,1,2.2,2.2v7.3c0,3.6-2.9,6.5-6.5,6.5h-3.6c-3.6,0-6.5-2.9-6.5-6.5V217
			c0-1.2,1-2.2,2.2-2.2H651.6 M651.6,214.3h-12.1c-1.5,0-2.7,1.2-2.7,2.7v7.3c0,3.8,3.1,7,7,7h3.6c3.8,0,7-3.1,7-7V217
			C654.3,215.5,653.1,214.3,651.6,214.3"/>
		<path fill="none" stroke="#4D4D4D" stroke-width="0.5" stroke-linecap="round" stroke-miterlimit="10" d="M652.3,221.1v3
			c0,2.9-2.4,5.3-5.3,5.3h-3c-2.9,0-5.3-2.4-5.3-5.3v-3"/>
		<path fill="#4D4D4D" d="M690.4,214.8c1.2,0,2.2,1,2.2,2.2v7.3c0,3.6-2.9,6.5-6.5,6.5h-3.6c-3.6,0-6.5-2.9-6.5-6.5V217
			c0-1.2,1-2.2,2.2-2.2H690.4 M690.4,214.3h-12.1c-1.5,0-2.7,1.2-2.7,2.7v7.3c0,3.8,3.1,7,7,7h3.6c3.8,0,7-3.1,7-7V217
			C693.1,215.5,691.9,214.3,690.4,214.3"/>
		<path fill="none" stroke="#4D4D4D" stroke-width="0.5" stroke-linecap="round" stroke-miterlimit="10" d="M691.1,221.1v3
			c0,2.9-2.4,5.3-5.3,5.3h-3c-2.9,0-5.3-2.4-5.3-5.3v-3"/>
		<path fill="#4D4D4D" d="M690.4,339.5c1.2,0,2.2,1,2.2,2.2v7.3c0,3.6-2.9,6.5-6.5,6.5h-3.6c-3.6,0-6.5-2.9-6.5-6.5v-7.3
			c0-1.2,1-2.2,2.2-2.2H690.4 M690.4,339h-12.1c-1.5,0-2.7,1.2-2.7,2.7v7.3c0,3.8,3.1,7,7,7h3.6c3.8,0,7-3.1,7-7v-7.3
			C693.1,340.2,691.9,339,690.4,339"/>
		<path fill="none" stroke="#4D4D4D" stroke-width="0.5" stroke-linecap="round" stroke-miterlimit="10" d="M691.1,345.8v3
			c0,2.9-2.4,5.3-5.3,5.3h-3c-2.9,0-5.3-2.4-5.3-5.3v-3"/>
		<path fill="#4D4D4D" d="M650.1,339.5c1.2,0,2.2,1,2.2,2.2v7.3c0,3.6-2.9,6.5-6.5,6.5h-3.6c-3.6,0-6.5-2.9-6.5-6.5v-7.3
			c0-1.2,1-2.2,2.2-2.2H650.1 M650.1,339H638c-1.5,0-2.7,1.2-2.7,2.7v7.3c0,3.8,3.1,7,7,7h3.6c3.8,0,7-3.1,7-7v-7.3
			C652.8,340.2,651.6,339,650.1,339"/>
		<path fill="none" stroke="#4D4D4D" stroke-width="0.5" stroke-linecap="round" stroke-miterlimit="10" d="M650.8,345.8v3
			c0,2.9-2.4,5.3-5.3,5.3h-3c-2.9,0-5.3-2.4-5.3-5.3v-3"/>
		<path fill="#4D4D4D" d="M645.8,277.1c3.6,0,6.5,2.9,6.5,6.5v7.3c0,1.2-1,2.2-2.2,2.2H638c-1.2,0-2.2-1-2.2-2.2v-7.3
			c0-3.6,2.9-6.5,6.5-6.5H645.8 M645.8,276.6h-3.6c-3.8,0-7,3.1-7,7v7.3c0,1.5,1.2,2.7,2.7,2.7h12.1c1.5,0,2.7-1.2,2.7-2.7v-7.3
			C652.8,279.7,649.7,276.6,645.8,276.6"/>
		<path fill="none" stroke="#4D4D4D" stroke-width="0.5" stroke-linecap="round" stroke-miterlimit="10" d="M637.3,286.9v-3
			c0-2.9,2.4-5.3,5.3-5.3h3c2.9,0,5.3,2.4,5.3,5.3v3"/>
		<path fill="#4D4D4D" d="M686.2,277.1c3.6,0,6.5,2.9,6.5,6.5v7.3c0,1.2-1,2.2-2.2,2.2h-12.1c-1.2,0-2.2-1-2.2-2.2v-7.3
			c0-3.6,2.9-6.5,6.5-6.5H686.2 M686.2,276.6h-3.6c-3.8,0-7,3.1-7,7v7.3c0,1.5,1.2,2.7,2.7,2.7h12.1c1.5,0,2.7-1.2,2.7-2.7v-7.3
			C693.1,279.7,690,276.6,686.2,276.6"/>
		<path fill="none" stroke="#4D4D4D" stroke-width="0.5" stroke-linecap="round" stroke-miterlimit="10" d="M677.6,286.9v-3
			c0-2.9,2.4-5.3,5.3-5.3h3c2.9,0,5.3,2.4,5.3,5.3v3"/>
		<path fill="#4D4D4D" d="M703.5,210.6h-119v-40h119V210.6z M704,170.1h-0.5h-119H584v0.5v40v0.5h0.5h119h0.5v-0.5v-40V170.1z"/>
		<path fill="#4D4D4D" d="M686.2,401.8c3.6,0,6.5,2.9,6.5,6.5v7.3c0,1.2-1,2.2-2.2,2.2h-12.1c-1.2,0-2.2-1-2.2-2.2v-7.3
			c0-3.6,2.9-6.5,6.5-6.5H686.2 M686.2,401.3h-3.6c-3.8,0-7,3.1-7,7v7.3c0,1.5,1.2,2.7,2.7,2.7h12.1c1.5,0,2.7-1.2,2.7-2.7v-7.3
			C693.1,404.4,690,401.3,686.2,401.3"/>
		<path fill="none" stroke="#4D4D4D" stroke-width="0.5" stroke-linecap="round" stroke-miterlimit="10" d="M677.6,411.6v-3
			c0-2.9,2.4-5.3,5.3-5.3h3c2.9,0,5.3,2.4,5.3,5.3v3"/>
		<path fill="#4D4D4D" d="M647.4,401.8c3.6,0,6.5,2.9,6.5,6.5v7.3c0,1.2-1,2.2-2.2,2.2h-12.1c-1.2,0-2.2-1-2.2-2.2v-7.3
			c0-3.6,2.9-6.5,6.5-6.5H647.4 M647.4,401.3h-3.6c-3.8,0-7,3.1-7,7v7.3c0,1.5,1.2,2.7,2.7,2.7h12.1c1.5,0,2.7-1.2,2.7-2.7v-7.3
			C654.3,404.4,651.2,401.3,647.4,401.3"/>
		<path fill="none" stroke="#4D4D4D" stroke-width="0.5" stroke-linecap="round" stroke-miterlimit="10" d="M638.8,411.6v-3
			c0-2.9,2.4-5.3,5.3-5.3h3c2.9,0,5.3,2.4,5.3,5.3v3"/>
		<path fill="#4D4D4D" d="M606.5,401.8c3.6,0,6.5,2.9,6.5,6.5v7.3c0,1.2-1,2.2-2.2,2.2h-12.1c-1.2,0-2.2-1-2.2-2.2v-7.3
			c0-3.6,2.9-6.5,6.5-6.5H606.5 M606.5,401.3h-3.6c-3.8,0-7,3.1-7,7v7.3c0,1.5,1.2,2.7,2.7,2.7h12.1c1.5,0,2.7-1.2,2.7-2.7v-7.3
			C613.5,404.4,610.4,401.3,606.5,401.3"/>
		<path fill="none" stroke="#4D4D4D" stroke-width="0.5" stroke-linecap="round" stroke-miterlimit="10" d="M598,411.6v-3
			c0-2.9,2.4-5.3,5.3-5.3h3c2.9,0,5.3,2.4,5.3,5.3v3"/>
		<path fill="#4D4D4D" d="M610.8,466.2c1.2,0,2.2,1,2.2,2.2v7.3c0,3.6-2.9,6.5-6.5,6.5h-3.6c-3.6,0-6.5-2.9-6.5-6.5v-7.3
			c0-1.2,1-2.2,2.2-2.2H610.8 M610.8,465.7h-12.1c-1.5,0-2.7,1.2-2.7,2.7v7.3c0,3.8,3.1,7,7,7h3.6c3.8,0,7-3.1,7-7v-7.3
			C613.5,466.9,612.3,465.7,610.8,465.7"/>
		<path fill="none" stroke="#4D4D4D" stroke-width="0.5" stroke-linecap="round" stroke-miterlimit="10" d="M611.5,472.5v3
			c0,2.9-2.4,5.3-5.3,5.3h-3c-2.9,0-5.3-2.4-5.3-5.3v-3"/>
		<path fill="#4D4D4D" d="M651.6,466.2c1.2,0,2.2,1,2.2,2.2v7.3c0,3.6-2.9,6.5-6.5,6.5h-3.6c-3.6,0-6.5-2.9-6.5-6.5v-7.3
			c0-1.2,1-2.2,2.2-2.2H651.6 M651.6,465.7h-12.1c-1.5,0-2.7,1.2-2.7,2.7v7.3c0,3.8,3.1,7,7,7h3.6c3.8,0,7-3.1,7-7v-7.3
			C654.3,466.9,653.1,465.7,651.6,465.7"/>
		<path fill="none" stroke="#4D4D4D" stroke-width="0.5" stroke-linecap="round" stroke-miterlimit="10" d="M652.3,472.5v3
			c0,2.9-2.4,5.3-5.3,5.3h-3c-2.9,0-5.3-2.4-5.3-5.3v-3"/>
		<path fill="#4D4D4D" d="M690.4,466.2c1.2,0,2.2,1,2.2,2.2v7.3c0,3.6-2.9,6.5-6.5,6.5h-3.6c-3.6,0-6.5-2.9-6.5-6.5v-7.3
			c0-1.2,1-2.2,2.2-2.2H690.4 M690.4,465.7h-12.1c-1.5,0-2.7,1.2-2.7,2.7v7.3c0,3.8,3.1,7,7,7h3.6c3.8,0,7-3.1,7-7v-7.3
			C693.1,466.9,691.9,465.7,690.4,465.7"/>
		<path fill="none" stroke="#4D4D4D" stroke-width="0.5" stroke-linecap="round" stroke-miterlimit="10" d="M691.1,472.5v3
			c0,2.9-2.4,5.3-5.3,5.3h-3c-2.9,0-5.3-2.4-5.3-5.3v-3"/>
		<path fill="#4D4D4D" d="M703.5,462h-119v-40h119V462z M704,421.5h-0.5h-119H584v0.5v40v0.5h0.5h119h0.5V462v-40V421.5z"/>
		<path fill="#4D4D4D" d="M703.5,336.3h-78.7v-40h78.7V336.3z M703.9,295.9h-0.4h-78.7h-0.4v0.4v40v0.4h0.4h78.7h0.4v-0.4v-40V295.9
			z"/>
		<path fill="#4D4D4D" d="M450.1,469.2c1.2,0,2.2,1,2.2,2.2v12.1c0,1.2-1,2.2-2.2,2.2h-7.3c-3.6,0-6.5-2.9-6.5-6.5v-3.6
			c0-3.6,2.9-6.5,6.5-6.5H450.1 M450.1,468.7h-7.3c-3.8,0-7,3.1-7,7v3.6c0,3.8,3.1,7,7,7h7.3c1.5,0,2.7-1.2,2.7-2.7v-12.1
			C452.8,469.9,451.6,468.7,450.1,468.7"/>
		<path fill="none" stroke="#4D4D4D" stroke-width="0.5" stroke-linecap="round" stroke-miterlimit="10" d="M446,484.2h-3
			c-2.9,0-5.3-2.4-5.3-5.3v-3c0-2.9,2.4-5.3,5.3-5.3h3"/>
		<path fill="#4D4D4D" d="M450.1,428.8c1.2,0,2.2,1,2.2,2.2v12.1c0,1.2-1,2.2-2.2,2.2h-7.3c-3.6,0-6.5-2.9-6.5-6.5v-3.6
			c0-3.6,2.9-6.5,6.5-6.5H450.1 M450.1,428.3h-7.3c-3.8,0-7,3.1-7,7v3.6c0,3.8,3.1,7,7,7h7.3c1.5,0,2.7-1.2,2.7-2.7v-12.1
			C452.8,429.6,451.6,428.3,450.1,428.3"/>
		<path fill="none" stroke="#4D4D4D" stroke-width="0.5" stroke-linecap="round" stroke-miterlimit="10" d="M446,443.9h-3
			c-2.9,0-5.3-2.4-5.3-5.3v-3c0-2.9,2.4-5.3,5.3-5.3h3"/>
		<path fill="#4D4D4D" d="M508.2,428.8c3.6,0,6.5,2.9,6.5,6.5v3.6c0,3.6-2.9,6.5-6.5,6.5h-7.3c-1.2,0-2.2-1-2.2-2.2v-12.1
			c0-1.2,1-2.2,2.2-2.2H508.2 M508.2,428.3h-7.3c-1.5,0-2.7,1.2-2.7,2.7v12.1c0,1.5,1.2,2.7,2.7,2.7h7.3c3.8,0,7-3.1,7-7v-3.6
			C515.1,431.5,512,428.3,508.2,428.3"/>
		<path fill="none" stroke="#4D4D4D" stroke-width="0.5" stroke-linecap="round" stroke-miterlimit="10" d="M504.9,430.4h3
			c2.9,0,5.3,2.4,5.3,5.3v3c0,2.9-2.4,5.3-5.3,5.3h-3"/>
		<path fill="#4D4D4D" d="M508.2,469.2c3.6,0,6.5,2.9,6.5,6.5v3.6c0,3.6-2.9,6.5-6.5,6.5h-7.3c-1.2,0-2.2-1-2.2-2.2v-12.1
			c0-1.2,1-2.2,2.2-2.2H508.2 M508.2,468.7h-7.3c-1.5,0-2.7,1.2-2.7,2.7v12.1c0,1.5,1.2,2.7,2.7,2.7h7.3c3.8,0,7-3.1,7-7v-3.6
			C515.1,471.8,512,468.7,508.2,468.7"/>
		<path fill="none" stroke="#4D4D4D" stroke-width="0.5" stroke-linecap="round" stroke-miterlimit="10" d="M504.9,470.7h3
			c2.9,0,5.3,2.4,5.3,5.3v3c0,2.9-2.4,5.3-5.3,5.3h-3"/>
		<path fill="#4D4D4D" d="M495.4,496.6h-40V418h40V496.6z M495.9,417.6h-0.4h-40H455v0.4v78.7v0.4h0.4h40h0.4v-0.4V418V417.6z"/>
		<rect x="587.3" y="370.2" fill="#4D4D4D" width="139.4" height="3.7"/>
		<rect x="587.3" y="250.8" fill="#4D4D4D" width="139.4" height="3.7"/>
		<path fill="#4D4D4D" d="M588.8,342.5h-1v-87.9h1V342.5z M589.3,254.1h-0.5h-1h-0.5v0.5v87.9v0.5h0.5h1h0.5v-0.5v-87.9V254.1z"/>
		<path fill="#4D4D4D" d="M588.8,371.3h-1v-3.2h1V371.3z M589.3,367.6h-0.5h-1h-0.5v0.5v3.2v0.5h0.5h1h0.5v-0.5v-3.2V367.6z"/>
		<path fill="#4D4D4D" d="M369.7,371.6h-1V259h1V371.6z M370.2,258.5h-0.5h-1h-0.5v0.5v112.5v0.5h0.5h1h0.5v-0.5V259V258.5z"/>
		<path fill="#4D4D4D" d="M125.9,498.1h-1V279.3h1V498.1z M126.4,278.8h-0.5h-1h-0.5v0.5v218.8v0.5h0.5h1h0.5v-0.5V279.3V278.8z"/>
		<path fill="#4D4D4D" d="M543.1,253.1h-1V135.7h1V253.1z M543.6,135.2h-0.5h-1h-0.5v0.5v117.4v0.5h0.5h1h0.5v-0.5V135.7V135.2z"/>
		<path fill="#4D4D4D" d="M553.4,253.1h-11.4v-1h11.4V253.1z M553.9,251.6h-0.5h-11.4h-0.5v0.5v1v0.5h0.5h11.4h0.5v-0.5v-1V251.6z"
			/>
		<path fill="#4D4D4D" d="M590.2,253.1h-11.4v-1h11.4V253.1z M590.7,251.6h-0.5h-11.4h-0.5v0.5v1v0.5h0.5h11.4h0.5v-0.5v-1V251.6z"
			/>
		<path fill="#4D4D4D" d="M590.5,372.6h-14.1v-1h14.1V372.6z M591,371.1h-0.5h-14.1H576v0.5v1v0.5h0.5h14.1h0.5v-0.5v-1V371.1z"/>
		<path fill="#4D4D4D" d="M550.9,372.6h-47.8v-1h47.8V372.6z M551.4,371.1h-0.5h-47.8h-0.5v0.5v1v0.5h0.5h47.8h0.5v-0.5v-1V371.1z"
			/>
		<path fill="#4D4D4D" d="M477.8,372.6H370v-1h107.7V372.6z M478.3,371.1h-0.5H370h-0.5v0.5v1v0.5h0.5h107.7h0.5v-0.5v-1V371.1z"/>
		<path fill="#4D4D4D" d="M369.7,260H124.9v-1h244.8V260z M370.2,258.5h-0.5H124.9h-0.5v0.5v1v0.5h0.5h244.8h0.5V260v-1V258.5z"/>
		<path fill="#4D4D4D" d="M260.2,138.1h-54.5v-1h54.5V138.1z M260.7,136.6h-0.5h-54.5h-0.5v0.5v1v0.5h0.5h54.5h0.5v-0.5v-1V136.6z"
			/>
		<path fill="#4D4D4D" d="M339.5,138.1h-53.8v-1h53.8V138.1z M340,136.6h-0.5h-53.8h-0.5v0.5v1v0.5h0.5h53.8h0.5v-0.5v-1V136.6z"/>
		<path fill="#4D4D4D" d="M463.1,138.1h-59.9v-1h59.9V138.1z M463.6,136.6h-0.5h-59.9h-0.5v0.5v1v0.5h0.5h59.9h0.5v-0.5v-1V136.6z"
			/>
		<path fill="#4D4D4D" d="M377.8,138.1H365v-1h12.8V138.1z M378.3,136.6h-0.5H365h-0.5v0.5v1v0.5h0.5h12.8h0.5v-0.5v-1V136.6z"/>
		<path fill="#4D4D4D" d="M551,94.3h-8.7v-1h8.7V94.3z M551.5,92.8H551h-8.7h-0.5v0.5v1v0.5h0.5h8.7h0.5v-0.5v-1V92.8z"/>
		<path fill="#4D4D4D" d="M516.7,94.3h-52.9v-1h52.9V94.3z M517.2,92.8h-0.5h-52.9h-0.5v0.5v1v0.5h0.5h52.9h0.5v-0.5v-1V92.8z"/>
		<path fill="#4D4D4D" d="M629.2,94.3h-52.7v-1h52.7V94.3z M629.7,92.8h-0.5h-52.7h-0.5v0.5v1v0.5h0.5h52.7h0.5v-0.5v-1V92.8z"/>
		<path fill="#4D4D4D" d="M631,133.5h-1V80.6h1V133.5z M631.5,80.1H631h-1h-0.5v0.5v52.9v0.5h0.5h1h0.5v-0.5V80.6V80.1z"/>
		<path fill="#4D4D4D" d="M463.2,138.1h-1V93.3h1V138.1z M463.7,92.8h-0.5h-1h-0.5v0.5v44.9v0.5h0.5h1h0.5v-0.5V93.3V92.8z"/>
		<path fill="#4D4D4D" d="M721.1,353.6h-2.4v-28.5h2.4V353.6z M721.6,324.6h-0.5h-2.4h-0.5v0.5v28.5v0.5h0.5h2.4h0.5v-0.5v-28.5
			V324.6z"/>
		<path fill="#4D4D4D" d="M721.1,410.4h-2.4v-28.5h2.4V410.4z M721.6,381.4h-0.5h-2.4h-0.5v0.5v28.5v0.5h0.5h2.4h0.5v-0.5v-28.5
			V381.4z"/>
		<path fill="#4D4D4D" d="M721.1,468.3h-2.4v-30.8h2.4V468.3z M721.6,437h-0.5h-2.4h-0.5v0.5v30.8v0.5h0.5h2.4h0.5v-0.5v-30.8V437z"
			/>
		<path fill="#4D4D4D" d="M539,510.6h-76.1v-2.4H539V510.6z M539.5,507.6H539h-76.1h-0.5v0.5v2.4v0.5h0.5H539h0.5v-0.5v-2.4V507.6z"
			/>
		<path fill="#4D4D4D" d="M626.6,510.6h-76.1v-2.4h76.1V510.6z M627.1,507.6h-0.5h-76.1H550v0.5v2.4v0.5h0.5h76.1h0.5v-0.5v-2.4
			V507.6z"/>
		<path fill="#4D4D4D" d="M456.6,510.6h-76.1v-2.4h76.1V510.6z M457.1,507.6h-0.5h-76.1H380v0.5v2.4v0.5h0.5h76.1h0.5v-0.5v-2.4
			V507.6z"/>
		<path fill="#4D4D4D" d="M374.6,510.6h-76.1v-2.4h76.1V510.6z M375.1,507.6h-0.5h-76.1h-0.5v0.5v2.4v0.5h0.5h76.1h0.5v-0.5v-2.4
			V507.6z"/>
		<path fill="#4D4D4D" d="M198,510.6h-76.1v-2.4H198V510.6z M198.5,507.6H198h-76.1h-0.5v0.5v2.4v0.5h0.5H198h0.5v-0.5v-2.4V507.6z"
			/>
		<path fill="#4D4D4D" d="M284,510.6h-76.1v-2.4H284V510.6z M284.5,507.6H284h-76.1h-0.5v0.5v2.4v0.5h0.5H284h0.5v-0.5v-2.4V507.6z"
			/>
		<path fill="#4D4D4D" d="M721.1,298.3h-2.4v-30.8h2.4V298.3z M721.6,267h-0.5h-2.4h-0.5v0.5v30.8v0.5h0.5h2.4h0.5v-0.5v-30.8V267z"
			/>
		<path fill="#4D4D4D" d="M721.1,241.3h-2.4v-30.8h2.4V241.3z M721.6,210.1h-0.5h-2.4h-0.5v0.5v30.8v0.5h0.5h2.4h0.5v-0.5v-30.8
			V210.1z"/>
		<path fill="#4D4D4D" d="M721.1,183.6h-2.4v-30.8h2.4V183.6z M721.6,152.3h-0.5h-2.4h-0.5v0.5v30.8v0.5h0.5h2.4h0.5v-0.5v-30.8
			V152.3z"/>
		<path fill="#4D4D4D" d="M721.1,128h-2.4V97.2h2.4V128z M721.6,96.7h-0.5h-2.4h-0.5v0.5V128v0.5h0.5h2.4h0.5V128V97.2V96.7z"/>
		<path fill="#4D4D4D" d="M721.1,71.8h-2.4V41h2.4V71.8z M721.6,40.5h-0.5h-2.4h-0.5V41v30.8v0.5h0.5h2.4h0.5v-0.5V41V40.5z"/>
		<path fill="#4D4D4D" d="M136.4,210.2h-1V97.6h1V210.2z M136.9,97.1h-0.5h-1h-0.5v0.5v112.6v0.5h0.5h1h0.5v-0.5V97.6V97.1z"/>
		<rect x="205" y="5.8" fill="#4D4D4D" width="3.7" height="204.7"/>
		<rect x="288" y="5.8" fill="#4D4D4D" width="3.7" height="132.4"/>
		<rect x="371.4" y="5.8" fill="#4D4D4D" width="3.7" height="132.6"/>
		<rect x="460.9" y="5.8" fill="#4D4D4D" width="3.7" height="88.8"/>
		<rect x="544.6" y="5.8" fill="#4D4D4D" width="3.7" height="88.8"/>
		<rect x="544.6" y="371.3" fill="#4D4D4D" width="3.7" height="128"/>
		<rect x="368.2" y="370.2" fill="#4D4D4D" width="3.7" height="129"/>
		<rect x="628.6" y="5.8" fill="#4D4D4D" width="3.7" height="88.8"/>
		<rect x="541.6" y="132.2" fill="#4D4D4D" width="90.7" height="3.7"/>
		<rect x="133.1" y="5.8" fill="#4D4D4D" width="3.7" height="34.4"/>
		<rect x="133.1" y="4.7" fill="#4D4D4D" width="72.5" height="9.4"/>
		<rect x="133.1" y="55.8" fill="#4D4D4D" width="3.7" height="42.7"/>
		<rect x="134.4" y="57.2" fill="#4D4D4D" width="73.1" height="3.7"/>
		<rect x="40.8" y="95.2" fill="#4D4D4D" width="66.9" height="3.7"/>
		<rect x="93.5" y="123.6" fill="#4D4D4D" width="5.6" height="2.9"/>
		<rect x="40.8" y="123.6" fill="#4D4D4D" width="36.5" height="2.9"/>
		<rect x="39.6" y="97.4" fill="#4D4D4D" width="7.5" height="26.1"/>
		<rect x="39.6" y="126" fill="#4D4D4D" width="13.7" height="31.4"/>
		<rect x="39.6" y="156.1" fill="#4D4D4D" width="4.5" height="51.6"/>
		<rect x="52.7" y="153.3" fill="#4D4D4D" width="21" height="4.1"/>
		<rect x="131.4" y="95.2" fill="#4D4D4D" width="5.4" height="3.7"/>
		<rect x="40.8" y="37" fill="#4D4D4D" width="13.7" height="3.1"/>
		<rect x="71.1" y="37" fill="#4D4D4D" width="44.2" height="3.1"/>
		<rect x="131.9" y="37" fill="#4D4D4D" width="4.9" height="4.9"/>
		<rect x="40.8" y="207.5" fill="#4D4D4D" width="58.6" height="3.7"/>
		<rect x="95.7" y="97.6" fill="#4D4D4D" width="3.7" height="86"/>
		<rect x="95.7" y="205.5" fill="#4D4D4D" width="3.7" height="5.7"/>
		<rect x="85.1" y="8.4" fill="#4D4D4D" width="7.2" height="31.1"/>
		<rect x="32.2" y="5.8" fill="#4D4D4D" width="8.6" height="363.5"/>
		<rect x="2" y="360.6" fill="#4D4D4D" width="38.8" height="8.6"/>
		<rect x="2" y="360.6" fill="#4D4D4D" width="8.6" height="160.5"/>
		<rect x="6.3" y="497.6" fill="#4D4D4D" width="120.9" height="23.6"/>
		<rect x="195.3" y="497.6" fill="#4D4D4D" width="18.6" height="23.6"/>
		<rect x="280" y="497.6" fill="#4D4D4D" width="18.6" height="23.6"/>
		<rect x="364.8" y="497.6" fill="#4D4D4D" width="18.6" height="23.6"/>
		<rect x="450.1" y="497.6" fill="#4D4D4D" width="18.6" height="23.6"/>
		<rect x="535.3" y="497.6" fill="#4D4D4D" width="18.6" height="23.6"/>
		<rect x="712.6" y="353.6" fill="#4D4D4D" width="14.2" height="28.3"/>
		<rect x="712.6" y="297" fill="#4D4D4D" width="14.2" height="28.3"/>
		<rect x="712.6" y="240.3" fill="#4D4D4D" width="14.2" height="28.3"/>
		<rect x="712.6" y="183.6" fill="#4D4D4D" width="14.2" height="28.3"/>
		<rect x="712.6" y="126.6" fill="#4D4D4D" width="14.2" height="28.3"/>
		<rect x="712.6" y="70" fill="#4D4D4D" width="14.2" height="28.3"/>
		<rect x="712.6" y="2" fill="#4D4D4D" width="14.2" height="39.6"/>
		<rect x="32.2" y="2" fill="#4D4D4D" width="684.6" height="9.2"/>
		<rect x="712.6" y="409.8" fill="#4D4D4D" width="14.2" height="28.3"/>
		<rect x="712.6" y="467.6" fill="#4D4D4D" width="14.2" height="53.3"/>
		<rect x="623.3" y="497.6" fill="#4D4D4D" width="103.4" height="23.6"/>
		<path fill="#4D4D4D" d="M197.5,520.6h-75.1v-22.5h75.1V520.6z M198,497.6h-76.1v23.6H198V497.6z"/>
		<path fill="#4D4D4D" d="M369.5,520.6h-75.1v-22.5h75.1V520.6z M370,497.6H294v23.6H370V497.6z"/>
		<path fill="#4D4D4D" d="M284.8,520.6h-75.1v-22.5h75.1V520.6z M285.3,497.6h-76.1v23.6h76.1V497.6z"/>
		<path fill="#4D4D4D" d="M454.8,520.6h-75.1v-22.5h75.1V520.6z M455.3,497.6h-76.1v23.6h76.1V497.6z"/>
		<path fill="#4D4D4D" d="M539.2,520.6h-75.1v-22.5h75.1V520.6z M539.7,497.6h-76.1v23.6h76.1V497.6z"/>
		<path fill="#4D4D4D" d="M625.1,520.6h-75.1v-22.5h75.1V520.6z M625.6,497.6h-76.1v23.6h76.1V497.6z"/>
		<path fill="#4D4D4D" d="M726.2,468.4h-13.2v-29.8h13.2V468.4z M726.7,438.2h-14.2v30.8h14.2V438.2z"/>
		<path fill="#4D4D4D" d="M726.2,408.9h-13.2v-29.8h13.2V408.9z M726.7,378.7h-14.2v30.8h14.2V378.7z"/>
		<path fill="#4D4D4D" d="M726.2,353.1h-13.2v-29.8h13.2V353.1z M726.7,322.9h-14.2v30.8h14.2V322.9z"/>
		<path fill="#4D4D4D" d="M726.2,297.8h-13.2V268h13.2V297.8z M726.7,267.5h-14.2v30.8h14.2V267.5z"/>
		<path fill="#4D4D4D" d="M726.2,240.8h-13.2v-29.8h13.2V240.8z M726.7,210.6h-14.2v30.8h14.2V210.6z"/>
		<path fill="#4D4D4D" d="M726.2,184.2h-13.2v-29.8h13.2V184.2z M726.7,153.9h-14.2v30.8h14.2V153.9z"/>
		<path fill="#4D4D4D" d="M726.2,126.3h-13.2V96.6h13.2V126.3z M726.7,96.1h-14.2v30.8h14.2V96.1z"/>
		<path fill="#4D4D4D" d="M726.2,70.7h-13.2V40.9h13.2V70.7z M726.7,40.4h-14.2v30.8h14.2V40.4z"/>
		<path fill="none" stroke="#4D4D4D" stroke-width="0.5" stroke-miterlimit="10" d="M285.4,136.8v-24.3c-13.8,0-25,10.9-25,24.3"/>
		<path fill="none" stroke="#4D4D4D" stroke-width="0.5" stroke-miterlimit="10" d="M364.8,136.8v-24.3c-13.8,0-25,10.9-25,24.3"/>
		<path fill="none" stroke="#4D4D4D" stroke-width="0.5" stroke-miterlimit="10" d="M542,92.8V68.5c-13.8,0-25,10.9-25,24.3"/>
		<path fill="none" stroke="#4D4D4D" stroke-width="0.5" stroke-miterlimit="10" d="M551.3,92.8V68.5c13.8,0,25,10.9,25,24.3"/>
		<path fill="none" stroke="#4D4D4D" stroke-width="0.5" stroke-miterlimit="10" d="M553.6,251.7v-24.3c13.8,0,25,10.9,25,24.3"/>
		<path fill="none" stroke="#4D4D4D" stroke-width="0.5" stroke-miterlimit="10" d="M551.2,372.8v24.3c13.8,0,25-10.9,25-24.3"/>
		<path fill="none" stroke="#4D4D4D" stroke-width="0.5" stroke-miterlimit="10" d="M588.8,367.8h24.3c0-13.8-10.9-25-24.3-25"/>
		<path fill="none" stroke="#4D4D4D" stroke-width="0.5" stroke-miterlimit="10" d="M503.1,372.8v24.3c-13.8,0-25-10.9-25-24.3"/>
		<path fill="none" stroke="#4D4D4D" stroke-width="0.5" stroke-miterlimit="10" d="M378,136.8v-24.3c13.8,0,25,10.9,25,24.3"/>
		<path fill="none" stroke="#4D4D4D" stroke-width="0.5" stroke-miterlimit="10" d="M54.3,40.1v16.6c9.5,0,17.1-7.5,17.1-16.6"/>
		<path fill="none" stroke="#4D4D4D" stroke-width="0.5" stroke-miterlimit="10" d="M132.1,37V20.3c-9.5,0-17.1,7.5-17.1,16.6"/>
		<polyline fill="none" stroke="#4D4D4D" stroke-width="0.5" stroke-miterlimit="10" points="41.1,408.4 41.1,465.7 93.5,465.7 
			93.5,408.4 126.1,408.4 126.1,496.3 		"/>
		<line fill="none" stroke="#4D4D4D" stroke-width="0.5" stroke-miterlimit="10" x1="93.5" y1="426" x2="126.1" y2="426"/>
		<line fill="none" stroke="#4D4D4D" stroke-width="0.5" stroke-miterlimit="10" x1="93.5" y1="433.8" x2="126.1" y2="433.8"/>
		<line fill="none" stroke="#4D4D4D" stroke-width="0.5" stroke-miterlimit="10" x1="93.5" y1="441.6" x2="126.1" y2="441.6"/>
		<line fill="none" stroke="#4D4D4D" stroke-width="0.5" stroke-miterlimit="10" x1="93.5" y1="449.3" x2="126.1" y2="449.3"/>
		<line fill="none" stroke="#4D4D4D" stroke-width="0.5" stroke-miterlimit="10" x1="93.5" y1="457.1" x2="126.1" y2="457.1"/>
		<line fill="none" stroke="#4D4D4D" stroke-width="0.5" stroke-miterlimit="10" x1="80.6" y1="465.7" x2="80.6" y2="498.3"/>
		<line fill="none" stroke="#4D4D4D" stroke-width="0.5" stroke-miterlimit="10" x1="72.8" y1="465.7" x2="72.8" y2="498.3"/>
		<line fill="none" stroke="#4D4D4D" stroke-width="0.5" stroke-miterlimit="10" x1="65" y1="465.7" x2="65" y2="498.3"/>
		<line fill="none" stroke="#4D4D4D" stroke-width="0.5" stroke-miterlimit="10" x1="57.2" y1="465.7" x2="57.2" y2="498.3"/>
		<line fill="none" stroke="#4D4D4D" stroke-width="0.5" stroke-miterlimit="10" x1="49.5" y1="465.7" x2="49.5" y2="498.3"/>
		<line fill="none" stroke="#4D4D4D" stroke-width="0.5" stroke-miterlimit="10" x1="8.4" y1="426.7" x2="40.9" y2="426.7"/>
		<line fill="none" stroke="#4D4D4D" stroke-width="0.5" stroke-miterlimit="10" x1="8.4" y1="434.5" x2="40.9" y2="434.5"/>
		<line fill="none" stroke="#4D4D4D" stroke-width="0.5" stroke-miterlimit="10" x1="8.4" y1="442.2" x2="40.9" y2="442.2"/>
		<line fill="none" stroke="#4D4D4D" stroke-width="0.5" stroke-miterlimit="10" x1="8.4" y1="450" x2="40.9" y2="450"/>
		<line fill="none" stroke="#4D4D4D" stroke-width="0.5" stroke-miterlimit="10" x1="8.4" y1="457.8" x2="40.9" y2="457.8"/>
		<line fill="none" stroke="#4D4D4D" stroke-width="0.5" stroke-miterlimit="10" x1="8.4" y1="465.7" x2="40.9" y2="465.7"/>
		<polyline fill="none" stroke="#4D4D4D" stroke-width="0.5" stroke-miterlimit="10" points="25.5,426.7 25.5,481.3 109.1,481.3 
			109.1,418.7 		"/>
		<path fill="#4D4D4D" d="M111.5,422.1c-0.1,0.1-0.3,0-0.3-0.1l-2.1-3.2l-2.1,3.2c-0.1,0.1-0.2,0.2-0.3,0.1
			c-0.1-0.1-0.2-0.2-0.1-0.3l2.3-3.6c0-0.1,0.1-0.1,0.2-0.1c0.1,0,0.2,0,0.2,0.1l2.3,3.6c0,0,0,0.1,0,0.1
			C111.7,422,111.6,422.1,111.5,422.1"/>
		<line fill="none" stroke="#4D4D4D" stroke-width="0.5" stroke-miterlimit="10" x1="93.5" y1="408.4" x2="41.1" y2="408.4"/>
		<path fill="none" stroke="#4D4D4D" stroke-width="0.5" stroke-miterlimit="10" d="M132.1,279.2c-0.1,0.1-0.1,0.2-0.2,0.3
			c-3.6,6-5.7,13.1-5.7,20.6c0,22,17.8,39.8,39.8,39.8c21.2,0,38.6-16.6,39.7-37.6c-0.2,1.7-0.2,1.7,0,0c0.1-0.4,0.1-0.8,0.1-1.2
			c0-0.1,0-0.2,0-0.3c0-0.2,0-0.5,0-0.7c0-22-17.8-39.8-39.8-39.8 M135.6,274.4C135.6,274.4,135.5,274.4,135.6,274.4 M165.9,321.2
			c-11.6,0-21.1-9.4-21.1-21.1c0-4.9,1.7-9.5,4.6-13.1c3.9-4.9,9.8-8,16.5-8c11.6,0,21.1,9.4,21.1,21.1c0,0.3,0,0.7-0.1,1
			C186.4,312.3,177.2,321.2,165.9,321.2z"/>
		<line fill="none" stroke="#4D4D4D" stroke-width="0.5" stroke-miterlimit="10" x1="166.3" y1="279.1" x2="124.8" y2="279.1"/>
		<path fill="none" stroke="#4D4D4D" stroke-width="0.5" stroke-miterlimit="10" d="M56.7,186.3v15c0,0.6-0.4,1-1,1H43.8v-17h11.9
			C56.2,185.3,56.7,185.7,56.7,186.3z"/>
		<path fill="none" stroke="#4D4D4D" stroke-width="0.5" stroke-miterlimit="10" d="M55,188v11.5c0,0.6-0.4,1-1,1h-6.5
			c-0.6,0-1-0.4-1-1V188c0-0.6,0.4-1,1-1H54C54.6,187,55,187.5,55,188z"/>
		<circle fill="none" stroke="#4D4D4D" stroke-width="0.5" stroke-miterlimit="10" cx="48.5" cy="193.8" r="0.8"/>
		<circle fill="none" stroke="#4D4D4D" stroke-width="0.5" stroke-miterlimit="10" cx="45.4" cy="193.8" r="0.5"/>
		<path fill="none" stroke="#4D4D4D" stroke-width="0.5" stroke-miterlimit="10" d="M56.7,160.5v15c0,0.6-0.4,1-1,1H43.8v-17h11.9
			C56.2,159.5,56.7,160,56.7,160.5z"/>
		<path fill="none" stroke="#4D4D4D" stroke-width="0.5" stroke-miterlimit="10" d="M55,162.3v11.5c0,0.6-0.4,1-1,1h-6.5
			c-0.6,0-1-0.4-1-1v-11.5c0-0.6,0.4-1,1-1H54C54.6,161.3,55,161.7,55,162.3z"/>
		<circle fill="none" stroke="#4D4D4D" stroke-width="0.5" stroke-miterlimit="10" cx="48.5" cy="168" r="0.8"/>
		<circle fill="none" stroke="#4D4D4D" stroke-width="0.5" stroke-miterlimit="10" cx="45.4" cy="168" r="0.5"/>
		<path fill="none" stroke="#4D4D4D" stroke-width="0.5" stroke-miterlimit="10" d="M160,26.5h-15c-0.6,0-1-0.4-1-1V13.6h17v11.9
			C161,26,160.5,26.5,160,26.5z"/>
		<path fill="none" stroke="#4D4D4D" stroke-width="0.5" stroke-miterlimit="10" d="M158.2,24.8h-11.5c-0.6,0-1-0.4-1-1v-6.5
			c0-0.6,0.4-1,1-1h11.5c0.6,0,1,0.4,1,1v6.5C159.2,24.3,158.8,24.8,158.2,24.8z"/>
		<circle fill="none" stroke="#4D4D4D" stroke-width="0.5" stroke-miterlimit="10" cx="152.5" cy="18.3" r="0.8"/>
		<circle fill="none" stroke="#4D4D4D" stroke-width="0.5" stroke-miterlimit="10" cx="152.5" cy="15.1" r="0.5"/>
		<path fill="none" stroke="#4D4D4D" stroke-width="0.5" stroke-miterlimit="10" d="M46.7,82.9h15c0.6,0,1,0.4,1,1v11.9h-17V83.9
			C45.7,83.4,46.1,82.9,46.7,82.9z"/>
		<path fill="none" stroke="#4D4D4D" stroke-width="0.5" stroke-miterlimit="10" d="M48.4,84.6h11.5c0.6,0,1,0.4,1,1v6.5
			c0,0.6-0.4,1-1,1H48.4c-0.6,0-1-0.4-1-1v-6.5C47.4,85.1,47.9,84.6,48.4,84.6z"/>
		<circle fill="none" stroke="#4D4D4D" stroke-width="0.5" stroke-miterlimit="10" cx="54.2" cy="91.1" r="0.8"/>
		<circle fill="none" stroke="#4D4D4D" stroke-width="0.5" stroke-miterlimit="10" cx="54.2" cy="94.3" r="0.5"/>
		<path fill="none" stroke="#4D4D4D" stroke-width="0.5" stroke-miterlimit="10" d="M76.3,82.9h15c0.6,0,1,0.4,1,1v11.9h-17V83.9
			C75.3,83.4,75.8,82.9,76.3,82.9z"/>
		<path fill="none" stroke="#4D4D4D" stroke-width="0.5" stroke-miterlimit="10" d="M78.1,84.6h11.5c0.6,0,1,0.4,1,1v6.5
			c0,0.6-0.4,1-1,1H78.1c-0.6,0-1-0.4-1-1v-6.5C77.1,85.1,77.5,84.6,78.1,84.6z"/>
		<circle fill="none" stroke="#4D4D4D" stroke-width="0.5" stroke-miterlimit="10" cx="83.8" cy="91.1" r="0.8"/>
		<circle fill="none" stroke="#4D4D4D" stroke-width="0.5" stroke-miterlimit="10" cx="83.8" cy="94.3" r="0.5"/>
		<path fill="none" stroke="#4D4D4D" stroke-width="0.5" stroke-miterlimit="10" d="M107.3,19.8V26c0,1.1-0.9,2-2,2h-14V17.8h14
			C106.5,17.8,107.3,18.7,107.3,19.8z"/>
		<path fill="none" stroke="#4D4D4D" stroke-width="0.5" stroke-miterlimit="10" d="M105.9,20.2v5.3c0,0.6-0.4,1-1,1h-8.2
			c-0.6,0-1-0.4-1-1v-5.3c0-0.6,0.4-1,1-1h8.2C105.4,19.2,105.9,19.6,105.9,20.2z"/>
		<path fill="none" stroke="#4D4D4D" stroke-width="0.5" stroke-miterlimit="10" d="M99.4,22.8V23c0,0.6-0.4,1-1,1h-1.9v-2.2h1.9
			C98.9,21.8,99.4,22.2,99.4,22.8z"/>
		<path fill="none" stroke="#4D4D4D" stroke-width="0.5" stroke-miterlimit="10" d="M70.6,26v-6.2c0-1.1,0.9-2,2-2h14V28h-14
			C71.5,28,70.6,27.1,70.6,26z"/>
		<path fill="none" stroke="#4D4D4D" stroke-width="0.5" stroke-miterlimit="10" d="M72,25.7v-5.3c0-0.6,0.4-1,1-1h8.2
			c0.6,0,1,0.4,1,1v5.3c0,0.6-0.4,1-1,1H73C72.5,26.7,72,26.2,72,25.7z"/>
		<path fill="none" stroke="#4D4D4D" stroke-width="0.5" stroke-miterlimit="10" d="M78.5,23.1v-0.2c0-0.6,0.4-1,1-1h1.9v2.2h-1.9
			C79,24.1,78.5,23.6,78.5,23.1z"/>
		<path fill="none" stroke="#4D4D4D" stroke-width="0.5" stroke-miterlimit="10" d="M186.1,28.5h-6.2c-1.1,0-2-0.9-2-2v-14h10.2v14
			C188.1,27.6,187.2,28.5,186.1,28.5z"/>
		<path fill="none" stroke="#4D4D4D" stroke-width="0.5" stroke-miterlimit="10" d="M185.7,27h-5.3c-0.6,0-1-0.4-1-1v-8.2
			c0-0.6,0.4-1,1-1h5.3c0.6,0,1,0.4,1,1V26C186.7,26.6,186.3,27,185.7,27z"/>
		<path fill="none" stroke="#4D4D4D" stroke-width="0.5" stroke-miterlimit="10" d="M183.2,20.5H183c-0.6,0-1-0.4-1-1v-1.9h2.2v1.9
			C184.2,20.1,183.7,20.5,183.2,20.5z"/>
		<path fill="none" stroke="#4D4D4D" stroke-width="0.5" stroke-miterlimit="10" d="M63,107.4v6.2c0,1.1-0.9,2-2,2H47v-10.2h14
			C62.1,105.4,63,106.3,63,107.4z"/>
		<path fill="none" stroke="#4D4D4D" stroke-width="0.5" stroke-miterlimit="10" d="M61.5,107.7v5.3c0,0.6-0.4,1-1,1h-8.2
			c-0.6,0-1-0.4-1-1v-5.3c0-0.6,0.4-1,1-1h8.2C61,106.7,61.5,107.2,61.5,107.7z"/>
		<path fill="none" stroke="#4D4D4D" stroke-width="0.5" stroke-miterlimit="10" d="M55,110.3v0.2c0,0.6-0.4,1-1,1h-1.9v-2.2H54
			C54.5,109.3,55,109.8,55,110.3z"/>
		<path fill="none" stroke="#4D4D4D" stroke-width="0.5" stroke-miterlimit="10" d="M61.8,141.6l-8.4,1.5v-10l8.4,1.5
			c1.7,0.3,3,1.8,3,3.5v0C64.8,139.9,63.5,141.3,61.8,141.6z"/>
		<line fill="none" stroke="#4D4D4D" stroke-width="0.5" stroke-miterlimit="10" x1="55.7" y1="133.5" x2="55.7" y2="142.6"/>
		<path fill="none" stroke="#4D4D4D" stroke-width="0.5" stroke-miterlimit="10" d="M58.9,139.1l-0.4,0.1c-0.5,0.1-1-0.3-1-0.8v-0.4
			c0-0.5,0.5-0.9,1-0.8l0.4,0.1c0.4,0.1,0.6,0.4,0.6,0.8v0.3C59.6,138.6,59.3,139,58.9,139.1z"/>
		<path fill="#4D4D4D" d="M297.4,181.7c3.9,0,7,3.1,7,7v15.2c0,1.1-0.9,2-2,2H248c-1.1,0-2-0.9-2-2v-15.2c0-3.9,3.1-7,7-7H297.4
			 M297.4,181.2H253c-4.1,0-7.5,3.4-7.5,7.5v15.2c0,1.4,1.1,2.5,2.5,2.5h54.4c1.4,0,2.5-1.1,2.5-2.5v-15.2
			C304.9,184.6,301.5,181.2,297.4,181.2"/>
		<path fill="#4D4D4D" d="M297.4,187.5c1.1,0,2,0.9,2,2v16.4h-47v-16.4c0-1.1,0.9-2,2-2H297.4 M297.4,187h-43
			c-1.4,0-2.5,1.1-2.5,2.5v16.4v0.5h0.5h47h0.5v-0.5v-16.4C299.9,188.1,298.7,187,297.4,187"/>
		<path fill="#4D4D4D" d="M257.8,200.3c0.5,0,0.9,0.4,0.9,0.9c0,0.5-0.4,0.9-0.9,0.9c-0.5,0-0.9-0.4-0.9-0.9
			C256.9,200.7,257.3,200.3,257.8,200.3 M257.8,199.8c-0.8,0-1.4,0.6-1.4,1.4c0,0.8,0.6,1.4,1.4,1.4c0.8,0,1.4-0.6,1.4-1.4
			C259.2,200.5,258.6,199.8,257.8,199.8"/>
		<path fill="#4D4D4D" d="M257.8,191.2c0.5,0,0.9,0.4,0.9,0.9c0,0.5-0.4,0.9-0.9,0.9c-0.5,0-0.9-0.4-0.9-0.9
			C256.9,191.6,257.3,191.2,257.8,191.2 M257.8,190.7c-0.8,0-1.4,0.6-1.4,1.4c0,0.8,0.6,1.4,1.4,1.4c0.8,0,1.4-0.6,1.4-1.4
			C259.2,191.3,258.6,190.7,257.8,190.7"/>
		<path fill="#4D4D4D" d="M266.7,200.3c0.5,0,0.9,0.4,0.9,0.9c0,0.5-0.4,0.9-0.9,0.9c-0.5,0-0.9-0.4-0.9-0.9
			C265.7,200.7,266.1,200.3,266.7,200.3 M266.7,199.8c-0.8,0-1.4,0.6-1.4,1.4c0,0.8,0.6,1.4,1.4,1.4c0.8,0,1.4-0.6,1.4-1.4
			C268.1,200.5,267.4,199.8,266.7,199.8"/>
		<path fill="#4D4D4D" d="M266.7,191.2c0.5,0,0.9,0.4,0.9,0.9c0,0.5-0.4,0.9-0.9,0.9c-0.5,0-0.9-0.4-0.9-0.9
			C265.7,191.6,266.1,191.2,266.7,191.2 M266.7,190.7c-0.8,0-1.4,0.6-1.4,1.4c0,0.8,0.6,1.4,1.4,1.4c0.8,0,1.4-0.6,1.4-1.4
			C268.1,191.3,267.4,190.7,266.7,190.7"/>
		<path fill="#4D4D4D" d="M275.6,200.3c0.5,0,0.9,0.4,0.9,0.9c0,0.5-0.4,0.9-0.9,0.9c-0.5,0-0.9-0.4-0.9-0.9
			C274.7,200.7,275.1,200.3,275.6,200.3 M275.6,199.8c-0.8,0-1.4,0.6-1.4,1.4c0,0.8,0.6,1.4,1.4,1.4c0.8,0,1.4-0.6,1.4-1.4
			C277,200.5,276.4,199.8,275.6,199.8"/>
		<path fill="#4D4D4D" d="M275.6,191.2c0.5,0,0.9,0.4,0.9,0.9c0,0.5-0.4,0.9-0.9,0.9c-0.5,0-0.9-0.4-0.9-0.9
			C274.7,191.6,275.1,191.2,275.6,191.2 M275.6,190.7c-0.8,0-1.4,0.6-1.4,1.4c0,0.8,0.6,1.4,1.4,1.4c0.8,0,1.4-0.6,1.4-1.4
			C277,191.3,276.4,190.7,275.6,190.7"/>
		<path fill="#4D4D4D" d="M284.7,200.3c0.5,0,0.9,0.4,0.9,0.9c0,0.5-0.4,0.9-0.9,0.9c-0.5,0-0.9-0.4-0.9-0.9
			C283.7,200.7,284.2,200.3,284.7,200.3 M284.7,199.8c-0.8,0-1.4,0.6-1.4,1.4c0,0.8,0.6,1.4,1.4,1.4c0.8,0,1.4-0.6,1.4-1.4
			C286.1,200.5,285.4,199.8,284.7,199.8"/>
		<path fill="#4D4D4D" d="M284.7,191.2c0.5,0,0.9,0.4,0.9,0.9c0,0.5-0.4,0.9-0.9,0.9c-0.5,0-0.9-0.4-0.9-0.9
			C283.7,191.6,284.2,191.2,284.7,191.2 M284.7,190.7c-0.8,0-1.4,0.6-1.4,1.4c0,0.8,0.6,1.4,1.4,1.4c0.8,0,1.4-0.6,1.4-1.4
			C286.1,191.3,285.4,190.7,284.7,190.7"/>
		<path fill="#4D4D4D" d="M293.6,200.3c0.5,0,0.9,0.4,0.9,0.9c0,0.5-0.4,0.9-0.9,0.9c-0.5,0-0.9-0.4-0.9-0.9
			C292.6,200.7,293,200.3,293.6,200.3 M293.6,199.8c-0.8,0-1.4,0.6-1.4,1.4c0,0.8,0.6,1.4,1.4,1.4c0.8,0,1.4-0.6,1.4-1.4
			C295,200.5,294.3,199.8,293.6,199.8"/>
		<path fill="#4D4D4D" d="M293.6,191.2c0.5,0,0.9,0.4,0.9,0.9c0,0.5-0.4,0.9-0.9,0.9c-0.5,0-0.9-0.4-0.9-0.9
			C292.6,191.6,293,191.2,293.6,191.2 M293.6,190.7c-0.8,0-1.4,0.6-1.4,1.4c0,0.8,0.6,1.4,1.4,1.4c0.8,0,1.4-0.6,1.4-1.4
			C295,191.3,294.3,190.7,293.6,190.7"/>
		<path fill="#4D4D4D" d="M447.2,181.7c3.9,0,7,3.1,7,7v15.2c0,1.1-0.9,2-2,2h-54.4c-1.1,0-2-0.9-2-2v-15.2c0-3.9,3.1-7,7-7H447.2
			 M447.2,181.2h-44.4c-4.1,0-7.5,3.4-7.5,7.5v15.2c0,1.4,1.1,2.5,2.5,2.5h54.4c1.4,0,2.5-1.1,2.5-2.5v-15.2
			C454.7,184.6,451.4,181.2,447.2,181.2"/>
		<path fill="#4D4D4D" d="M447.2,187.5c1.1,0,2,0.9,2,2v16.4h-47v-16.4c0-1.1,0.9-2,2-2H447.2 M447.2,187h-43
			c-1.4,0-2.5,1.1-2.5,2.5v16.4v0.5h0.5h47h0.5v-0.5v-16.4C449.7,188.1,448.6,187,447.2,187"/>
		<path fill="#4D4D4D" d="M407.7,200.3c0.5,0,0.9,0.4,0.9,0.9c0,0.5-0.4,0.9-0.9,0.9c-0.5,0-0.9-0.4-0.9-0.9
			C406.7,200.7,407.1,200.3,407.7,200.3 M407.7,199.8c-0.8,0-1.4,0.6-1.4,1.4c0,0.8,0.6,1.4,1.4,1.4c0.8,0,1.4-0.6,1.4-1.4
			C409.1,200.5,408.4,199.8,407.7,199.8"/>
		<path fill="#4D4D4D" d="M407.7,191.2c0.5,0,0.9,0.4,0.9,0.9c0,0.5-0.4,0.9-0.9,0.9c-0.5,0-0.9-0.4-0.9-0.9
			C406.7,191.6,407.1,191.2,407.7,191.2 M407.7,190.7c-0.8,0-1.4,0.6-1.4,1.4c0,0.8,0.6,1.4,1.4,1.4c0.8,0,1.4-0.6,1.4-1.4
			C409.1,191.3,408.4,190.7,407.7,190.7"/>
		<path fill="#4D4D4D" d="M416.5,200.3c0.5,0,0.9,0.4,0.9,0.9c0,0.5-0.4,0.9-0.9,0.9c-0.5,0-0.9-0.4-0.9-0.9
			C415.6,200.7,416,200.3,416.5,200.3 M416.5,199.8c-0.8,0-1.4,0.6-1.4,1.4c0,0.8,0.6,1.4,1.4,1.4c0.8,0,1.4-0.6,1.4-1.4
			C417.9,200.5,417.3,199.8,416.5,199.8"/>
		<path fill="#4D4D4D" d="M416.5,191.2c0.5,0,0.9,0.4,0.9,0.9c0,0.5-0.4,0.9-0.9,0.9c-0.5,0-0.9-0.4-0.9-0.9
			C415.6,191.6,416,191.2,416.5,191.2 M416.5,190.7c-0.8,0-1.4,0.6-1.4,1.4c0,0.8,0.6,1.4,1.4,1.4c0.8,0,1.4-0.6,1.4-1.4
			C417.9,191.3,417.3,190.7,416.5,190.7"/>
		<path fill="#4D4D4D" d="M425.4,200.3c0.5,0,0.9,0.4,0.9,0.9c0,0.5-0.4,0.9-0.9,0.9c-0.5,0-0.9-0.4-0.9-0.9
			C424.5,200.7,424.9,200.3,425.4,200.3 M425.4,199.8c-0.8,0-1.4,0.6-1.4,1.4c0,0.8,0.6,1.4,1.4,1.4c0.8,0,1.4-0.6,1.4-1.4
			C426.9,200.5,426.2,199.8,425.4,199.8"/>
		<path fill="#4D4D4D" d="M425.4,191.2c0.5,0,0.9,0.4,0.9,0.9c0,0.5-0.4,0.9-0.9,0.9c-0.5,0-0.9-0.4-0.9-0.9
			C424.5,191.6,424.9,191.2,425.4,191.2 M425.4,190.7c-0.8,0-1.4,0.6-1.4,1.4c0,0.8,0.6,1.4,1.4,1.4c0.8,0,1.4-0.6,1.4-1.4
			C426.9,191.3,426.2,190.7,425.4,190.7"/>
		<path fill="#4D4D4D" d="M434.5,200.3c0.5,0,0.9,0.4,0.9,0.9c0,0.5-0.4,0.9-0.9,0.9c-0.5,0-0.9-0.4-0.9-0.9
			C433.6,200.7,434,200.3,434.5,200.3 M434.5,199.8c-0.8,0-1.4,0.6-1.4,1.4c0,0.8,0.6,1.4,1.4,1.4c0.8,0,1.4-0.6,1.4-1.4
			C435.9,200.5,435.3,199.8,434.5,199.8"/>
		<path fill="#4D4D4D" d="M434.5,191.2c0.5,0,0.9,0.4,0.9,0.9c0,0.5-0.4,0.9-0.9,0.9c-0.5,0-0.9-0.4-0.9-0.9
			C433.6,191.6,434,191.2,434.5,191.2 M434.5,190.7c-0.8,0-1.4,0.6-1.4,1.4c0,0.8,0.6,1.4,1.4,1.4c0.8,0,1.4-0.6,1.4-1.4
			C435.9,191.3,435.3,190.7,434.5,190.7"/>
		<path fill="#4D4D4D" d="M443.4,200.3c0.5,0,0.9,0.4,0.9,0.9c0,0.5-0.4,0.9-0.9,0.9c-0.5,0-0.9-0.4-0.9-0.9
			C442.5,200.7,442.9,200.3,443.4,200.3 M443.4,199.8c-0.8,0-1.4,0.6-1.4,1.4c0,0.8,0.6,1.4,1.4,1.4c0.8,0,1.4-0.6,1.4-1.4
			C444.8,200.5,444.2,199.8,443.4,199.8"/>
		<path fill="#4D4D4D" d="M443.4,191.2c0.5,0,0.9,0.4,0.9,0.9c0,0.5-0.4,0.9-0.9,0.9c-0.5,0-0.9-0.4-0.9-0.9
			C442.5,191.6,442.9,191.2,443.4,191.2 M443.4,190.7c-0.8,0-1.4,0.6-1.4,1.4c0,0.8,0.6,1.4,1.4,1.4c0.8,0,1.4-0.6,1.4-1.4
			C444.8,191.3,444.2,190.7,443.4,190.7"/>
		<path fill="#4D4D4D" d="M530.6,288.1c1.1,0,2,0.9,2,2v15.2c0,3.9-3.1,7-7,7h-35.4c-3.9,0-7-3.1-7-7v-15.2c0-1.1,0.9-2,2-2H530.6
			 M530.6,287.6h-45.4c-1.4,0-2.5,1.1-2.5,2.5v15.2c0,4.1,3.4,7.5,7.5,7.5h35.4c4.1,0,7.5-3.4,7.5-7.5v-15.2
			C533.1,288.7,532,287.6,530.6,287.6"/>
		<path fill="#4D4D4D" d="M526.2,288.1v16.4c0,1.1-0.9,2-2,2h-34c-1.1,0-2-0.9-2-2v-16.4H526.2 M526.7,287.6h-0.5h-38h-0.5v0.5v16.4
			c0,1.4,1.1,2.5,2.5,2.5h34c1.4,0,2.5-1.1,2.5-2.5v-16.4V287.6z"/>
		<path fill="#4D4D4D" d="M520.7,291.8c0.5,0,0.9,0.4,0.9,0.9c0,0.5-0.4,0.9-0.9,0.9c-0.5,0-0.9-0.4-0.9-0.9
			C519.8,292.2,520.2,291.8,520.7,291.8 M520.7,291.3c-0.8,0-1.4,0.6-1.4,1.4c0,0.8,0.6,1.4,1.4,1.4c0.8,0,1.4-0.6,1.4-1.4
			C522.2,291.9,521.5,291.3,520.7,291.3"/>
		<path fill="#4D4D4D" d="M520.7,300.9c0.5,0,0.9,0.4,0.9,0.9c0,0.5-0.4,0.9-0.9,0.9c-0.5,0-0.9-0.4-0.9-0.9
			C519.8,301.3,520.2,300.9,520.7,300.9 M520.7,300.4c-0.8,0-1.4,0.6-1.4,1.4c0,0.8,0.6,1.4,1.4,1.4c0.8,0,1.4-0.6,1.4-1.4
			C522.2,301,521.5,300.4,520.7,300.4"/>
		<path fill="#4D4D4D" d="M512,291.8c0.5,0,0.9,0.4,0.9,0.9c0,0.5-0.4,0.9-0.9,0.9c-0.5,0-0.9-0.4-0.9-0.9
			C511,292.2,511.5,291.8,512,291.8 M512,291.3c-0.8,0-1.4,0.6-1.4,1.4c0,0.8,0.6,1.4,1.4,1.4c0.8,0,1.4-0.6,1.4-1.4
			C513.4,291.9,512.7,291.3,512,291.3"/>
		<path fill="#4D4D4D" d="M512,300.9c0.5,0,0.9,0.4,0.9,0.9c0,0.5-0.4,0.9-0.9,0.9c-0.5,0-0.9-0.4-0.9-0.9
			C511,301.3,511.5,300.9,512,300.9 M512,300.4c-0.8,0-1.4,0.6-1.4,1.4c0,0.8,0.6,1.4,1.4,1.4c0.8,0,1.4-0.6,1.4-1.4
			C513.4,301,512.7,300.4,512,300.4"/>
		<path fill="#4D4D4D" d="M502.9,291.8c0.5,0,0.9,0.4,0.9,0.9c0,0.5-0.4,0.9-0.9,0.9c-0.5,0-0.9-0.4-0.9-0.9
			C502,292.2,502.4,291.8,502.9,291.8 M502.9,291.3c-0.8,0-1.4,0.6-1.4,1.4c0,0.8,0.6,1.4,1.4,1.4c0.8,0,1.4-0.6,1.4-1.4
			C504.3,291.9,503.7,291.3,502.9,291.3"/>
		<path fill="#4D4D4D" d="M502.9,300.9c0.5,0,0.9,0.4,0.9,0.9c0,0.5-0.4,0.9-0.9,0.9c-0.5,0-0.9-0.4-0.9-0.9
			C502,301.3,502.4,300.9,502.9,300.9 M502.9,300.4c-0.8,0-1.4,0.6-1.4,1.4c0,0.8,0.6,1.4,1.4,1.4c0.8,0,1.4-0.6,1.4-1.4
			C504.3,301,503.7,300.4,502.9,300.4"/>
		<path fill="#4D4D4D" d="M494,291.8c0.5,0,0.9,0.4,0.9,0.9c0,0.5-0.4,0.9-0.9,0.9c-0.5,0-0.9-0.4-0.9-0.9
			C493.1,292.2,493.5,291.8,494,291.8 M494,291.3c-0.8,0-1.4,0.6-1.4,1.4c0,0.8,0.6,1.4,1.4,1.4c0.8,0,1.4-0.6,1.4-1.4
			C495.4,291.9,494.8,291.3,494,291.3"/>
		<path fill="#4D4D4D" d="M494,300.9c0.5,0,0.9,0.4,0.9,0.9c0,0.5-0.4,0.9-0.9,0.9c-0.5,0-0.9-0.4-0.9-0.9
			C493.1,301.3,493.5,300.9,494,300.9 M494,300.4c-0.8,0-1.4,0.6-1.4,1.4c0,0.8,0.6,1.4,1.4,1.4c0.8,0,1.4-0.6,1.4-1.4
			C495.4,301,494.8,300.4,494,300.4"/>
		<path fill="#4D4D4D" d="M65.8,282.7c1.1,0,2,0.9,2,2v54.4c0,1.1-0.9,2-2,2H50.6c-3.9,0-7-3.1-7-7v-44.4c0-3.9,3.1-7,7-7H65.8
			 M65.8,282.2H50.6c-4.1,0-7.5,3.4-7.5,7.5v44.4c0,4.1,3.4,7.5,7.5,7.5h15.2c1.4,0,2.5-1.1,2.5-2.5v-54.4
			C68.3,283.3,67.2,282.2,65.8,282.2"/>
		<path fill="#4D4D4D" d="M67.8,287.8v47H51.4c-1.1,0-2-0.9-2-2v-43c0-1.1,0.9-2,2-2H67.8 M68.3,287.3h-0.5H51.4
			c-1.4,0-2.5,1.1-2.5,2.5v43c0,1.4,1.1,2.5,2.5,2.5h16.4h0.5v-0.5v-47V287.3z"/>
		<path fill="#4D4D4D" d="M63.2,328.4c0.5,0,0.9,0.4,0.9,0.9c0,0.5-0.4,0.9-0.9,0.9c-0.5,0-0.9-0.4-0.9-0.9
			C62.3,328.8,62.7,328.4,63.2,328.4 M63.2,327.9c-0.8,0-1.4,0.6-1.4,1.4c0,0.8,0.6,1.4,1.4,1.4c0.8,0,1.4-0.6,1.4-1.4
			C64.6,328.5,64,327.9,63.2,327.9"/>
		<path fill="#4D4D4D" d="M54.1,328.4c0.5,0,0.9,0.4,0.9,0.9c0,0.5-0.4,0.9-0.9,0.9c-0.5,0-0.9-0.4-0.9-0.9
			C53.1,328.8,53.5,328.4,54.1,328.4 M54.1,327.9c-0.8,0-1.4,0.6-1.4,1.4c0,0.8,0.6,1.4,1.4,1.4c0.8,0,1.4-0.6,1.4-1.4
			C55.5,328.5,54.8,327.9,54.1,327.9"/>
		<path fill="#4D4D4D" d="M63.2,319.6c0.5,0,0.9,0.4,0.9,0.9c0,0.5-0.4,0.9-0.9,0.9c-0.5,0-0.9-0.4-0.9-0.9
			C62.3,320,62.7,319.6,63.2,319.6 M63.2,319.1c-0.8,0-1.4,0.6-1.4,1.4s0.6,1.4,1.4,1.4c0.8,0,1.4-0.6,1.4-1.4S64,319.1,63.2,319.1"
			/>
		<path fill="#4D4D4D" d="M54.1,319.6c0.5,0,0.9,0.4,0.9,0.9c0,0.5-0.4,0.9-0.9,0.9c-0.5,0-0.9-0.4-0.9-0.9
			C53.1,320,53.5,319.6,54.1,319.6 M54.1,319.1c-0.8,0-1.4,0.6-1.4,1.4s0.6,1.4,1.4,1.4c0.8,0,1.4-0.6,1.4-1.4
			S54.8,319.1,54.1,319.1"/>
		<path fill="#4D4D4D" d="M63.2,310.6c0.5,0,0.9,0.4,0.9,0.9c0,0.5-0.4,0.9-0.9,0.9c-0.5,0-0.9-0.4-0.9-0.9
			C62.3,311,62.7,310.6,63.2,310.6 M63.2,310.1c-0.8,0-1.4,0.6-1.4,1.4c0,0.8,0.6,1.4,1.4,1.4c0.8,0,1.4-0.6,1.4-1.4
			C64.6,310.8,64,310.1,63.2,310.1"/>
		<path fill="#4D4D4D" d="M54.1,310.6c0.5,0,0.9,0.4,0.9,0.9c0,0.5-0.4,0.9-0.9,0.9c-0.5,0-0.9-0.4-0.9-0.9
			C53.1,311,53.5,310.6,54.1,310.6 M54.1,310.1c-0.8,0-1.4,0.6-1.4,1.4c0,0.8,0.6,1.4,1.4,1.4c0.8,0,1.4-0.6,1.4-1.4
			C55.5,310.8,54.8,310.1,54.1,310.1"/>
		<path fill="#4D4D4D" d="M63.2,301.5c0.5,0,0.9,0.4,0.9,0.9c0,0.5-0.4,0.9-0.9,0.9c-0.5,0-0.9-0.4-0.9-0.9
			C62.3,302,62.7,301.5,63.2,301.5 M63.2,301c-0.8,0-1.4,0.6-1.4,1.4s0.6,1.4,1.4,1.4c0.8,0,1.4-0.6,1.4-1.4S64,301,63.2,301"/>
		<path fill="#4D4D4D" d="M54.1,301.5c0.5,0,0.9,0.4,0.9,0.9c0,0.5-0.4,0.9-0.9,0.9c-0.5,0-0.9-0.4-0.9-0.9
			C53.1,302,53.5,301.5,54.1,301.5 M54.1,301c-0.8,0-1.4,0.6-1.4,1.4s0.6,1.4,1.4,1.4c0.8,0,1.4-0.6,1.4-1.4S54.8,301,54.1,301"/>
		<path fill="#4D4D4D" d="M63.2,292.7c0.5,0,0.9,0.4,0.9,0.9c0,0.5-0.4,0.9-0.9,0.9c-0.5,0-0.9-0.4-0.9-0.9
			C62.3,293.1,62.7,292.7,63.2,292.7 M63.2,292.2c-0.8,0-1.4,0.6-1.4,1.4c0,0.8,0.6,1.4,1.4,1.4c0.8,0,1.4-0.6,1.4-1.4
			C64.6,292.8,64,292.2,63.2,292.2"/>
		<path fill="#4D4D4D" d="M54.1,292.7c0.5,0,0.9,0.4,0.9,0.9c0,0.5-0.4,0.9-0.9,0.9c-0.5,0-0.9-0.4-0.9-0.9
			C53.1,293.1,53.5,292.7,54.1,292.7 M54.1,292.2c-0.8,0-1.4,0.6-1.4,1.4c0,0.8,0.6,1.4,1.4,1.4c0.8,0,1.4-0.6,1.4-1.4
			C55.5,292.8,54.8,292.2,54.1,292.2"/>
		<path fill="#4D4D4D" d="M92.9,242.5c3.9,0,7,3.1,7,7v15.2c0,1.1-0.9,2-2,2H70.7c-1.1,0-2-0.9-2-2v-15.2c0-3.9,3.1-7,7-7H92.9
			 M92.9,242H75.7c-4.1,0-7.5,3.4-7.5,7.5v15.2c0,1.4,1.1,2.5,2.5,2.5h27.2c1.4,0,2.5-1.1,2.5-2.5v-15.2
			C100.4,245.4,97,242,92.9,242"/>
		<path fill="#4D4D4D" d="M92.4,248.3c1.1,0,2,0.9,2,2v16.4h-20v-16.4c0-1.1,0.9-2,2-2H92.4 M92.4,247.8h-16c-1.4,0-2.5,1.1-2.5,2.5
			v16.4v0.5h0.5h20h0.5v-0.5v-16.4C94.9,249,93.7,247.8,92.4,247.8"/>
		<path fill="#4D4D4D" d="M88.7,260.3c0.5,0,0.9,0.4,0.9,0.9c0,0.5-0.4,0.9-0.9,0.9c-0.5,0-0.9-0.4-0.9-0.9
			C87.8,260.7,88.2,260.3,88.7,260.3 M88.7,259.8c-0.8,0-1.4,0.6-1.4,1.4s0.6,1.4,1.4,1.4c0.8,0,1.4-0.6,1.4-1.4
			S89.5,259.8,88.7,259.8"/>
		<path fill="#4D4D4D" d="M79.6,260.3c0.5,0,0.9,0.4,0.9,0.9c0,0.5-0.4,0.9-0.9,0.9c-0.5,0-0.9-0.4-0.9-0.9
			C78.7,260.7,79.1,260.3,79.6,260.3 M79.6,259.8c-0.8,0-1.4,0.6-1.4,1.4s0.6,1.4,1.4,1.4c0.8,0,1.4-0.6,1.4-1.4
			S80.4,259.8,79.6,259.8"/>
		<path fill="#4D4D4D" d="M88.7,252.4c0.5,0,0.9,0.4,0.9,0.9c0,0.5-0.4,0.9-0.9,0.9c-0.5,0-0.9-0.4-0.9-0.9
			C87.8,252.8,88.2,252.4,88.7,252.4 M88.7,251.9c-0.8,0-1.4,0.6-1.4,1.4s0.6,1.4,1.4,1.4c0.8,0,1.4-0.6,1.4-1.4
			S89.5,251.9,88.7,251.9"/>
		<path fill="#4D4D4D" d="M79.6,252.4c0.5,0,0.9,0.4,0.9,0.9c0,0.5-0.4,0.9-0.9,0.9c-0.5,0-0.9-0.4-0.9-0.9
			C78.7,252.8,79.1,252.4,79.6,252.4 M79.6,251.9c-0.8,0-1.4,0.6-1.4,1.4s0.6,1.4,1.4,1.4c0.8,0,1.4-0.6,1.4-1.4
			S80.4,251.9,79.6,251.9"/>
		<circle fill="none" stroke="#4D4D4D" stroke-width="0.5" stroke-miterlimit="10" cx="497.4" cy="48.9" r="11.2"/>
		<circle fill="none" stroke="#4D4D4D" stroke-width="0.5" stroke-miterlimit="10" cx="589.7" cy="48.9" r="11.2"/>
		<path fill="none" stroke="#4D4D4D" stroke-width="0.5" stroke-miterlimit="10" d="M513.4,43l-9.5-9.5c-0.8-0.8-0.8-2.1,0.1-2.9
			l10.2-9.1c0.8-0.7,2-0.7,2.7,0.1l8.4,8.4c0.8,0.8,0.8,2,0.1,2.7l-9.1,10.2C515.5,43.7,514.2,43.8,513.4,43z"/>
		<path fill="none" stroke="#4D4D4D" stroke-width="0.5" stroke-miterlimit="10" d="M512.1,41.7l-7-7c-0.6-0.6-0.6-1.6,0.1-2.1
			l7.5-6.7c0.6-0.5,1.5-0.5,2,0.1l6.2,6.2c0.5,0.5,0.6,1.4,0.1,2l-6.7,7.5C513.7,42.3,512.7,42.3,512.1,41.7z"/>
		<path fill="none" stroke="#4D4D4D" stroke-width="0.5" stroke-miterlimit="10" d="M602.3,38.7l-12.1-5.8c-1-0.5-1.4-1.8-0.9-2.8
			l6.6-12c0.5-0.9,1.7-1.3,2.6-0.8l10.7,5.1c1,0.5,1.4,1.6,1,2.6L605,37.6C604.6,38.7,603.3,39.2,602.3,38.7z"/>
		<path fill="none" stroke="#4D4D4D" stroke-width="0.5" stroke-miterlimit="10" d="M600.7,37.9l-8.9-4.2c-0.8-0.4-1.1-1.3-0.7-2
			l4.8-8.8c0.4-0.7,1.2-1,1.9-0.6l7.8,3.8c0.7,0.3,1,1.2,0.7,1.9l-3.8,9.3C602.3,37.9,601.4,38.2,600.7,37.9z"/>
		<path fill="none" stroke="#4D4D4D" stroke-width="0.5" stroke-miterlimit="10" d="M580.6,35.3L575,47.5c-0.5,1-1.7,1.5-2.8,0.9
			L560.2,42c-0.9-0.5-1.3-1.6-0.9-2.6l5-10.8c0.4-1,1.6-1.4,2.5-1l12.7,5C580.6,33,581.1,34.2,580.6,35.3z"/>
		<path fill="none" stroke="#4D4D4D" stroke-width="0.5" stroke-miterlimit="10" d="M579.9,36.9l-4.1,8.9c-0.4,0.8-1.3,1.1-2,0.7
			l-8.9-4.7c-0.7-0.4-1-1.2-0.6-1.9l3.6-7.9c0.3-0.7,1.1-1,1.9-0.8l9.3,3.7C579.9,35.2,580.2,36.1,579.9,36.9z"/>
		<path fill="none" stroke="#4D4D4D" stroke-width="0.5" stroke-miterlimit="10" d="M605.1,56.9l-1.4-13.4c-0.1-1.1,0.8-2.1,1.9-2.2
			l13.7-0.6c1.1,0,2,0.7,2.1,1.8l1.2,11.8c0.1,1.1-0.6,2-1.7,2.2l-13.5,2.2C606.3,58.9,605.2,58.1,605.1,56.9z"/>
		<path fill="none" stroke="#4D4D4D" stroke-width="0.5" stroke-miterlimit="10" d="M604.9,55.1l-1-9.8c-0.1-0.8,0.5-1.6,1.4-1.6
			l10-0.5c0.8,0,1.4,0.5,1.5,1.3l0.9,8.7c0.1,0.8-0.5,1.5-1.2,1.6l-9.9,1.6C605.8,56.6,605,56,604.9,55.1z"/>
		<path fill="none" stroke="#4D4D4D" stroke-width="0.5" stroke-miterlimit="10" d="M584.2,65.3l13.4-1c1.1-0.1,2.1,0.8,2.1,2
			L600,80c0,1.1-0.8,1.9-1.9,2l-11.9,0.9c-1.1,0.1-2-0.7-2.1-1.7l-1.8-13.6C582.2,66.4,583.1,65.4,584.2,65.3z"/>
		<path fill="none" stroke="#4D4D4D" stroke-width="0.5" stroke-miterlimit="10" d="M586,65.2l9.8-0.7c0.8-0.1,1.6,0.6,1.6,1.4
			l0.2,10c0,0.8-0.6,1.4-1.4,1.5l-8.7,0.6c-0.8,0.1-1.5-0.5-1.6-1.3l-1.3-9.9C584.6,66,585.2,65.2,586,65.2z"/>
		<path fill="none" stroke="#4D4D4D" stroke-width="0.5" stroke-miterlimit="10" d="M510.4,60.4l2.9-13.1c0.2-1.1,1.4-1.8,2.5-1.5
			l13.2,3.7c1,0.3,1.6,1.3,1.4,2.4l-2.6,11.6c-0.2,1-1.2,1.7-2.3,1.5l-13.5-2.2C510.9,62.6,510.2,61.5,510.4,60.4z"/>
		<path fill="none" stroke="#4D4D4D" stroke-width="0.5" stroke-miterlimit="10" d="M510.8,58.7l2.1-9.6c0.2-0.8,1-1.3,1.8-1.1
			l9.7,2.7c0.7,0.2,1.2,1,1,1.7l-1.9,8.5c-0.2,0.8-0.9,1.3-1.7,1.1l-9.9-1.6C511.2,60.3,510.6,59.5,510.8,58.7z"/>
		<path fill="none" stroke="#4D4D4D" stroke-width="0.5" stroke-miterlimit="10" d="M488.2,35.8l-9.6,9.4c-0.8,0.8-2.1,0.8-2.9-0.1
			l-9.1-10.3c-0.7-0.8-0.7-2,0.1-2.7l8.5-8.4c0.8-0.7,2-0.8,2.7-0.1l10.2,9.2C489,33.6,489.1,35,488.2,35.8z"/>
		<path fill="none" stroke="#4D4D4D" stroke-width="0.5" stroke-miterlimit="10" d="M487,37l-7,6.9c-0.6,0.6-1.6,0.6-2.1-0.1
			l-6.6-7.5c-0.5-0.6-0.5-1.5,0.1-2l6.2-6.1c0.6-0.5,1.4-0.6,2,0l7.4,6.7C487.5,35.5,487.6,36.4,487,37z"/>
		<path fill="none" stroke="#4D4D4D" stroke-width="0.5" stroke-miterlimit="10" d="M487.4,60.3l12.3,5.5c1,0.5,1.5,1.7,1,2.7
			l-6.3,12.2c-0.5,0.9-1.6,1.3-2.6,0.9l-10.9-4.8c-1-0.4-1.4-1.5-1.1-2.5l4.9-12.8C485.1,60.3,486.3,59.8,487.4,60.3z"/>
		<path fill="none" stroke="#4D4D4D" stroke-width="0.5" stroke-miterlimit="10" d="M489,61l9,4c0.8,0.3,1.1,1.3,0.7,2l-4.6,8.9
			c-0.4,0.7-1.2,1-1.9,0.7l-8-3.5c-0.7-0.3-1-1.1-0.8-1.9l3.6-9.4C487.4,61,488.2,60.7,489,61z"/>
		<path fill="#4D4D4D" d="M205.1,77.6H135V60.1h70.1V77.6z M205.6,59.6h-0.5H135h-0.5v0.5v17.5v0.5h0.5h70.1h0.5v-0.5V60.1V59.6z"/>
		<circle fill="none" stroke="#4D4D4D" stroke-width="0.5" stroke-miterlimit="10" cx="145.7" cy="73.1" r="2.3"/>
		<circle fill="none" stroke="#4D4D4D" stroke-width="0.5" stroke-miterlimit="10" cx="145.7" cy="66.1" r="3.2"/>
		<path fill="none" stroke="#4D4D4D" stroke-width="0.5" stroke-miterlimit="10" d="M169.9,74.8h-7.6c-1.1,0-2-0.9-2-2v-8
			c0-1.1,0.9-2,2-2h7.6c1.1,0,2,0.9,2,2v8C171.9,73.9,171,74.8,169.9,74.8z"/>
		<path fill="none" stroke="#4D4D4D" stroke-width="0.5" stroke-miterlimit="10" d="M176.6,74.8h-2.1c-0.7,0-1.3-0.6-1.3-1.3v-9.5
			c0-0.7,0.6-1.3,1.3-1.3h2.1c0.7,0,1.3,0.6,1.3,1.3v9.5C177.9,74.2,177.3,74.8,176.6,74.8z"/>
		<circle fill="none" stroke="#4D4D4D" stroke-width="0.5" stroke-miterlimit="10" cx="170.4" cy="68.8" r="0.7"/>
		<circle fill="none" stroke="#4D4D4D" stroke-width="0.5" stroke-miterlimit="10" cx="174.5" cy="68.8" r="0.6"/>
		
			<line fill="none" stroke="#4D4D4D" stroke-width="0.5" stroke-linecap="round" stroke-miterlimit="10" x1="193.1" y1="69.2" x2="199.3" y2="69.2"/>
		
			<line fill="none" stroke="#4D4D4D" stroke-width="0.5" stroke-linecap="round" stroke-miterlimit="10" x1="195.1" y1="66.1" x2="197.1" y2="72.1"/>
		
			<line fill="none" stroke="#4D4D4D" stroke-width="0.5" stroke-linecap="round" stroke-miterlimit="10" x1="197.1" y1="66.1" x2="195.1" y2="72.1"/>
		
			<line fill="none" stroke="#4D4D4D" stroke-width="0.5" stroke-linecap="round" stroke-miterlimit="10" x1="193.6" y1="67.2" x2="198.9" y2="71.2"/>
		
			<line fill="none" stroke="#4D4D4D" stroke-width="0.5" stroke-linecap="round" stroke-miterlimit="10" x1="193.6" y1="71.2" x2="198.9" y2="67.2"/>
		
			<line fill="none" stroke="#939393" stroke-width="0.5" stroke-linecap="round" stroke-miterlimit="10" stroke-dasharray="2,1" x1="188.1" y1="60.1" x2="188.1" y2="77.6"/>
		<path fill="#4D4D4D" d="M204.7,186.5h-19.9V164h19.9V186.5z M205.2,163.5h-0.5h-19.9h-0.5v0.5v22.5v0.5h0.5h19.9h0.5v-0.5V164
			V163.5z"/>
		<path fill="#4D4D4D" d="M150.8,210.2h-14.2V107.3h14.2V210.2z M151.3,106.8h-0.5h-14.2h-0.5v0.5v102.9v0.5h0.5h14.2h0.5v-0.5
			V107.3V106.8z"/>
		<path fill="#4D4D4D" d="M160.8,151.9c4,0,7.2,3.2,7.2,7.2c0,4-3.2,7.2-7.2,7.2c-4,0-7.2-3.2-7.2-7.2
			C153.7,155.1,156.9,151.9,160.8,151.9 M160.8,151.4c-4.2,0-7.7,3.4-7.7,7.7c0,4.2,3.4,7.7,7.7,7.7c4.2,0,7.7-3.4,7.7-7.7
			C168.5,154.9,165,151.4,160.8,151.4"/>
		<path fill="#4D4D4D" d="M160.8,171.7c4,0,7.2,3.2,7.2,7.2c0,4-3.2,7.2-7.2,7.2c-4,0-7.2-3.2-7.2-7.2
			C153.7,174.9,156.9,171.7,160.8,171.7 M160.8,171.2c-4.2,0-7.7,3.4-7.7,7.7c0,4.2,3.4,7.7,7.7,7.7c4.2,0,7.7-3.4,7.7-7.7
			C168.5,174.6,165,171.2,160.8,171.2"/>
		<path fill="#4D4D4D" d="M160.8,191.4c4,0,7.2,3.2,7.2,7.2c0,4-3.2,7.2-7.2,7.2c-4,0-7.2-3.2-7.2-7.2
			C153.7,194.6,156.9,191.4,160.8,191.4 M160.8,190.9c-4.2,0-7.7,3.4-7.7,7.7c0,4.2,3.4,7.7,7.7,7.7c4.2,0,7.7-3.4,7.7-7.7
			C168.5,194.3,165,190.9,160.8,190.9"/>
		<path fill="#4D4D4D" d="M196.3,145c3.6,0,6.5,2.9,6.5,6.5v7.3c0,1.2-1,2.2-2.2,2.2h-12.1c-1.2,0-2.2-1-2.2-2.2v-7.3
			c0-3.6,2.9-6.5,6.5-6.5H196.3 M196.3,144.5h-3.6c-3.8,0-7,3.1-7,7v7.3c0,1.5,1.2,2.7,2.7,2.7h12.1c1.5,0,2.7-1.2,2.7-2.7v-7.3
			C203.3,147.7,200.2,144.5,196.3,144.5"/>
		<path fill="none" stroke="#4D4D4D" stroke-width="0.5" stroke-linecap="round" stroke-miterlimit="10" d="M187.8,154.8v-3
			c0-2.9,2.4-5.3,5.3-5.3h3c2.9,0,5.3,2.4,5.3,5.3v3"/>
		<path fill="#4D4D4D" d="M200.6,188.8c1.2,0,2.2,1,2.2,2.2v7.3c0,3.6-2.9,6.5-6.5,6.5h-3.6c-3.6,0-6.5-2.9-6.5-6.5V191
			c0-1.2,1-2.2,2.2-2.2H200.6 M200.6,188.3h-12.1c-1.5,0-2.7,1.2-2.7,2.7v7.3c0,3.8,3.1,7,7,7h3.6c3.8,0,7-3.1,7-7V191
			C203.3,189.5,202.1,188.3,200.6,188.3"/>
		<path fill="none" stroke="#4D4D4D" stroke-width="0.5" stroke-linecap="round" stroke-miterlimit="10" d="M201.3,195.1v3
			c0,2.9-2.4,5.3-5.3,5.3h-3c-2.9,0-5.3-2.4-5.3-5.3v-3"/>
		<path fill="#4D4D4D" d="M160.8,132.2c4,0,7.2,3.2,7.2,7.2c0,4-3.2,7.2-7.2,7.2c-4,0-7.2-3.2-7.2-7.2
			C153.7,135.4,156.9,132.2,160.8,132.2 M160.8,131.7c-4.2,0-7.7,3.4-7.7,7.7c0,4.2,3.4,7.7,7.7,7.7c4.2,0,7.7-3.4,7.7-7.7
			C168.5,135.1,165,131.7,160.8,131.7"/>
		<path fill="none" stroke="#4D4D4D" stroke-width="0.5" stroke-linecap="round" stroke-miterlimit="10" d="M160.8,133.9
			c3,0,5.5,2.5,5.5,5.5c0,3-2.5,5.5-5.5,5.5"/>
		<path fill="#4D4D4D" d="M160.8,111.5c4,0,7.2,3.2,7.2,7.2c0,4-3.2,7.2-7.2,7.2c-4,0-7.2-3.2-7.2-7.2
			C153.7,114.7,156.9,111.5,160.8,111.5 M160.8,111c-4.2,0-7.7,3.4-7.7,7.7c0,4.2,3.4,7.7,7.7,7.7c4.2,0,7.7-3.4,7.7-7.7
			C168.5,114.5,165,111,160.8,111"/>
		<path fill="none" stroke="#4D4D4D" stroke-width="0.5" stroke-linecap="round" stroke-miterlimit="10" d="M160.8,113.2
			c3,0,5.5,2.5,5.5,5.5c0,3-2.5,5.5-5.5,5.5"/>
		<path fill="none" stroke="#4D4D4D" stroke-width="0.5" stroke-linecap="round" stroke-miterlimit="10" d="M160.8,153.6
			c3,0,5.5,2.5,5.5,5.5c0,3-2.5,5.5-5.5,5.5"/>
		<path fill="none" stroke="#4D4D4D" stroke-width="0.5" stroke-linecap="round" stroke-miterlimit="10" d="M160.8,173.4
			c3,0,5.5,2.5,5.5,5.5c0,3-2.5,5.5-5.5,5.5"/>
		<path fill="none" stroke="#4D4D4D" stroke-width="0.5" stroke-linecap="round" stroke-miterlimit="10" d="M160.8,193.1
			c3,0,5.5,2.5,5.5,5.5c0,3-2.5,5.5-5.5,5.5"/>
		<path fill="none" stroke="#4D4D4D" stroke-width="0.5" stroke-miterlimit="10" d="M94,123.7v-16.6c-9.5,0-17.1,7.5-17.1,16.6"/>
		<path fill="none" stroke="#4D4D4D" stroke-width="0.5" stroke-miterlimit="10" d="M95.7,206.1H73.5c0-12.6,9.9-22.8,22.2-22.8"/>
		<path fill="none" stroke="#4D4D4D" stroke-width="0.5" stroke-miterlimit="10" d="M132.1,96v-24c-13.7,0-24.7,10.8-24.7,24"/>
		<circle fill="none" stroke="#4D4D4D" stroke-width="0.5" stroke-miterlimit="10" cx="456.7" cy="175" r="1.7"/>
		<circle fill="none" stroke="#4D4D4D" stroke-width="0.5" stroke-miterlimit="10" cx="451.7" cy="175" r="1.7"/>
		<circle fill="none" stroke="#4D4D4D" stroke-width="0.5" stroke-miterlimit="10" cx="446.7" cy="175" r="1.7"/>
		<circle fill="none" stroke="#4D4D4D" stroke-width="0.5" stroke-miterlimit="10" cx="441.7" cy="175" r="1.7"/>
		<circle fill="none" stroke="#4D4D4D" stroke-width="0.5" stroke-miterlimit="10" cx="436.7" cy="175" r="1.7"/>
		<circle fill="none" stroke="#4D4D4D" stroke-width="0.5" stroke-miterlimit="10" cx="431.7" cy="175" r="1.7"/>
		<circle fill="none" stroke="#4D4D4D" stroke-width="0.5" stroke-miterlimit="10" cx="426.7" cy="175" r="1.7"/>
		<circle fill="none" stroke="#4D4D4D" stroke-width="0.5" stroke-miterlimit="10" cx="421.7" cy="175" r="1.7"/>
		<circle fill="none" stroke="#4D4D4D" stroke-width="0.5" stroke-miterlimit="10" cx="416.7" cy="175" r="1.7"/>
		<circle fill="none" stroke="#4D4D4D" stroke-width="0.5" stroke-miterlimit="10" cx="411.7" cy="175" r="1.7"/>
		<circle fill="none" stroke="#4D4D4D" stroke-width="0.5" stroke-miterlimit="10" cx="406.7" cy="175" r="1.7"/>
		<circle fill="none" stroke="#4D4D4D" stroke-width="0.5" stroke-miterlimit="10" cx="401.7" cy="175" r="1.7"/>
		<circle fill="none" stroke="#4D4D4D" stroke-width="0.5" stroke-miterlimit="10" cx="396.7" cy="175" r="1.7"/>
		<circle fill="none" stroke="#4D4D4D" stroke-width="0.5" stroke-miterlimit="10" cx="391.7" cy="175" r="1.7"/>
		<circle fill="none" stroke="#4D4D4D" stroke-width="0.5" stroke-miterlimit="10" cx="386.7" cy="175" r="1.7"/>
		<circle fill="none" stroke="#4D4D4D" stroke-width="0.5" stroke-miterlimit="10" cx="381.7" cy="175" r="1.7"/>
		<circle fill="none" stroke="#4D4D4D" stroke-width="0.5" stroke-miterlimit="10" cx="376.7" cy="175" r="1.7"/>
		<circle fill="none" stroke="#4D4D4D" stroke-width="0.5" stroke-miterlimit="10" cx="371.7" cy="175" r="1.7"/>
		<circle fill="none" stroke="#4D4D4D" stroke-width="0.5" stroke-miterlimit="10" cx="366.7" cy="175" r="1.7"/>
		<circle fill="none" stroke="#4D4D4D" stroke-width="0.5" stroke-miterlimit="10" cx="361.7" cy="175" r="1.7"/>
		<circle fill="none" stroke="#4D4D4D" stroke-width="0.5" stroke-miterlimit="10" cx="356.7" cy="175" r="1.7"/>
		<circle fill="none" stroke="#4D4D4D" stroke-width="0.5" stroke-miterlimit="10" cx="351.7" cy="175" r="1.7"/>
		<circle fill="none" stroke="#4D4D4D" stroke-width="0.5" stroke-miterlimit="10" cx="346.7" cy="175" r="1.7"/>
		<circle fill="none" stroke="#4D4D4D" stroke-width="0.5" stroke-miterlimit="10" cx="341.7" cy="175" r="1.7"/>
		<circle fill="none" stroke="#4D4D4D" stroke-width="0.5" stroke-miterlimit="10" cx="336.7" cy="175" r="1.7"/>
		<circle fill="none" stroke="#4D4D4D" stroke-width="0.5" stroke-miterlimit="10" cx="331.7" cy="175" r="1.7"/>
		<circle fill="none" stroke="#4D4D4D" stroke-width="0.5" stroke-miterlimit="10" cx="326.7" cy="175" r="1.7"/>
		<circle fill="none" stroke="#4D4D4D" stroke-width="0.5" stroke-miterlimit="10" cx="321.7" cy="175" r="1.7"/>
		<circle fill="none" stroke="#4D4D4D" stroke-width="0.5" stroke-miterlimit="10" cx="316.7" cy="175" r="1.7"/>
		<circle fill="none" stroke="#4D4D4D" stroke-width="0.5" stroke-miterlimit="10" cx="311.7" cy="175" r="1.7"/>
		<circle fill="none" stroke="#4D4D4D" stroke-width="0.5" stroke-miterlimit="10" cx="306.7" cy="175" r="1.7"/>
		<circle fill="none" stroke="#4D4D4D" stroke-width="0.5" stroke-miterlimit="10" cx="301.7" cy="175" r="1.7"/>
		<circle fill="none" stroke="#4D4D4D" stroke-width="0.5" stroke-miterlimit="10" cx="296.7" cy="175" r="1.7"/>
		<circle fill="none" stroke="#4D4D4D" stroke-width="0.5" stroke-miterlimit="10" cx="291.7" cy="175" r="1.7"/>
		<circle fill="none" stroke="#4D4D4D" stroke-width="0.5" stroke-miterlimit="10" cx="286.7" cy="175" r="1.7"/>
		<circle fill="none" stroke="#4D4D4D" stroke-width="0.5" stroke-miterlimit="10" cx="281.7" cy="175" r="1.7"/>
		<circle fill="none" stroke="#4D4D4D" stroke-width="0.5" stroke-miterlimit="10" cx="276.7" cy="175" r="1.7"/>
		<circle fill="none" stroke="#4D4D4D" stroke-width="0.5" stroke-miterlimit="10" cx="271.7" cy="175" r="1.7"/>
		<circle fill="none" stroke="#4D4D4D" stroke-width="0.5" stroke-miterlimit="10" cx="266.7" cy="175" r="1.7"/>
		<circle fill="none" stroke="#4D4D4D" stroke-width="0.5" stroke-miterlimit="10" cx="261.7" cy="175" r="1.7"/>
		<circle fill="none" stroke="#4D4D4D" stroke-width="0.5" stroke-miterlimit="10" cx="256.7" cy="175" r="1.7"/>
		<circle fill="none" stroke="#4D4D4D" stroke-width="0.5" stroke-miterlimit="10" cx="251.7" cy="175" r="1.7"/>
		<circle fill="none" stroke="#4D4D4D" stroke-width="0.5" stroke-miterlimit="10" cx="246.7" cy="175" r="1.7"/>
		<circle fill="none" stroke="#4D4D4D" stroke-width="0.5" stroke-miterlimit="10" cx="241.7" cy="175" r="1.7"/>
		<rect x="490.1" y="256.8" fill="none" stroke="#4D4D4D" stroke-width="0.5" stroke-miterlimit="10" width="37.3" height="3.5"/>
		<rect x="440.1" y="275.4" fill="none" stroke="#4D4D4D" stroke-width="0.5" stroke-miterlimit="10" width="20.8" height="39.7"/>
		<rect x="441.6" y="278.3" fill="none" stroke="#4D4D4D" stroke-width="0.5" stroke-miterlimit="10" width="17.7" height="33.9"/>
		
			<line fill="none" stroke="#4D4D4D" stroke-width="0.5" stroke-linecap="round" stroke-miterlimit="10" x1="429.5" y1="280.1" x2="466.4" y2="280.1"/>
		
			<line fill="none" stroke="#4D4D4D" stroke-width="0.5" stroke-linecap="round" stroke-miterlimit="10" x1="428.7" y1="285.1" x2="465.6" y2="285.1"/>
		
			<line fill="none" stroke="#4D4D4D" stroke-width="0.5" stroke-linecap="round" stroke-miterlimit="10" x1="433.9" y1="289.1" x2="470.8" y2="289.1"/>
		
			<line fill="none" stroke="#4D4D4D" stroke-width="0.5" stroke-linecap="round" stroke-miterlimit="10" x1="428.7" y1="293.1" x2="465.6" y2="293.1"/>
		
			<line fill="none" stroke="#4D4D4D" stroke-width="0.5" stroke-linecap="round" stroke-miterlimit="10" x1="433.9" y1="297.1" x2="470.8" y2="297.1"/>
		
			<line fill="none" stroke="#4D4D4D" stroke-width="0.5" stroke-linecap="round" stroke-miterlimit="10" x1="432.9" y1="302.1" x2="469.8" y2="302.1"/>
		
			<line fill="none" stroke="#4D4D4D" stroke-width="0.5" stroke-linecap="round" stroke-miterlimit="10" x1="434.8" y1="306.1" x2="471.6" y2="306.1"/>
		
			<line fill="none" stroke="#4D4D4D" stroke-width="0.5" stroke-linecap="round" stroke-miterlimit="10" x1="428.3" y1="310.1" x2="465.2" y2="310.1"/>
		
			<rect x="405.9" y="251.9" fill="none" stroke="#4D4D4D" stroke-width="0.25" stroke-linecap="round" stroke-miterlimit="10" width="142.3" height="86.4"/>
	</g>
</g>
</svg>
