<?xml version="1.0" encoding="UTF-8"?>
<svg width="80px" height="40px" viewBox="0 0 80 40" version="1.1" xmlns="http://www.w3.org/2000/svg" xmlns:xlink="http://www.w3.org/1999/xlink">
    <!-- Generator: Sketch 50.2 (55047) - http://www.bohemiancoding.com/sketch -->
    <title>m_3</title>
    <desc>Created with Sketch.</desc>
    <defs></defs>
    <g id="Homepage" stroke="none" stroke-width="1" fill="none" fill-rule="evenodd">
        <g id="F_1600" transform="translate(-320.000000, -3970.000000)">
            <g id="Group-33" transform="translate(260.000000, 3910.000000)">
                <g id="m_3" transform="translate(60.000000, 60.000000)">
                    <g id="Group">
                        <polygon id="Fill-1" fill="#FCC30B" points="16.0601924 30.5605918 32.1201418 39.9038571 48.0759899 30.5603878 32.015838 21.2171224"></polygon>
                        <polygon id="Fill-2" fill="#FFD527" points="0 21.2173061 16.0601519 30.5605714 32.016 21.217102 15.9558481 11.8738367"></polygon>
                        <polygon id="Fill-3" fill="#FCC30B" points="64.0318177 21.2169592 47.9716658 11.8736939 32.0158177 21.2171633 48.0759696 30.5604286"></polygon>
                        <polygon id="Fill-4" fill="#FCC30B" points="47.9716861 11.8736531 64.031838 21.2169184 79.9905215 11.8718163 63.9303696 2.52855102"></polygon>
                        <polygon id="Fill-1" fill="#FCC30B" points="16.0601924 30.5605918 32.1201418 39.9038571 48.0759899 30.5603878 32.015838 21.2171224"></polygon>
                        <polygon id="Fill-2" fill="#FCC30B" points="0 21.2173061 16.0601519 30.5605714 32.016 21.217102 15.9558481 11.8738367"></polygon>
                        <polygon id="Fill-3" fill="#FFD527" points="64.0318177 21.2169592 47.9716658 11.8736939 32.0158177 21.2171633 48.0759696 30.5604286"></polygon>
                        <polygon id="Fill-4" fill="#FFD527" points="47.9716861 11.8736531 64.031838 21.2169184 79.9905215 11.8718163 63.9303696 2.52855102"></polygon>
                        <polygon id="Fill-5" fill="#F1B20F" points="75.9987848 9.5472449 75.9923038 11.8719388 63.9463291 4.86397959 63.9528101 2.53928571"></polygon>
                        <polygon id="Fill-6" fill="#F1B20F" points="15.9753519 11.8830204 15.9686684 14.2077143 4.00127595 21.2154694 4.00775696 18.8909796"></polygon>
                        <polygon id="Fill-7" fill="#F1B20F" points="30.0298329 20.059449 30.0233519 22.3841429 15.9686684 14.2076122 15.9753519 11.8831224"></polygon>
                        <polygon id="Fill-8" fill="#F1B20F" points="34.0339848 20.059449 34.0275038 22.3841429 32.0319595 23.5525102 32.0384405 21.2280204"></polygon>
                        <polygon id="Fill-9" fill="#F1B20F" points="32.0384405 21.2279388 32.0319595 23.5526327 30.0232506 22.3840612 30.0299342 20.0593673"></polygon>
                        <path d="M63.9369114,0.203959184 L32.0254177,18.8906939 L15.9652658,9.54763265 L0.00658227848,18.8927347 L32.1266835,37.5792653 L79.9968608,9.54722449 L63.9369114,0.203959184 Z M34.0339241,20.0594694 L63.9529114,2.53946939 L75.9988861,9.54722449 L32.1167595,35.2441633 L4.00779747,18.890898 L15.9753924,11.8829388 L30.0298734,20.0594694 L32.0383797,21.2280408 L34.0339241,20.0594694 Z" id="Fill-10" fill="#FFD527"></path>
                        <polygon id="Fill-11" fill="#F1B20F" points="63.9529114 2.53930612 63.9464304 4.864 34.027443 22.384 34.0339241 20.0595102"></polygon>
                        <polygon id="Fill-12" fill="#F1B20F" points="0 21.2173061 32.1201013 39.9038367 32.1267848 37.5793469 0.00648101266 18.8928163"></polygon>
                        <polygon id="Fill-13" fill="#F1B20F" points="32.1267646 37.5793061 32.1202835 39.9037959 79.9904608 11.8717551 79.9969418 9.54726531"></polygon>
                    </g>
                </g>
            </g>
        </g>
    </g>
</svg>