<?xml version="1.0" encoding="UTF-8"?>
<svg width="18px" height="18px" viewBox="0 0 18 18" version="1.1" xmlns="http://www.w3.org/2000/svg" xmlns:xlink="http://www.w3.org/1999/xlink">
    <!-- Generator: Sketch 50.2 (55047) - http://www.bohemiancoding.com/sketch -->
    <title>google logo</title>
    <desc>Created with Sketch.</desc>
    <defs></defs>
    <g id="Homepage" stroke="none" stroke-width="1" fill="none" fill-rule="evenodd">
        <g id="F_1600" transform="translate(-260.000000, -4730.000000)">
            <g id="google-logo" transform="translate(260.000000, 4730.000000)">
                <g id="Group-28">
                    <path d="M17.9914289,9.16840305 C17.9914289,8.43095267 17.9301867,7.89280763 17.7976477,7.33473893 L9.17930391,7.33473893 L9.17930391,10.6632275 L14.2380773,10.6632275 C14.1361242,11.4904031 13.5853664,12.736113 12.3614367,13.5731817 L12.3443508,13.6845481 L15.0692414,15.7472656 L15.2580305,15.7656092 C16.9918664,14.2010519 17.9914289,11.8989756 17.9914289,9.16840305" id="Fill-1" fill="#4285F4"></path>
                    <path d="M9.17929687,17.9381405 C11.6576719,17.9381405 13.7382891,17.1409191 15.2580234,15.7656366 L12.3614297,13.5732092 C11.5863047,14.1013237 10.5459609,14.4701176 9.17929687,14.4701176 C6.75189844,14.4701176 4.69167187,12.9054916 3.95725781,10.7430183 L3.84960937,10.7518809 L1.01615625,12.8944992 L0.979101562,12.9952168 C2.48857031,15.925026 5.58914062,17.9381405 9.17929687,17.9381405" id="Fill-3" fill="#34A853"></path>
                    <path d="M3.95725781,10.742984 C3.76347656,10.1849153 3.65132813,9.58693053 3.65132813,8.96909084 C3.65132813,8.35118244 3.76347656,7.75326641 3.9470625,7.19519771 L3.94192969,7.07634275 L1.07296875,4.89930458 L0.979101562,4.94293053 C0.356976562,6.15875496 0,7.52407557 0,8.96909084 C0,10.4141061 0.356976562,11.779358 0.979101562,12.9951824 L3.95725781,10.742984" id="Fill-5" fill="#FBBC05"></path>
                    <path d="M9.17929687,3.4680229 C10.9030078,3.4680229 12.065625,4.19551145 12.7286016,4.80345802 L15.3191953,2.33196183 C13.7281641,0.886946565 11.6576719,0 9.17929687,0 C5.58914062,0 2.48857031,2.0130458 0.979101562,4.94292366 L3.9470625,7.19519084 C4.69167187,5.03264885 6.75189844,3.4680229 9.17929687,3.4680229" id="Fill-8" fill="#EB4335"></path>
                </g>
            </g>
        </g>
    </g>
</svg>