<?xml version="1.0" encoding="UTF-8"?>
<svg width="130px" height="32px" viewBox="0 0 130 32" version="1.1" xmlns="http://www.w3.org/2000/svg" xmlns:xlink="http://www.w3.org/1999/xlink">
    <!-- Generator: Sketch 50.2 (55047) - http://www.bohemiancoding.com/sketch -->
    <title>platform</title>
    <desc>Created with Sketch.</desc>
    <defs>
        <polygon id="path-1" points="0.115745455 0.00381818182 10.9690909 0.00381818182 10.9690909 11.8445455 0.115745455 11.8445455"></polygon>
    </defs>
    <g id="Homepage" stroke="none" stroke-width="1" fill="none" fill-rule="evenodd">
        <g id="F_1600" transform="translate(-741.000000, -5967.000000)">
            <g id="Group-10" transform="translate(741.000000, 5954.000000)">
                <g id="platform" transform="translate(0.000000, 13.000000)">
                    <g id="Page-1">
                        <path d="M15.5,0 C6.94082779,0 0,7.16317065 0,16 C0,24.8346141 6.94082779,32 15.5,32 C24.0591722,32 31,24.8346141 31,16 C31,7.16317065 24.0591722,0 15.5,0 M15.5,29.9995846 C8.00897809,29.9995846 1.9375,23.7302873 1.9375,16 C1.9375,8.2674974 8.00897809,2.00041537 15.5,2.00041537 C22.9888727,2.00041537 29.0625,8.2674974 29.0625,16 C29.0625,23.7302873 22.9888727,29.9995846 15.5,29.9995846 M15.5,3.99972309 C9.08035219,3.99972309 3.875,9.37182416 3.875,16 C3.875,22.6259605 9.08035219,27.9991693 15.5,27.9991693 C21.9196478,27.9991693 27.125,22.6259605 27.125,16 C27.125,9.37182416 21.9196478,3.99972309 15.5,3.99972309" id="Fill-1" fill="#1A1A1A"></path>
                        <polygon id="Fill-3" fill="#1A1A1A" points="57.4408602 19.74924 57.4408602 10 55.0096774 10 55.0096774 19.74924 55 22 62 22 62 19.74924"></polygon>
                        <path d="M72.4994012,22 L75,22 L69.9556886,10 L69.9545831,10 L67.9569784,10 L67.9558729,10 L63,22 L65.4994933,22 L66.2423768,20.0011056 L71.7399355,20.0011056 L72.4994012,22 Z M67.0759097,17.7512438 L68.9662828,12.6644555 L70.8909258,17.7512438 L67.0759097,17.7512438 Z" id="Fill-5" fill="#1A1A1A"></path>
                        <polygon id="Fill-7" fill="#1A1A1A" points="83 10 74 10 74 12.2509674 77.2631835 12.2509674 77.2631835 22 79.7368165 22 79.7368165 12.2509674 83 12.2509674"></polygon>
                        <g id="Group-11" transform="translate(119.000000, 10.000000)">
                            <mask id="mask-2" fill="white">
                                <use xlink:href="#path-1"></use>
                            </mask>
                            <g id="Clip-10"></g>
                            <polygon id="Fill-9" fill="#1A1A1A" mask="url(#mask-2)" points="8.50156364 0.00381818182 5.54192727 3.95181818 2.58229091 0.00381818182 0.115745455 0.00381818182 0.115745455 11.8445455 2.58229091 11.8445455 2.58229091 3.95181818 5.54192727 7.89763636 8.50156364 3.95181818 8.50156364 11.8445455 10.9692 11.8445455 10.9692 0.00381818182"></polygon>
                        </g>
                        <polygon id="Fill-12" fill="#1A1A1A" points="93 12.2498618 93 10 87.6220541 10 85 10 85 12.2498618 85 15.6583748 85 17.907131 85 22 87.6220541 22 87.6220541 17.708126 92.472796 17.708126 92.472796 15.4593698 87.6220541 15.4593698 87.6220541 12.2498618"></polygon>
                        <path d="M106,16 C106,19.3134328 103.314538,22 99.9988944,22 C96.6865672,22 94,19.3134328 94,16 C94,12.6865672 96.6865672,10 99.9988944,10 C103.314538,10 106,12.6865672 106,16 M100.025428,12.3029298 C97.9546711,12.3029298 96.2741846,13.9823107 96.2741846,16.0541736 C96.2741846,18.1249309 97.9546711,19.8032062 100.025428,19.8032062 C102.097291,19.8032062 103.773355,18.1249309 103.773355,16.0541736 C103.773355,13.9823107 102.097291,12.3029298 100.025428,12.3029298" id="Fill-14" fill="#1A1A1A"></path>
                        <path d="M52,14.2653509 C52,11.8070175 50.0984142,10.0109649 47.745569,10.0010965 L47.745569,10 L45.373834,10 L43,10 L43,12.2313596 L43,16.2993421 L43,18.5317982 L43,22 L45.373834,22 L45.373834,18.5317982 L47.745569,18.5317982 L47.745569,18.5296053 C50.0984142,18.5186404 52,16.7236842 52,14.2653509 M47.745569,16.2938596 L47.745569,16.2993421 L45.373834,16.2993421 L45.373834,12.2313596 L47.745569,12.2313596 L47.745569,12.2357456 C48.923041,12.2357456 49.8759328,13.0350877 49.8759328,14.2653509 C49.8759328,15.495614 48.923041,16.2938596 47.745569,16.2938596" id="Fill-16" fill="#1A1A1A"></path>
                        <path d="M114.778076,17.8410157 C116.102624,17.0781121 117,15.8956666 117,14.1954182 C117,11.7212255 115.098192,10.0121446 112.746122,10.0011041 L112.746122,10 L110.373061,10 L108,10 L108,12.2467568 L108,16.1451835 L108,18.3919404 L108,21.9834391 L110.373061,21.9834391 L110.373061,18.3919404 L112.32105,18.3919404 L114.199767,22 L117,22 L115.093994,18.3488821 L114.778076,17.8410157 Z M112.746122,12.2467568 L112.746122,12.2522771 C113.925831,12.2522771 114.879883,12.9566657 114.879883,14.1954182 C114.879883,15.4341706 113.925831,16.1385592 112.746122,16.1385592 L112.746122,16.1451835 L110.373061,16.1451835 L110.373061,12.2467568 L112.746122,12.2467568 Z" id="Fill-18" fill="#1A1A1A"></path>
                    </g>
                </g>
            </g>
        </g>
    </g>
</svg>