<?xml version="1.0" encoding="UTF-8"?>
<svg width="80px" height="39px" viewBox="0 0 80 39" version="1.1" xmlns="http://www.w3.org/2000/svg" xmlns:xlink="http://www.w3.org/1999/xlink">
    <!-- Generator: Sketch 50.2 (55047) - http://www.bohemiancoding.com/sketch -->
    <title>m_1</title>
    <desc>Created with Sketch.</desc>
    <defs></defs>
    <g id="Homepage" stroke="none" stroke-width="1" fill="none" fill-rule="evenodd">
        <g id="F_1600" transform="translate(-1050.000000, -3960.000000)">
            <g id="Group-13" transform="translate(990.000000, 3910.000000)">
                <g id="m_1" transform="translate(60.000000, 50.000000)">
                    <g id="Group">
                        <polygon id="Fill-1" fill="#45C7F4" points="47.9746025 20.5944 64.0347544 29.7508 79.993438 20.5926 63.9332861 11.4362"></polygon>
                        <polygon id="Fill-2" fill="#F43959" points="79.9934582 20.59258 63.9333063 11.43618 47.9746228 20.59438 64.0347747 29.75098"></polygon>
                        <polygon id="Fill-4" fill="#45C7F4" points="47.9746633 20.59444 31.9114734 11.43624 15.9558278 20.59284 32.0188152 29.75104"></polygon>
                        <polygon id="Fill-5" fill="#F43959" points="47.9746633 20.59444 31.9114734 11.43624 15.9558278 20.59284 32.0188152 29.75104"></polygon>
                        <polygon id="Fill-7" fill="#FF4867" points="63.9333266 11.43624 47.8701367 2.27804 31.9114532 11.43624 47.974643 20.59444"></polygon>
                        <polygon id="Fill-8" fill="#FF4867" points="0 29.74956 16.0631899 38.90756 32.0188354 29.75096 15.9558481 20.59296"></polygon>
                        <polygon id="Fill-2" fill="#F43959" points="79.9934582 20.59258 63.9333063 11.43618 47.9746228 20.59438 64.0347747 29.75098"></polygon>
                        <polygon id="Fill-5" fill="#FF4867" points="47.9746633 20.59444 31.9114734 11.43624 15.9558278 20.59284 32.0188152 29.75104"></polygon>
                        <polygon id="Fill-7" fill="#FF4867" points="63.9333266 11.43624 47.8701367 2.27804 31.9114532 11.43624 47.974643 20.59444"></polygon>
                        <polygon id="Fill-8" fill="#FF4867" points="0 29.74956 16.0631899 38.90756 32.0188354 29.75096 15.9558481 20.59296"></polygon>
                        <polygon id="Fill-9" fill="#E33552" points="75.9958278 18.31456 75.9893468 20.59276 47.8832203 4.56856 47.8899038 2.29036"></polygon>
                        <polygon id="Fill-10" fill="#E33552" points="64.0442734 27.47112 64.0377924 29.74912 79.993438 20.59252 79.999919 18.31452"></polygon>
                        <polygon id="Fill-11" fill="#E33552" points="64.0442937 27.4711 64.0378127 29.7493 47.9746228 20.5911 47.9811038 18.3129"></polygon>
                        <polygon id="Fill-12" fill="#E33552" points="47.8898228 2.29034 47.8833418 4.56854 4.00425316 29.74934 4.01073418 27.47134"></polygon>
                        <path d="M47.876719,6e-05 L0.00654177215,27.47146 L16.0664911,36.62766 L47.9812253,18.31306 L64.0442127,27.47106 L80.0000608,18.31446 L47.876719,6e-05 Z M4.01079494,27.47146 L47.8898835,2.29046 L75.9960101,18.31446 L64.0282127,25.18246 L49.9737316,17.16926 L47.9682633,16.02606 L45.9753519,17.16926 L16.0565671,34.33906 L4.01079494,27.47146 Z" id="Fill-13" fill="#FF4867"></path>
                        <polygon id="Fill-14" fill="#E33552" points="16.0665722 36.62772 16.0600911 38.90592 47.9746228 20.59092 47.9811038 18.31312"></polygon>
                        <polygon id="Fill-15" fill="#E33552" points="0 29.74956 16.0601519 38.90596 16.0666329 36.62776 0.00648101266 27.47156"></polygon>
                    </g>
                </g>
            </g>
        </g>
    </g>
</svg>