<?xml version="1.0" encoding="UTF-8"?>
<svg width="80px" height="30px" viewBox="0 0 80 30" version="1.1" xmlns="http://www.w3.org/2000/svg" xmlns:xlink="http://www.w3.org/1999/xlink">
    <!-- Generator: Sketch 50.2 (55047) - http://www.bohemiancoding.com/sketch -->
    <title>m_2</title>
    <desc>Created with Sketch.</desc>
    <defs></defs>
    <g id="Homepage" stroke="none" stroke-width="1" fill="none" fill-rule="evenodd">
        <g id="F_1600" transform="translate(-685.000000, -3975.000000)">
            <g id="Group-32" transform="translate(625.000000, 3910.000000)">
                <g id="m_2" transform="translate(60.000000, 65.000000)">
                    <g id="Group">
                        <polygon id="Fill-1" fill="#49A3EF" points="47.8535152 11.5113624 31.8339192 2.29351007 15.9183636 11.5113624 31.9379596 20.7292148"></polygon>
                        <polygon id="Fill-2" fill="#49A3EF" points="0.00290909091 20.7293758 16.0225051 29.9474295 31.9380606 20.7291745 15.9182626 11.5115235"></polygon>
                        <polygon id="Fill-3" fill="#49A3EF" points="31.938 20.7291946 47.9604242 29.9488591 63.8759798 20.7308054 47.8535556 11.5113423"></polygon>
                        <polygon id="Fill-4" fill="#54B6ED" points="47.8534545 11.5113221 63.8760808 20.7307852 79.7942626 11.5111208 63.7718384 2.29165772"></polygon>
                        <polygon id="Fill-1" fill="#49A3EF" points="47.8535152 11.5113624 31.8339192 2.29351007 15.9183636 11.5113624 31.9379596 20.7292148"></polygon>
                        <polygon id="Fill-2" fill="#54B6ED" points="0.00290909091 20.7293758 16.0225051 29.9474295 31.9380606 20.7291745 15.9182626 11.5115235"></polygon>
                        <polygon id="Fill-3" fill="#49A3EF" points="31.938 20.7291946 47.9604242 29.9488591 63.8759798 20.7308054 47.8535556 11.5113423"></polygon>
                        <polygon id="Fill-4" fill="#54B6ED" points="47.8534545 11.5113221 63.8760808 20.7307852 79.7942626 11.5111208 63.7718384 2.29165772"></polygon>
                        <polygon id="Fill-5" fill="#4495DD" points="75.8068889 9.21783221 75.8004242 11.5111208 63.7848687 4.59742953 63.7913333 2.3039396"></polygon>
                        <polygon id="Fill-6" fill="#4495DD" points="63.7914141 2.30397987 63.7849495 4.5974698 49.8568687 12.6642483 49.8635354 10.3707584"></polygon>
                        <polygon id="Fill-7" fill="#4495DD" points="45.8694141 10.3708389 45.8629495 12.6643289 31.8467879 4.59916107 31.8534545 2.30587248"></polygon>
                        <polygon id="Fill-8" fill="#4495DD" points="47.8730505 11.523745 47.8665859 13.8170336 45.8629495 12.664349 45.8694141 10.3708591"></polygon>
                        <polygon id="Fill-9" fill="#4495DD" points="49.8634747 10.3708389 49.8570101 12.6641275 47.8665051 13.8170134 47.8729697 11.5237248"></polygon>
                        <polygon id="Fill-10" fill="#4495DD" points="31.8533939 2.30585235 31.8469293 4.59934228 3.99420202 20.7312886 4.00066667 18.4377987"></polygon>
                        <polygon id="Fill-11" fill="#4495DD" points="31.938 20.7291946 47.9604242 29.9488591 47.9670909 27.6555705 31.9444646 18.4361074"></polygon>
                        <polygon id="Fill-12" fill="#4495DD" points="47.9670909 27.6555101 47.9604242 29.9487987 79.7915354 11.5128926 79.798 9.21960403"></polygon>
                        <polygon id="Fill-13" fill="#4495DD" points="0 20.7311879 16.019596 29.9490403 16.0260606 27.6557517 0.00646464646 18.4378993"></polygon>
                        <polygon id="Fill-14" fill="#4495DD" points="16.026 27.6556913 16.0195354 29.9489799 31.9379192 20.7291141 31.9445859 18.4360268"></polygon>
                        <path d="M63.7754545,-0.000100671141 L47.859899,9.21795302 L31.840303,0.000100671141 L0.00656565657,18.4378188 L16.0259596,27.6556711 L31.9445455,18.4360067 L47.9671717,27.6554698 L79.7980808,9.21956376 L63.7754545,-0.000100671141 Z M49.8635354,10.3708389 L63.7914141,2.30385906 L75.8069697,9.21775168 L47.9510101,25.3515101 L33.9320202,17.2847315 L31.9314141,16.1336577 L29.9439394,17.2847315 L16.0160606,25.3517114 L4.00070707,18.4378188 L31.8534343,2.30567114 L45.8693939,10.3708389 L47.8730303,11.5237248 L49.8635354,10.3708389 Z" id="Fill-15" fill="#54B6ED"></path>
                    </g>
                </g>
            </g>
        </g>
    </g>
</svg>