<svg xmlns="http://www.w3.org/2000/svg" xmlns:xlink="http://www.w3.org/1999/xlink" width="728.7" height="523.1" viewBox="0 0 728.7 523.1">
    <g opacity=".7">
        <defs>
            <path id="a" d="M369.9 9.6h343.5v488.5H369.9z"/>
        </defs>
        <clipPath id="b">
            <use xlink:href="#a" overflow="visible"/>
        </clipPath>
        <path clip-path="url(#b)" fill="#54B6ED" d="M713.4 9.6h-82v126h-88v116h46v121.5H369.9v125h342.5V378.6h1z"/>
    </g>
    <g opacity=".3">
        <defs>
            <path id="c" d="M207.4 9.6h423v127h-423z"/>
        </defs>
        <clipPath id="d">
            <use xlink:href="#c" overflow="visible"/>
        </clipPath>
        <path clip-path="url(#d)" fill="#54B6ED" d="M630.4 9.6h-423v127h254v-44h169z"/>
    </g>
    <path fill="#4D4D4D" d="M229.9 38.9c1.2 0 2.2 1 2.2 2.2v12.1c0 1.2-1 2.2-2.2 2.2h-7.3c-3.6 0-6.5-2.9-6.5-6.5v-3.6c0-3.6 2.9-6.5 6.5-6.5h7.3m0-.4h-7.3c-3.8 0-7 3.1-7 7V49c0 3.8 3.1 7 7 7h7.3c1.5 0 2.7-1.2 2.7-2.7V41.2c0-1.5-1.2-2.8-2.7-2.8"/>
    <path fill="none" stroke="#4D4D4D" stroke-width=".5" stroke-linecap="round" stroke-miterlimit="10" d="M225.8 54h-3c-2.9 0-5.3-2.4-5.3-5.3v-3c0-2.9 2.4-5.3 5.3-5.3h3"/>
    <path fill="#4D4D4D" d="M229.9 59c1.2 0 2.2 1 2.2 2.2v12.1c0 1.2-1 2.2-2.2 2.2h-7.3c-3.6 0-6.5-2.9-6.5-6.5v-3.6c0-3.6 2.9-6.5 6.5-6.5h7.3m0-.4h-7.3c-3.8 0-7 3.1-7 7v3.6c0 3.8 3.1 7 7 7h7.3c1.5 0 2.7-1.2 2.7-2.7V61.2c0-1.5-1.2-2.7-2.7-2.7"/>
    <path fill="none" stroke="#4D4D4D" stroke-width=".5" stroke-linecap="round" stroke-miterlimit="10" d="M225.8 74h-3c-2.9 0-5.3-2.4-5.3-5.3v-3c0-2.9 2.4-5.3 5.3-5.3h3"/>
    <path fill="#4D4D4D" d="M229.9 79.1c1.2 0 2.2 1 2.2 2.2v12.1c0 1.2-1 2.2-2.2 2.2h-7.3c-3.6 0-6.5-2.9-6.5-6.5v-3.6c0-3.6 2.9-6.5 6.5-6.5h7.3m0-.4h-7.3c-3.8 0-7 3.1-7 7v3.6c0 3.8 3.1 7 7 7h7.3c1.5 0 2.7-1.2 2.7-2.7V81.3c0-1.5-1.2-2.7-2.7-2.7"/>
    <path fill="none" stroke="#4D4D4D" stroke-width=".5" stroke-linecap="round" stroke-miterlimit="10" d="M225.8 94.1h-3c-2.9 0-5.3-2.4-5.3-5.3v-3c0-2.9 2.4-5.3 5.3-5.3h3"/>
    <path fill="#4D4D4D" d="M274.3 79.1c3.6 0 6.5 2.9 6.5 6.5v3.6c0 3.6-2.9 6.5-6.5 6.5H267c-1.2 0-2.2-1-2.2-2.2V81.3c0-1.2 1-2.2 2.2-2.2h7.3m0-.5H267c-1.5 0-2.7 1.2-2.7 2.7v12.1c0 1.5 1.2 2.7 2.7 2.7h7.3c3.8 0 7-3.1 7-7v-3.6c0-3.8-3.1-6.9-7-6.9"/>
    <path fill="none" stroke="#4D4D4D" stroke-width=".5" stroke-linecap="round" stroke-miterlimit="10" d="M271.1 80.6h3c2.9 0 5.3 2.4 5.3 5.3v3c0 2.9-2.4 5.3-5.3 5.3h-3"/>
    <path fill="#4D4D4D" d="M274.3 59c3.6 0 6.5 2.9 6.5 6.5v3.6c0 3.6-2.9 6.5-6.5 6.5H267c-1.2 0-2.2-1-2.2-2.2V61.2c0-1.2 1-2.2 2.2-2.2h7.3m0-.5H267c-1.5 0-2.7 1.2-2.7 2.7v12.1c0 1.5 1.2 2.7 2.7 2.7h7.3c3.8 0 7-3.1 7-7v-3.6c0-3.8-3.1-6.9-7-6.9"/>
    <path fill="none" stroke="#4D4D4D" stroke-width=".5" stroke-linecap="round" stroke-miterlimit="10" d="M271.1 60.5h3c2.9 0 5.3 2.4 5.3 5.3v3c0 2.9-2.4 5.3-5.3 5.3h-3"/>
    <path fill="#4D4D4D" d="M274.3 38.9c3.6 0 6.5 2.9 6.5 6.5V49c0 3.6-2.9 6.5-6.5 6.5H267c-1.2 0-2.2-1-2.2-2.2V41.2c0-1.2 1-2.2 2.2-2.2h7.3m0-.6H267c-1.5 0-2.7 1.2-2.7 2.7v12.1c0 1.5 1.2 2.7 2.7 2.7h7.3c3.8 0 7-3.1 7-7v-3.6c0-3.7-3.1-6.9-7-6.9"/>
    <path fill="none" stroke="#4D4D4D" stroke-width=".5" stroke-linecap="round" stroke-miterlimit="10" d="M271.1 40.5h3c2.9 0 5.3 2.4 5.3 5.3v3c0 2.9-2.4 5.3-5.3 5.3h-3"/>
    <path fill="#4D4D4D" d="M262.5 99.4h-28.3V35.2h28.3v64.2zm.4-64.6H233.8V99.8H262.9V34.8z"/>
    <path fill="#4D4D4D" d="M313.1 38.9c1.2 0 2.2 1 2.2 2.2v12.1c0 1.2-1 2.2-2.2 2.2h-7.3c-3.6 0-6.5-2.9-6.5-6.5v-3.6c0-3.6 2.9-6.5 6.5-6.5h7.3m0-.4h-7.3c-3.8 0-7 3.1-7 7V49c0 3.8 3.1 7 7 7h7.3c1.5 0 2.7-1.2 2.7-2.7V41.2c0-1.5-1.2-2.8-2.7-2.8"/>
    <path fill="none" stroke="#4D4D4D" stroke-width=".5" stroke-linecap="round" stroke-miterlimit="10" d="M309 54h-3c-2.9 0-5.3-2.4-5.3-5.3v-3c0-2.9 2.4-5.3 5.3-5.3h3"/>
    <path fill="#4D4D4D" d="M313.1 59c1.2 0 2.2 1 2.2 2.2v12.1c0 1.2-1 2.2-2.2 2.2h-7.3c-3.6 0-6.5-2.9-6.5-6.5v-3.6c0-3.6 2.9-6.5 6.5-6.5h7.3m0-.4h-7.3c-3.8 0-7 3.1-7 7v3.6c0 3.8 3.1 7 7 7h7.3c1.5 0 2.7-1.2 2.7-2.7V61.2c0-1.5-1.2-2.7-2.7-2.7"/>
    <path fill="none" stroke="#4D4D4D" stroke-width=".5" stroke-linecap="round" stroke-miterlimit="10" d="M309 74h-3c-2.9 0-5.3-2.4-5.3-5.3v-3c0-2.9 2.4-5.3 5.3-5.3h3"/>
    <path fill="#4D4D4D" d="M313.1 79.1c1.2 0 2.2 1 2.2 2.2v12.1c0 1.2-1 2.2-2.2 2.2h-7.3c-3.6 0-6.5-2.9-6.5-6.5v-3.6c0-3.6 2.9-6.5 6.5-6.5h7.3m0-.4h-7.3c-3.8 0-7 3.1-7 7v3.6c0 3.8 3.1 7 7 7h7.3c1.5 0 2.7-1.2 2.7-2.7V81.3c0-1.5-1.2-2.7-2.7-2.7"/>
    <path fill="none" stroke="#4D4D4D" stroke-width=".5" stroke-linecap="round" stroke-miterlimit="10" d="M309 94.1h-3c-2.9 0-5.3-2.4-5.3-5.3v-3c0-2.9 2.4-5.3 5.3-5.3h3"/>
    <path fill="#4D4D4D" d="M357.5 79.1c3.6 0 6.5 2.9 6.5 6.5v3.6c0 3.6-2.9 6.5-6.5 6.5h-7.3c-1.2 0-2.2-1-2.2-2.2V81.3c0-1.2 1-2.2 2.2-2.2h7.3m0-.5h-7.3c-1.5 0-2.7 1.2-2.7 2.7v12.1c0 1.5 1.2 2.7 2.7 2.7h7.3c3.8 0 7-3.1 7-7v-3.6c0-3.8-3.2-6.9-7-6.9"/>
    <path fill="none" stroke="#4D4D4D" stroke-width=".5" stroke-linecap="round" stroke-miterlimit="10" d="M354.2 80.6h3c2.9 0 5.3 2.4 5.3 5.3v3c0 2.9-2.4 5.3-5.3 5.3h-3"/>
    <path fill="#4D4D4D" d="M357.5 59c3.6 0 6.5 2.9 6.5 6.5v3.6c0 3.6-2.9 6.5-6.5 6.5h-7.3c-1.2 0-2.2-1-2.2-2.2V61.2c0-1.2 1-2.2 2.2-2.2h7.3m0-.5h-7.3c-1.5 0-2.7 1.2-2.7 2.7v12.1c0 1.5 1.2 2.7 2.7 2.7h7.3c3.8 0 7-3.1 7-7v-3.6c0-3.8-3.2-6.9-7-6.9"/>
    <path fill="none" stroke="#4D4D4D" stroke-width=".5" stroke-linecap="round" stroke-miterlimit="10" d="M354.2 60.5h3c2.9 0 5.3 2.4 5.3 5.3v3c0 2.9-2.4 5.3-5.3 5.3h-3"/>
    <path fill="#4D4D4D" d="M357.5 38.9c3.6 0 6.5 2.9 6.5 6.5V49c0 3.6-2.9 6.5-6.5 6.5h-7.3c-1.2 0-2.2-1-2.2-2.2V41.2c0-1.2 1-2.2 2.2-2.2h7.3m0-.6h-7.3c-1.5 0-2.7 1.2-2.7 2.7v12.1c0 1.5 1.2 2.7 2.7 2.7h7.3c3.8 0 7-3.1 7-7v-3.6c0-3.7-3.2-6.9-7-6.9"/>
    <path fill="none" stroke="#4D4D4D" stroke-width=".5" stroke-linecap="round" stroke-miterlimit="10" d="M354.2 40.5h3c2.9 0 5.3 2.4 5.3 5.3v3c0 2.9-2.4 5.3-5.3 5.3h-3"/>
    <path fill="#4D4D4D" d="M345.6 99.4h-28.3V35.2h28.3v64.2zm.4-64.6h-29V99.8H346.1V34.8z"/>
    <path fill="#4D4D4D" d="M652.9 88.9h-21.2V9.8h21.2v79.1zm.4-79.5H631.3v79.9H653.3V9.4z"/>
    <path fill="#4D4D4D" d="M403.7 20.3c6.3 0 11.9 4.4 13.2 10.9 1.4 7.3-3.3 14.4-10.6 15.8-.9.2-1.8.3-2.6.3-6.3 0-11.9-4.4-13.2-10.9-1.5-7.3 3.3-14.4 10.6-15.8.9-.3 1.7-.3 2.6-.3m0-.5c-.9 0-1.8.1-2.7.3-7.6 1.5-12.5 8.9-11 16.4 1.3 6.5 7.1 11.3 13.7 11.3.9 0 1.8-.1 2.7-.3 7.6-1.5 12.5-8.9 11-16.4-1.3-6.6-7.1-11.3-13.7-11.3"/>
    <path fill="#4D4D4D" d="M405.1 28c4.5 0 8.4 3.1 9.3 7.7 1 5.2-2.3 10.2-7.5 11.2-.6.1-1.2.2-1.9.2-4.5 0-8.4-3.1-9.3-7.7-1-5.2 2.3-10.2 7.5-11.2.6-.2 1.2-.2 1.9-.2m0-.5c-.7 0-1.3.1-2 .2-5.4 1.1-9 6.4-7.9 11.8.9 4.7 5.1 8.1 9.8 8.1.7 0 1.3-.1 2-.2 2.6-.5 4.9-2 6.4-4.3 1.5-2.2 2-4.9 1.5-7.5-1-4.7-5.1-8.1-9.8-8.1"/>
    <path fill="#4D4D4D" d="M439.6 26.6c2.8 0 5.6.9 8 2.7 6 4.5 7.2 12.9 2.7 18.9-2.6 3.5-6.7 5.4-10.8 5.4-2.8 0-5.6-.9-8.1-2.7-6-4.5-7.2-12.9-2.7-18.9 2.8-3.6 6.8-5.4 10.9-5.4m0-.5v.5-.5c-4.5 0-8.5 2-11.2 5.6-2.2 3-3.2 6.7-2.6 10.4.5 3.7 2.5 7 5.5 9.2 2.4 1.8 5.3 2.8 8.3 2.8 4.5 0 8.5-2 11.2-5.6 4.6-6.2 3.3-14.9-2.8-19.6-2.5-1.9-5.4-2.8-8.4-2.8"/>
    <path fill="#4D4D4D" d="M437.7 34c2 0 4 .6 5.7 1.9 4.2 3.1 5.1 9.1 1.9 13.3-1.9 2.5-4.7 3.8-7.6 3.8-2 0-4-.6-5.7-1.9-4.2-3.1-5.1-9.1-1.9-13.3 1.9-2.5 4.7-3.8 7.6-3.8m0-.5c-3.2 0-6.1 1.5-8 4-1.6 2.1-2.3 4.8-1.9 7.4.4 2.7 1.8 5 3.9 6.6 1.7 1.3 3.8 2 6 2 3.2 0 6.1-1.5 8-4 3.3-4.4 2.4-10.7-2-14-1.7-1.3-3.8-2-6-2"/>
    <path fill="#4D4D4D" d="M422.7 82.2c6.3 0 11.9 4.4 13.2 10.8 1.5 7.3-3.3 14.4-10.6 15.8-.9.2-1.8.3-2.6.3-6.3 0-11.9-4.4-13.2-10.8-1.5-7.3 3.2-14.4 10.5-15.9.9-.1 1.8-.2 2.7-.2m0-.5c-.9 0-1.8.1-2.7.3-7.6 1.5-12.5 8.9-11 16.4 1.3 6.5 7.1 11.2 13.7 11.2.9 0 1.8-.1 2.7-.3 7.6-1.5 12.5-8.9 11-16.4-1.3-6.5-7.1-11.2-13.7-11.2"/>
    <path fill="#4D4D4D" d="M421.3 82.4c4.5 0 8.4 3.1 9.3 7.7 1 5.2-2.3 10.2-7.5 11.2-.6.1-1.3.2-1.9.2-4.5 0-8.4-3.1-9.3-7.7-1-5.2 2.3-10.2 7.5-11.2.7-.2 1.3-.2 1.9-.2m0-.5c-.7 0-1.3.1-2 .2-5.4 1.1-9 6.4-7.9 11.8.9 4.7 5.1 8.1 9.8 8.1.7 0 1.3-.1 2-.2 5.4-1.1 9-6.4 7.9-11.8-.9-4.7-5-8.1-9.8-8.1"/>
    <path fill="#4D4D4D" d="M393.5 67.1c5 0 9.9 2.8 12.2 7.7 3.2 6.7.4 14.8-6.3 18-1.9.9-3.9 1.3-5.8 1.3-5 0-9.9-2.8-12.2-7.7-3.2-6.7-.4-14.8 6.3-18 1.9-.8 3.8-1.3 5.8-1.3m0-.5c-2.1 0-4.1.5-6 1.4-3.4 1.6-5.9 4.4-7.1 8-1.2 3.5-1 7.3.6 10.7 2.3 4.8 7.3 7.9 12.6 7.9 2.1 0 4.1-.5 6-1.4 7-3.3 9.9-11.7 6.6-18.6-2.4-4.8-7.4-8-12.7-8"/>
    <path fill="#4D4D4D" d="M396.8 68.9c3.6 0 7 2 8.6 5.4 2.3 4.7.3 10.4-4.5 12.7-1.3.6-2.7.9-4.1.9-3.6 0-7-2-8.6-5.4-2.3-4.7-.3-10.4 4.5-12.7 1.3-.6 2.7-.9 4.1-.9m0-.5c-1.5 0-3 .3-4.3 1-2.4 1.2-4.2 3.2-5.1 5.7-.9 2.5-.7 5.2.4 7.7 1.7 3.5 5.2 5.7 9.1 5.7 1.5 0 3-.3 4.3-1 5-2.4 7.1-8.4 4.7-13.4-1.7-3.5-5.3-5.7-9.1-5.7"/>
    <path fill="#4D4D4D" d="M419.4 49.7c7.9 0 14.3 6.4 14.3 14.3s-6.4 14.3-14.3 14.3-14.3-6.4-14.3-14.3 6.4-14.3 14.3-14.3m0-.5c-8.2 0-14.8 6.6-14.8 14.8s6.6 14.8 14.8 14.8c8.1 0 14.8-6.6 14.8-14.8s-6.6-14.8-14.8-14.8"/>
    <path fill="#4D4D4D" d="M666.4 21c3.6 0 6.5 2.9 6.5 6.5v3.6c0 3.6-2.9 6.5-6.5 6.5H659c-1.2 0-2.2-1-2.2-2.2V23.3c0-1.2 1-2.2 2.2-2.2h7.4m0-.6H659c-1.5 0-2.7 1.2-2.7 2.7v12.1c0 1.5 1.2 2.7 2.7 2.7h7.3c3.8 0 7-3.1 7-7v-3.6c0-3.7-3.1-6.9-6.9-6.9"/>
    <path fill="none" stroke="#4D4D4D" stroke-width=".5" stroke-linecap="round" stroke-miterlimit="10" d="M663.1 22.6h3c2.9 0 5.3 2.4 5.3 5.3v3c0 2.9-2.4 5.3-5.3 5.3h-3"/>
    <path fill="#4D4D4D" d="M666.4 60.8c3.6 0 6.5 2.9 6.5 6.5v3.6c0 3.6-2.9 6.5-6.5 6.5H659c-1.2 0-2.2-1-2.2-2.2V63c0-1.2 1-2.2 2.2-2.2h7.4m0-.5H659c-1.5 0-2.7 1.2-2.7 2.7v12.1c0 1.5 1.2 2.7 2.7 2.7h7.3c3.8 0 7-3.1 7-7v-3.6c0-3.8-3.1-6.9-6.9-6.9"/>
    <path fill="none" stroke="#4D4D4D" stroke-width=".5" stroke-linecap="round" stroke-miterlimit="10" d="M663.1 62.3h3c2.9 0 5.3 2.4 5.3 5.3v3c0 2.9-2.4 5.3-5.3 5.3h-3"/>
    <path fill="#4D4D4D" d="M392.9 490.7h-21.2v-79.1h21.2v79.1zm.4-79.5H371.3v79.9H393.3v-79.9z"/>
    <path fill="#4D4D4D" d="M406.3 422.8c3.6 0 6.5 2.9 6.5 6.5v3.6c0 3.6-2.9 6.5-6.5 6.5H399c-1.2 0-2.2-1-2.2-2.2V425c0-1.2 1-2.2 2.2-2.2h7.3m0-.5H399c-1.5 0-2.7 1.2-2.7 2.7v12.1c0 1.5 1.2 2.7 2.7 2.7h7.3c3.8 0 7-3.1 7-7v-3.6c-.1-3.8-3.2-6.9-7-6.9"/>
    <path fill="none" stroke="#4D4D4D" stroke-width=".5" stroke-linecap="round" stroke-miterlimit="10" d="M403 424.3h3c2.9 0 5.3 2.4 5.3 5.3v3c0 2.9-2.4 5.3-5.3 5.3h-3"/>
    <path fill="#4D4D4D" d="M406.3 462.5c3.6 0 6.5 2.9 6.5 6.5v3.6c0 3.6-2.9 6.5-6.5 6.5H399c-1.2 0-2.2-1-2.2-2.2v-12.1c0-1.2 1-2.2 2.2-2.2h7.3m0-.6H399c-1.5 0-2.7 1.2-2.7 2.7v12.1c0 1.5 1.2 2.7 2.7 2.7h7.3c3.8 0 7-3.1 7-7V469c-.1-3.8-3.2-7-7-7"/>
    <path fill="none" stroke="#4D4D4D" stroke-width=".5" stroke-linecap="round" stroke-miterlimit="10" d="M403 464.1h3c2.9 0 5.3 2.4 5.3 5.3v3c0 2.9-2.4 5.3-5.3 5.3h-3"/>
    <path fill="#4D4D4D" d="M686.2 150.4c3.6 0 6.5 2.9 6.5 6.5v7.3c0 1.2-1 2.2-2.2 2.2h-12.1c-1.2 0-2.2-1-2.2-2.2v-7.3c0-3.6 2.9-6.5 6.5-6.5h3.5m0-.5h-3.6c-3.8 0-7 3.1-7 7v7.3c0 1.5 1.2 2.7 2.7 2.7h12.1c1.5 0 2.7-1.2 2.7-2.7v-7.3c0-3.9-3.1-7-6.9-7"/>
    <path fill="none" stroke="#4D4D4D" stroke-width=".5" stroke-linecap="round" stroke-miterlimit="10" d="M677.6 160.1v-3c0-2.9 2.4-5.3 5.3-5.3h3c2.9 0 5.3 2.4 5.3 5.3v3"/>
    <path fill="#4D4D4D" d="M647.4 150.4c3.6 0 6.5 2.9 6.5 6.5v7.3c0 1.2-1 2.2-2.2 2.2h-12.1c-1.2 0-2.2-1-2.2-2.2v-7.3c0-3.6 2.9-6.5 6.5-6.5h3.5m0-.5h-3.6c-3.8 0-7 3.1-7 7v7.3c0 1.5 1.2 2.7 2.7 2.7h12.1c1.5 0 2.7-1.2 2.7-2.7v-7.3c0-3.9-3.1-7-6.9-7"/>
    <path fill="none" stroke="#4D4D4D" stroke-width=".5" stroke-linecap="round" stroke-miterlimit="10" d="M638.8 160.1v-3c0-2.9 2.4-5.3 5.3-5.3h3c2.9 0 5.3 2.4 5.3 5.3v3"/>
    <path fill="#4D4D4D" d="M606.5 150.4c3.6 0 6.5 2.9 6.5 6.5v7.3c0 1.2-1 2.2-2.2 2.2h-12.1c-1.2 0-2.2-1-2.2-2.2v-7.3c0-3.6 2.9-6.5 6.5-6.5h3.5m0-.5h-3.6c-3.8 0-7 3.1-7 7v7.3c0 1.5 1.2 2.7 2.7 2.7h12.1c1.5 0 2.7-1.2 2.7-2.7v-7.3c.1-3.9-3-7-6.9-7"/>
    <path fill="none" stroke="#4D4D4D" stroke-width=".5" stroke-linecap="round" stroke-miterlimit="10" d="M598 160.1v-3c0-2.9 2.4-5.3 5.3-5.3h3c2.9 0 5.3 2.4 5.3 5.3v3"/>
    <path fill="#4D4D4D" d="M610.8 214.8c1.2 0 2.2 1 2.2 2.2v7.3c0 3.6-2.9 6.5-6.5 6.5h-3.6c-3.6 0-6.5-2.9-6.5-6.5V217c0-1.2 1-2.2 2.2-2.2h12.2m0-.5h-12.1c-1.5 0-2.7 1.2-2.7 2.7v7.3c0 3.8 3.1 7 7 7h3.6c3.8 0 7-3.1 7-7V217c-.1-1.5-1.3-2.7-2.8-2.7"/>
    <path fill="none" stroke="#4D4D4D" stroke-width=".5" stroke-linecap="round" stroke-miterlimit="10" d="M611.5 221.1v3c0 2.9-2.4 5.3-5.3 5.3h-3c-2.9 0-5.3-2.4-5.3-5.3v-3"/>
    <path fill="#4D4D4D" d="M651.6 214.8c1.2 0 2.2 1 2.2 2.2v7.3c0 3.6-2.9 6.5-6.5 6.5h-3.6c-3.6 0-6.5-2.9-6.5-6.5V217c0-1.2 1-2.2 2.2-2.2h12.2m0-.5h-12.1c-1.5 0-2.7 1.2-2.7 2.7v7.3c0 3.8 3.1 7 7 7h3.6c3.8 0 7-3.1 7-7V217c-.1-1.5-1.3-2.7-2.8-2.7"/>
    <path fill="none" stroke="#4D4D4D" stroke-width=".5" stroke-linecap="round" stroke-miterlimit="10" d="M652.3 221.1v3c0 2.9-2.4 5.3-5.3 5.3h-3c-2.9 0-5.3-2.4-5.3-5.3v-3"/>
    <path fill="#4D4D4D" d="M690.4 214.8c1.2 0 2.2 1 2.2 2.2v7.3c0 3.6-2.9 6.5-6.5 6.5h-3.6c-3.6 0-6.5-2.9-6.5-6.5V217c0-1.2 1-2.2 2.2-2.2h12.2m0-.5h-12.1c-1.5 0-2.7 1.2-2.7 2.7v7.3c0 3.8 3.1 7 7 7h3.6c3.8 0 7-3.1 7-7V217c-.1-1.5-1.3-2.7-2.8-2.7"/>
    <path fill="none" stroke="#4D4D4D" stroke-width=".5" stroke-linecap="round" stroke-miterlimit="10" d="M691.1 221.1v3c0 2.9-2.4 5.3-5.3 5.3h-3c-2.9 0-5.3-2.4-5.3-5.3v-3"/>
    <path fill="#4D4D4D" d="M690.4 339.5c1.2 0 2.2 1 2.2 2.2v7.3c0 3.6-2.9 6.5-6.5 6.5h-3.6c-3.6 0-6.5-2.9-6.5-6.5v-7.3c0-1.2 1-2.2 2.2-2.2h12.2m0-.5h-12.1c-1.5 0-2.7 1.2-2.7 2.7v7.3c0 3.8 3.1 7 7 7h3.6c3.8 0 7-3.1 7-7v-7.3c-.1-1.5-1.3-2.7-2.8-2.7"/>
    <path fill="none" stroke="#4D4D4D" stroke-width=".5" stroke-linecap="round" stroke-miterlimit="10" d="M691.1 345.8v3c0 2.9-2.4 5.3-5.3 5.3h-3c-2.9 0-5.3-2.4-5.3-5.3v-3"/>
    <path fill="#4D4D4D" d="M650.1 339.5c1.2 0 2.2 1 2.2 2.2v7.3c0 3.6-2.9 6.5-6.5 6.5h-3.6c-3.6 0-6.5-2.9-6.5-6.5v-7.3c0-1.2 1-2.2 2.2-2.2h12.2m0-.5H638c-1.5 0-2.7 1.2-2.7 2.7v7.3c0 3.8 3.1 7 7 7h3.6c3.8 0 7-3.1 7-7v-7.3c-.1-1.5-1.3-2.7-2.8-2.7"/>
    <path fill="none" stroke="#4D4D4D" stroke-width=".5" stroke-linecap="round" stroke-miterlimit="10" d="M650.8 345.8v3c0 2.9-2.4 5.3-5.3 5.3h-3c-2.9 0-5.3-2.4-5.3-5.3v-3"/>
    <path fill="#4D4D4D" d="M645.8 277.1c3.6 0 6.5 2.9 6.5 6.5v7.3c0 1.2-1 2.2-2.2 2.2H638c-1.2 0-2.2-1-2.2-2.2v-7.3c0-3.6 2.9-6.5 6.5-6.5h3.5m0-.5h-3.6c-3.8 0-7 3.1-7 7v7.3c0 1.5 1.2 2.7 2.7 2.7H650c1.5 0 2.7-1.2 2.7-2.7v-7.3c.1-3.9-3-7-6.9-7"/>
    <path fill="none" stroke="#4D4D4D" stroke-width=".5" stroke-linecap="round" stroke-miterlimit="10" d="M637.3 286.9v-3c0-2.9 2.4-5.3 5.3-5.3h3c2.9 0 5.3 2.4 5.3 5.3v3"/>
    <path fill="#4D4D4D" d="M686.2 277.1c3.6 0 6.5 2.9 6.5 6.5v7.3c0 1.2-1 2.2-2.2 2.2h-12.1c-1.2 0-2.2-1-2.2-2.2v-7.3c0-3.6 2.9-6.5 6.5-6.5h3.5m0-.5h-3.6c-3.8 0-7 3.1-7 7v7.3c0 1.5 1.2 2.7 2.7 2.7h12.1c1.5 0 2.7-1.2 2.7-2.7v-7.3c0-3.9-3.1-7-6.9-7"/>
    <path fill="none" stroke="#4D4D4D" stroke-width=".5" stroke-linecap="round" stroke-miterlimit="10" d="M677.6 286.9v-3c0-2.9 2.4-5.3 5.3-5.3h3c2.9 0 5.3 2.4 5.3 5.3v3"/>
    <path fill="#4D4D4D" d="M703.5 210.6h-119v-40h119v40zm.5-40.5H584v41h120v-41z"/>
    <path fill="#4D4D4D" d="M686.2 401.8c3.6 0 6.5 2.9 6.5 6.5v7.3c0 1.2-1 2.2-2.2 2.2h-12.1c-1.2 0-2.2-1-2.2-2.2v-7.3c0-3.6 2.9-6.5 6.5-6.5h3.5m0-.5h-3.6c-3.8 0-7 3.1-7 7v7.3c0 1.5 1.2 2.7 2.7 2.7h12.1c1.5 0 2.7-1.2 2.7-2.7v-7.3c0-3.9-3.1-7-6.9-7"/>
    <path fill="none" stroke="#4D4D4D" stroke-width=".5" stroke-linecap="round" stroke-miterlimit="10" d="M677.6 411.6v-3c0-2.9 2.4-5.3 5.3-5.3h3c2.9 0 5.3 2.4 5.3 5.3v3"/>
    <path fill="#4D4D4D" d="M647.4 401.8c3.6 0 6.5 2.9 6.5 6.5v7.3c0 1.2-1 2.2-2.2 2.2h-12.1c-1.2 0-2.2-1-2.2-2.2v-7.3c0-3.6 2.9-6.5 6.5-6.5h3.5m0-.5h-3.6c-3.8 0-7 3.1-7 7v7.3c0 1.5 1.2 2.7 2.7 2.7h12.1c1.5 0 2.7-1.2 2.7-2.7v-7.3c0-3.9-3.1-7-6.9-7"/>
    <path fill="none" stroke="#4D4D4D" stroke-width=".5" stroke-linecap="round" stroke-miterlimit="10" d="M638.8 411.6v-3c0-2.9 2.4-5.3 5.3-5.3h3c2.9 0 5.3 2.4 5.3 5.3v3"/>
    <path fill="#4D4D4D" d="M606.5 401.8c3.6 0 6.5 2.9 6.5 6.5v7.3c0 1.2-1 2.2-2.2 2.2h-12.1c-1.2 0-2.2-1-2.2-2.2v-7.3c0-3.6 2.9-6.5 6.5-6.5h3.5m0-.5h-3.6c-3.8 0-7 3.1-7 7v7.3c0 1.5 1.2 2.7 2.7 2.7h12.1c1.5 0 2.7-1.2 2.7-2.7v-7.3c.1-3.9-3-7-6.9-7"/>
    <path fill="none" stroke="#4D4D4D" stroke-width=".5" stroke-linecap="round" stroke-miterlimit="10" d="M598 411.6v-3c0-2.9 2.4-5.3 5.3-5.3h3c2.9 0 5.3 2.4 5.3 5.3v3"/>
    <path fill="#4D4D4D" d="M610.8 466.2c1.2 0 2.2 1 2.2 2.2v7.3c0 3.6-2.9 6.5-6.5 6.5h-3.6c-3.6 0-6.5-2.9-6.5-6.5v-7.3c0-1.2 1-2.2 2.2-2.2h12.2m0-.5h-12.1c-1.5 0-2.7 1.2-2.7 2.7v7.3c0 3.8 3.1 7 7 7h3.6c3.8 0 7-3.1 7-7v-7.3c-.1-1.5-1.3-2.7-2.8-2.7"/>
    <path fill="none" stroke="#4D4D4D" stroke-width=".5" stroke-linecap="round" stroke-miterlimit="10" d="M611.5 472.5v3c0 2.9-2.4 5.3-5.3 5.3h-3c-2.9 0-5.3-2.4-5.3-5.3v-3"/>
    <path fill="#4D4D4D" d="M651.6 466.2c1.2 0 2.2 1 2.2 2.2v7.3c0 3.6-2.9 6.5-6.5 6.5h-3.6c-3.6 0-6.5-2.9-6.5-6.5v-7.3c0-1.2 1-2.2 2.2-2.2h12.2m0-.5h-12.1c-1.5 0-2.7 1.2-2.7 2.7v7.3c0 3.8 3.1 7 7 7h3.6c3.8 0 7-3.1 7-7v-7.3c-.1-1.5-1.3-2.7-2.8-2.7"/>
    <path fill="none" stroke="#4D4D4D" stroke-width=".5" stroke-linecap="round" stroke-miterlimit="10" d="M652.3 472.5v3c0 2.9-2.4 5.3-5.3 5.3h-3c-2.9 0-5.3-2.4-5.3-5.3v-3"/>
    <path fill="#4D4D4D" d="M690.4 466.2c1.2 0 2.2 1 2.2 2.2v7.3c0 3.6-2.9 6.5-6.5 6.5h-3.6c-3.6 0-6.5-2.9-6.5-6.5v-7.3c0-1.2 1-2.2 2.2-2.2h12.2m0-.5h-12.1c-1.5 0-2.7 1.2-2.7 2.7v7.3c0 3.8 3.1 7 7 7h3.6c3.8 0 7-3.1 7-7v-7.3c-.1-1.5-1.3-2.7-2.8-2.7"/>
    <path fill="none" stroke="#4D4D4D" stroke-width=".5" stroke-linecap="round" stroke-miterlimit="10" d="M691.1 472.5v3c0 2.9-2.4 5.3-5.3 5.3h-3c-2.9 0-5.3-2.4-5.3-5.3v-3"/>
    <path fill="#4D4D4D" d="M703.5 462h-119v-40h119v40zm.5-40.5H584v41h120v-41z"/>
    <path fill="#4D4D4D" d="M703.5 336.3h-78.7v-40h78.7v40zm.4-40.4H624.4v40.8H703.9v-40.8z"/>
    <path fill="#4D4D4D" d="M450.1 469.2c1.2 0 2.2 1 2.2 2.2v12.1c0 1.2-1 2.2-2.2 2.2h-7.3c-3.6 0-6.5-2.9-6.5-6.5v-3.6c0-3.6 2.9-6.5 6.5-6.5h7.3m0-.4h-7.3c-3.8 0-7 3.1-7 7v3.6c0 3.8 3.1 7 7 7h7.3c1.5 0 2.7-1.2 2.7-2.7v-12.1c0-1.6-1.2-2.8-2.7-2.8"/>
    <path fill="none" stroke="#4D4D4D" stroke-width=".5" stroke-linecap="round" stroke-miterlimit="10" d="M446 484.2h-3c-2.9 0-5.3-2.4-5.3-5.3v-3c0-2.9 2.4-5.3 5.3-5.3h3"/>
    <path fill="#4D4D4D" d="M450.1 428.8c1.2 0 2.2 1 2.2 2.2v12.1c0 1.2-1 2.2-2.2 2.2h-7.3c-3.6 0-6.5-2.9-6.5-6.5v-3.6c0-3.6 2.9-6.5 6.5-6.5h7.3m0-.4h-7.3c-3.8 0-7 3.1-7 7v3.6c0 3.8 3.1 7 7 7h7.3c1.5 0 2.7-1.2 2.7-2.7v-12.1c0-1.5-1.2-2.8-2.7-2.8"/>
    <path fill="none" stroke="#4D4D4D" stroke-width=".5" stroke-linecap="round" stroke-miterlimit="10" d="M446 443.9h-3c-2.9 0-5.3-2.4-5.3-5.3v-3c0-2.9 2.4-5.3 5.3-5.3h3"/>
    <path fill="#4D4D4D" d="M508.2 428.8c3.6 0 6.5 2.9 6.5 6.5v3.6c0 3.6-2.9 6.5-6.5 6.5h-7.3c-1.2 0-2.2-1-2.2-2.2v-12.1c0-1.2 1-2.2 2.2-2.2h7.3m0-.6h-7.3c-1.5 0-2.7 1.2-2.7 2.7v12.1c0 1.5 1.2 2.7 2.7 2.7h7.3c3.8 0 7-3.1 7-7v-3.6c-.1-3.7-3.2-6.9-7-6.9"/>
    <path fill="none" stroke="#4D4D4D" stroke-width=".5" stroke-linecap="round" stroke-miterlimit="10" d="M504.9 430.4h3c2.9 0 5.3 2.4 5.3 5.3v3c0 2.9-2.4 5.3-5.3 5.3h-3"/>
    <path fill="#4D4D4D" d="M508.2 469.2c3.6 0 6.5 2.9 6.5 6.5v3.6c0 3.6-2.9 6.5-6.5 6.5h-7.3c-1.2 0-2.2-1-2.2-2.2v-12.1c0-1.2 1-2.2 2.2-2.2h7.3m0-.6h-7.3c-1.5 0-2.7 1.2-2.7 2.7v12.1c0 1.5 1.2 2.7 2.7 2.7h7.3c3.8 0 7-3.1 7-7v-3.6c-.1-3.8-3.2-6.9-7-6.9"/>
    <path fill="none" stroke="#4D4D4D" stroke-width=".5" stroke-linecap="round" stroke-miterlimit="10" d="M504.9 470.7h3c2.9 0 5.3 2.4 5.3 5.3v3c0 2.9-2.4 5.3-5.3 5.3h-3"/>
    <path fill="#4D4D4D" d="M495.4 496.6h-40V418h40v78.6zm.5-79H455V497.1h40.8V417.6z"/>
    <path fill="#4D4D4D" d="M587.3 370.2h139.4v3.7H587.3z"/>
    <path fill="#4D4D4D" d="M587.3 250.8h139.4v3.7H587.3z"/>
    <path fill="#4D4D4D" d="M588.8 342.5h-1v-87.9h1v87.9zm.5-88.4h-2V343h2v-88.9z"/>
    <path fill="#4D4D4D" d="M588.8 371.3h-1v-3.2h1v3.2zm.5-3.7h-2v4.2h2v-4.2z"/>
    <path fill="#4D4D4D" d="M369.7 371.6h-1V259h1v112.6zm.5-113.1h-2V372h2V258.5z"/>
    <path fill="#4D4D4D" d="M125.9 498.1h-1V279.3h1v218.8zm.5-219.3h-2v219.8h2V278.8z"/>
    <path fill="#4D4D4D" d="M543.1 253.1h-1V135.7h1v117.4zm.5-117.9h-2v118.4h2V135.2z"/>
    <path fill="#4D4D4D" d="M553.4 253.1H542v-1h11.4v1zm.5-1.5h-12.4v2h12.4v-2z"/>
    <path fill="#4D4D4D" d="M590.2 253.1h-11.4v-1h11.4v1zm.5-1.5h-12.4v2h12.4v-2z"/>
    <path fill="#4D4D4D" d="M590.5 372.6h-14.1v-1h14.1v1zm.5-1.5h-15v2h15.1v-2z"/>
    <path fill="#4D4D4D" d="M550.9 372.6h-47.8v-1h47.8v1zm.5-1.5h-48.8v2h48.8v-2z"/>
    <path fill="#4D4D4D" d="M477.8 372.6H370v-1h107.7v1zm.5-1.5H369.5v2h108.7v-2z"/>
    <path fill="#4D4D4D" d="M369.7 260H124.9v-1h244.8v1zm.5-1.5H124.4v2h245.8v-2z"/>
    <path fill="#4D4D4D" d="M260.2 138.1h-54.5v-1h54.5v1zm.5-1.5h-55.5v2h55.5v-2z"/>
    <path fill="#4D4D4D" d="M339.5 138.1h-53.8v-1h53.8v1zm.5-1.5h-54.8v2H340v-2z"/>
    <path fill="#4D4D4D" d="M463.1 138.1h-59.9v-1h59.9v1zm.5-1.5h-60.9v2h60.9v-2z"/>
    <path fill="#4D4D4D" d="M377.8 138.1H365v-1h12.8v1zm.5-1.5h-13.8v2h13.8v-2z"/>
    <path fill="#4D4D4D" d="M551 94.3h-8.7v-1h8.7v1zm.5-1.5h-9.7v2h9.7v-2z"/>
    <path fill="#4D4D4D" d="M516.7 94.3h-52.9v-1h52.9v1zm.5-1.5h-53.9v2h53.9v-2z"/>
    <path fill="#4D4D4D" d="M629.2 94.3h-52.7v-1h52.7v1zm.5-1.5H576v2h53.7v-2z"/>
    <path fill="#4D4D4D" d="M631 133.5h-1V80.6h1v52.9zm.5-53.4h-2V134h2V80.1z"/>
    <path fill="#4D4D4D" d="M463.2 138.1h-1V93.3h1v44.8zm.5-45.3h-2v45.9h2V92.8z"/>
    <path fill="#4D4D4D" d="M721.1 353.6h-2.4v-28.5h2.4v28.5zm.5-29h-3.4v29.5h3.4v-29.5z"/>
    <path fill="#4D4D4D" d="M721.1 410.4h-2.4v-28.5h2.4v28.5zm.5-29h-3.4v29.5h3.4v-29.5z"/>
    <path fill="#4D4D4D" d="M721.1 468.3h-2.4v-30.8h2.4v30.8zm.5-31.3h-3.4v31.8h3.4V437z"/>
    <path fill="#4D4D4D" d="M539 510.6h-76.1v-2.4H539v2.4zm.5-3h-77.1v3.4h77.1v-3.4z"/>
    <path fill="#4D4D4D" d="M626.6 510.6h-76.1v-2.4h76.1v2.4zm.5-3H550v3.4h77.1v-3.4z"/>
    <path fill="#4D4D4D" d="M456.6 510.6h-76.1v-2.4h76.1v2.4zm.5-3H380v3.4h77.1v-3.4z"/>
    <path fill="#4D4D4D" d="M374.6 510.6h-76.1v-2.4h76.1v2.4zm.5-3H298v3.4h77.1v-3.4z"/>
    <path fill="#4D4D4D" d="M198 510.6h-76.1v-2.4H198v2.4zm.5-3h-77.1v3.4h77.1v-3.4z"/>
    <path fill="#4D4D4D" d="M284 510.6h-76.1v-2.4H284v2.4zm.5-3h-77.1v3.4h77.1v-3.4z"/>
    <path fill="#4D4D4D" d="M721.1 298.3h-2.4v-30.8h2.4v30.8zm.5-31.3h-3.4v31.8h3.4V267z"/>
    <path fill="#4D4D4D" d="M721.1 241.3h-2.4v-30.8h2.4v30.8zm.5-31.2h-3.4v31.8h3.4v-31.8z"/>
    <path fill="#4D4D4D" d="M721.1 183.6h-2.4v-30.8h2.4v30.8zm.5-31.3h-3.4v31.8h3.4v-31.8z"/>
    <path fill="#4D4D4D" d="M721.1 128h-2.4V97.2h2.4V128zm.5-31.3h-3.4v31.8h3.4V96.7z"/>
    <path fill="#4D4D4D" d="M721.1 71.8h-2.4V41h2.4v30.8zm.5-31.3h-3.4v31.8h3.4V40.5z"/>
    <path fill="#4D4D4D" d="M136.4 210.2h-1V97.6h1v112.6zm.5-113.1h-2v113.6h2V97.1z"/>
    <path fill="#4D4D4D" d="M205 5.8h3.7v204.7H205z"/>
    <path fill="#4D4D4D" d="M288 5.8h3.7v132.4H288z"/>
    <path fill="#4D4D4D" d="M371.4 5.8h3.7v132.6h-3.7z"/>
    <path fill="#4D4D4D" d="M460.9 5.8h3.7v88.8h-3.7z"/>
    <path fill="#4D4D4D" d="M544.6 5.8h3.7v88.8h-3.7z"/>
    <path fill="#4D4D4D" d="M544.6 371.3h3.7v128h-3.7z"/>
    <path fill="#4D4D4D" d="M368.2 370.2h3.7v129h-3.7z"/>
    <path fill="#4D4D4D" d="M628.6 5.8h3.7v88.8h-3.7z"/>
    <path fill="#4D4D4D" d="M541.6 132.2h90.7v3.7h-90.7z"/>
    <path fill="#4D4D4D" d="M133.1 5.8h3.7v34.4h-3.7z"/>
    <path fill="#4D4D4D" d="M133.1 4.7h72.5v9.4h-72.5z"/>
    <path fill="#4D4D4D" d="M133.1 55.8h3.7v42.7h-3.7z"/>
    <path fill="#4D4D4D" d="M134.4 57.2h73.1v3.7h-73.1z"/>
    <path fill="#4D4D4D" d="M40.8 95.2h66.9v3.7H40.8z"/>
    <path fill="#4D4D4D" d="M93.5 123.6h5.6v2.9h-5.6z"/>
    <path fill="#4D4D4D" d="M40.8 123.6h36.5v2.9H40.8z"/>
    <path fill="#4D4D4D" d="M39.6 97.4h7.5v26.1h-7.5z"/>
    <path fill="#4D4D4D" d="M39.6 126h13.7v31.4H39.6z"/>
    <path fill="#4D4D4D" d="M39.6 156.1h4.5v51.6h-4.5z"/>
    <path fill="#4D4D4D" d="M52.7 153.3h21v4.1h-21z"/>
    <path fill="#4D4D4D" d="M131.4 95.2h5.4v3.7h-5.4z"/>
    <path fill="#4D4D4D" d="M40.8 37h13.7v3.1H40.8z"/>
    <path fill="#4D4D4D" d="M71.1 37h44.2v3.1H71.1z"/>
    <path fill="#4D4D4D" d="M131.9 37h4.9v4.9h-4.9z"/>
    <path fill="#4D4D4D" d="M40.8 207.5h58.6v3.7H40.8z"/>
    <path fill="#4D4D4D" d="M95.7 97.6h3.7v86h-3.7z"/>
    <path fill="#4D4D4D" d="M95.7 205.5h3.7v5.7h-3.7z"/>
    <path fill="#4D4D4D" d="M85.1 8.4h7.2v31.1h-7.2z"/>
    <path fill="#4D4D4D" d="M32.2 5.8h8.6v363.5h-8.6z"/>
    <path fill="#4D4D4D" d="M2 360.6h38.8v8.6H2z"/>
    <path fill="#4D4D4D" d="M2 360.6h8.6v160.5H2z"/>
    <path fill="#4D4D4D" d="M6.3 497.6h120.9v23.6H6.3z"/>
    <path fill="#4D4D4D" d="M195.3 497.6h18.6v23.6h-18.6z"/>
    <path fill="#4D4D4D" d="M280 497.6h18.6v23.6H280z"/>
    <path fill="#4D4D4D" d="M364.8 497.6h18.6v23.6h-18.6z"/>
    <path fill="#4D4D4D" d="M450.1 497.6h18.6v23.6h-18.6z"/>
    <path fill="#4D4D4D" d="M535.3 497.6h18.6v23.6h-18.6z"/>
    <path fill="#4D4D4D" d="M712.6 353.6h14.2v28.3h-14.2z"/>
    <path fill="#4D4D4D" d="M712.6 297h14.2v28.3h-14.2z"/>
    <path fill="#4D4D4D" d="M712.6 240.3h14.2v28.3h-14.2z"/>
    <path fill="#4D4D4D" d="M712.6 183.6h14.2v28.3h-14.2z"/>
    <path fill="#4D4D4D" d="M712.6 126.6h14.2v28.3h-14.2z"/>
    <path fill="#4D4D4D" d="M712.6 70h14.2v28.3h-14.2z"/>
    <path fill="#4D4D4D" d="M712.6 2h14.2v39.6h-14.2z"/>
    <path fill="#4D4D4D" d="M32.2 2h684.6v9.2H32.2z"/>
    <path fill="#4D4D4D" d="M712.6 409.8h14.2v28.3h-14.2z"/>
    <path fill="#4D4D4D" d="M712.6 467.6h14.2v53.3h-14.2z"/>
    <path fill="#4D4D4D" d="M623.3 497.6h103.4v23.6H623.3z"/>
    <path fill="#4D4D4D" d="M197.5 520.6h-75.1v-22.5h75.1v22.5zm.5-23h-76.1v23.6H198v-23.6z"/>
    <path fill="#4D4D4D" d="M369.5 520.6h-75.1v-22.5h75.1v22.5zm.5-23h-76v23.6h76v-23.6z"/>
    <path fill="#4D4D4D" d="M284.8 520.6h-75.1v-22.5h75.1v22.5zm.5-23h-76.1v23.6h76.1v-23.6z"/>
    <path fill="#4D4D4D" d="M454.8 520.6h-75.1v-22.5h75.1v22.5zm.5-23h-76.1v23.6h76.1v-23.6z"/>
    <path fill="#4D4D4D" d="M539.2 520.6h-75.1v-22.5h75.1v22.5zm.5-23h-76.1v23.6h76.1v-23.6z"/>
    <path fill="#4D4D4D" d="M625.1 520.6H550v-22.5h75.1v22.5zm.5-23h-76.1v23.6h76.1v-23.6z"/>
    <path fill="#4D4D4D" d="M726.2 468.4H713v-29.8h13.2v29.8zm.5-30.2h-14.2V469h14.2v-30.8z"/>
    <path fill="#4D4D4D" d="M726.2 408.9H713v-29.8h13.2v29.8zm.5-30.2h-14.2v30.8h14.2v-30.8z"/>
    <path fill="#4D4D4D" d="M726.2 353.1H713v-29.8h13.2v29.8zm.5-30.2h-14.2v30.8h14.2v-30.8z"/>
    <path fill="#4D4D4D" d="M726.2 297.8H713V268h13.2v29.8zm.5-30.3h-14.2v30.8h14.2v-30.8z"/>
    <path fill="#4D4D4D" d="M726.2 240.8H713V211h13.2v29.8zm.5-30.2h-14.2v30.8h14.2v-30.8z"/>
    <path fill="#4D4D4D" d="M726.2 184.2H713v-29.8h13.2v29.8zm.5-30.3h-14.2v30.8h14.2v-30.8z"/>
    <path fill="#4D4D4D" d="M726.2 126.3H713V96.6h13.2v29.7zm.5-30.2h-14.2v30.8h14.2V96.1z"/>
    <path fill="#4D4D4D" d="M726.2 70.7H713V40.9h13.2v29.8zm.5-30.3h-14.2v30.8h14.2V40.4z"/>
    <path fill="none" stroke="#4D4D4D" stroke-width=".5" stroke-miterlimit="10" d="M285.4 136.8v-24.3c-13.8 0-25 10.9-25 24.3"/>
    <path fill="none" stroke="#4D4D4D" stroke-width=".5" stroke-miterlimit="10" d="M364.8 136.8v-24.3c-13.8 0-25 10.9-25 24.3"/>
    <path fill="none" stroke="#4D4D4D" stroke-width=".5" stroke-miterlimit="10" d="M542 92.8V68.5c-13.8 0-25 10.9-25 24.3"/>
    <path fill="none" stroke="#4D4D4D" stroke-width=".5" stroke-miterlimit="10" d="M551.3 92.8V68.5c13.8 0 25 10.9 25 24.3"/>
    <path fill="none" stroke="#4D4D4D" stroke-width=".5" stroke-miterlimit="10" d="M553.6 251.7v-24.3c13.8 0 25 10.9 25 24.3"/>
    <path fill="none" stroke="#4D4D4D" stroke-width=".5" stroke-miterlimit="10" d="M551.2 372.8v24.3c13.8 0 25-10.9 25-24.3"/>
    <path fill="none" stroke="#4D4D4D" stroke-width=".5" stroke-miterlimit="10" d="M588.8 367.8h24.3c0-13.8-10.9-25-24.3-25"/>
    <path fill="none" stroke="#4D4D4D" stroke-width=".5" stroke-miterlimit="10" d="M503.1 372.8v24.3c-13.8 0-25-10.9-25-24.3"/>
    <path fill="none" stroke="#4D4D4D" stroke-width=".5" stroke-miterlimit="10" d="M378 136.8v-24.3c13.8 0 25 10.9 25 24.3"/>
    <path fill="none" stroke="#4D4D4D" stroke-width=".5" stroke-miterlimit="10" d="M54.3 40.1v16.6c9.5 0 17.1-7.5 17.1-16.6"/>
    <path fill="none" stroke="#4D4D4D" stroke-width=".5" stroke-miterlimit="10" d="M132.1 37V20.3c-9.5 0-17.1 7.5-17.1 16.6"/>
    <path fill="none" stroke="#4D4D4D" stroke-width=".5" stroke-miterlimit="10" d="M41.1 408.4v57.3h52.4v-57.3h32.6v87.9"/>
    <path fill="none" stroke="#4D4D4D" stroke-width=".5" stroke-miterlimit="10" d="M93.5 426h32.6"/>
    <path fill="none" stroke="#4D4D4D" stroke-width=".5" stroke-miterlimit="10" d="M93.5 433.8h32.6"/>
    <path fill="none" stroke="#4D4D4D" stroke-width=".5" stroke-miterlimit="10" d="M93.5 441.6h32.6"/>
    <path fill="none" stroke="#4D4D4D" stroke-width=".5" stroke-miterlimit="10" d="M93.5 449.3h32.6"/>
    <path fill="none" stroke="#4D4D4D" stroke-width=".5" stroke-miterlimit="10" d="M93.5 457.1h32.6"/>
    <path fill="none" stroke="#4D4D4D" stroke-width=".5" stroke-miterlimit="10" d="M80.6 465.7v32.6"/>
    <path fill="none" stroke="#4D4D4D" stroke-width=".5" stroke-miterlimit="10" d="M72.8 465.7v32.6"/>
    <path fill="none" stroke="#4D4D4D" stroke-width=".5" stroke-miterlimit="10" d="M65 465.7v32.6"/>
    <path fill="none" stroke="#4D4D4D" stroke-width=".5" stroke-miterlimit="10" d="M57.2 465.7v32.6"/>
    <path fill="none" stroke="#4D4D4D" stroke-width=".5" stroke-miterlimit="10" d="M49.5 465.7v32.6"/>
    <path fill="none" stroke="#4D4D4D" stroke-width=".5" stroke-miterlimit="10" d="M8.4 426.7h32.5"/>
    <path fill="none" stroke="#4D4D4D" stroke-width=".5" stroke-miterlimit="10" d="M8.4 434.5h32.5"/>
    <path fill="none" stroke="#4D4D4D" stroke-width=".5" stroke-miterlimit="10" d="M8.4 442.2h32.5"/>
    <path fill="none" stroke="#4D4D4D" stroke-width=".5" stroke-miterlimit="10" d="M8.4 450h32.5"/>
    <path fill="none" stroke="#4D4D4D" stroke-width=".5" stroke-miterlimit="10" d="M8.4 457.8h32.5"/>
    <path fill="none" stroke="#4D4D4D" stroke-width=".5" stroke-miterlimit="10" d="M8.4 465.7h32.5"/>
    <path fill="none" stroke="#4D4D4D" stroke-width=".5" stroke-miterlimit="10" d="M25.5 426.7v54.6h83.6v-62.6"/>
    <path fill="#4D4D4D" d="M111.5 422.1c-.1.1-.3 0-.3-.1l-2.1-3.2-2.1 3.2c-.1.1-.2.2-.3.1-.1-.1-.2-.2-.1-.3l2.3-3.6c0-.1.1-.1.2-.1s.2 0 .2.1l2.3 3.6v.1c.1.1 0 .2-.1.2"/>
    <path fill="none" stroke="#4D4D4D" stroke-width=".5" stroke-miterlimit="10" d="M93.5 408.4H41.1"/>
    <path fill="none" stroke="#4D4D4D" stroke-width=".5" stroke-miterlimit="10" d="M132.1 279.2c-.1.1-.1.2-.2.3-3.6 6-5.7 13.1-5.7 20.6 0 22 17.8 39.8 39.8 39.8 21.2 0 38.6-16.6 39.7-37.6-.2 1.7-.2 1.7 0 0 .1-.4.1-.8.1-1.2v-.3-.7c0-22-17.8-39.8-39.8-39.8m-30.4 14.1s-.1 0 0 0m30.3 46.8c-11.6 0-21.1-9.4-21.1-21.1 0-4.9 1.7-9.5 4.6-13.1 3.9-4.9 9.8-8 16.5-8 11.6 0 21.1 9.4 21.1 21.1 0 .3 0 .7-.1 1-.5 11.2-9.7 20.1-21 20.1z"/>
    <path fill="none" stroke="#4D4D4D" stroke-width=".5" stroke-miterlimit="10" d="M166.3 279.1h-41.5"/>
    <path fill="none" stroke="#4D4D4D" stroke-width=".5" stroke-miterlimit="10" d="M56.7 186.3v15c0 .6-.4 1-1 1H43.8v-17h11.9c.5 0 1 .4 1 1z"/>
    <path fill="none" stroke="#4D4D4D" stroke-width=".5" stroke-miterlimit="10" d="M55 188v11.5c0 .6-.4 1-1 1h-6.5c-.6 0-1-.4-1-1V188c0-.6.4-1 1-1H54c.6 0 1 .5 1 1z"/>
    <circle fill="none" stroke="#4D4D4D" stroke-width=".5" stroke-miterlimit="10" cx="48.5" cy="193.8" r=".8"/>
    <circle fill="none" stroke="#4D4D4D" stroke-width=".5" stroke-miterlimit="10" cx="45.4" cy="193.8" r=".5"/>
    <path fill="none" stroke="#4D4D4D" stroke-width=".5" stroke-miterlimit="10" d="M56.7 160.5v15c0 .6-.4 1-1 1H43.8v-17h11.9c.5 0 1 .5 1 1z"/>
    <path fill="none" stroke="#4D4D4D" stroke-width=".5" stroke-miterlimit="10" d="M55 162.3v11.5c0 .6-.4 1-1 1h-6.5c-.6 0-1-.4-1-1v-11.5c0-.6.4-1 1-1H54c.6 0 1 .4 1 1z"/>
    <circle fill="none" stroke="#4D4D4D" stroke-width=".5" stroke-miterlimit="10" cx="48.5" cy="168" r=".8"/>
    <circle fill="none" stroke="#4D4D4D" stroke-width=".5" stroke-miterlimit="10" cx="45.4" cy="168" r=".5"/>
    <path fill="none" stroke="#4D4D4D" stroke-width=".5" stroke-miterlimit="10" d="M160 26.5h-15c-.6 0-1-.4-1-1V13.6h17v11.9c0 .5-.5 1-1 1z"/>
    <path fill="none" stroke="#4D4D4D" stroke-width=".5" stroke-miterlimit="10" d="M158.2 24.8h-11.5c-.6 0-1-.4-1-1v-6.5c0-.6.4-1 1-1h11.5c.6 0 1 .4 1 1v6.5c0 .5-.4 1-1 1z"/>
    <circle fill="none" stroke="#4D4D4D" stroke-width=".5" stroke-miterlimit="10" cx="152.5" cy="18.3" r=".8"/>
    <circle fill="none" stroke="#4D4D4D" stroke-width=".5" stroke-miterlimit="10" cx="152.5" cy="15.1" r=".5"/>
    <path fill="none" stroke="#4D4D4D" stroke-width=".5" stroke-miterlimit="10" d="M46.7 82.9h15c.6 0 1 .4 1 1v11.9h-17V83.9c0-.5.4-1 1-1z"/>
    <path fill="none" stroke="#4D4D4D" stroke-width=".5" stroke-miterlimit="10" d="M48.4 84.6h11.5c.6 0 1 .4 1 1v6.5c0 .6-.4 1-1 1H48.4c-.6 0-1-.4-1-1v-6.5c0-.5.5-1 1-1z"/>
    <circle fill="none" stroke="#4D4D4D" stroke-width=".5" stroke-miterlimit="10" cx="54.2" cy="91.1" r=".8"/>
    <circle fill="none" stroke="#4D4D4D" stroke-width=".5" stroke-miterlimit="10" cx="54.2" cy="94.3" r=".5"/>
    <path fill="none" stroke="#4D4D4D" stroke-width=".5" stroke-miterlimit="10" d="M76.3 82.9h15c.6 0 1 .4 1 1v11.9h-17V83.9c0-.5.5-1 1-1z"/>
    <path fill="none" stroke="#4D4D4D" stroke-width=".5" stroke-miterlimit="10" d="M78.1 84.6h11.5c.6 0 1 .4 1 1v6.5c0 .6-.4 1-1 1H78.1c-.6 0-1-.4-1-1v-6.5c0-.5.4-1 1-1z"/>
    <circle fill="none" stroke="#4D4D4D" stroke-width=".5" stroke-miterlimit="10" cx="83.8" cy="91.1" r=".8"/>
    <circle fill="none" stroke="#4D4D4D" stroke-width=".5" stroke-miterlimit="10" cx="83.8" cy="94.3" r=".5"/>
    <path fill="none" stroke="#4D4D4D" stroke-width=".5" stroke-miterlimit="10" d="M107.3 19.8V26c0 1.1-.9 2-2 2h-14V17.8h14c1.2 0 2 .9 2 2z"/>
    <path fill="none" stroke="#4D4D4D" stroke-width=".5" stroke-miterlimit="10" d="M105.9 20.2v5.3c0 .6-.4 1-1 1h-8.2c-.6 0-1-.4-1-1v-5.3c0-.6.4-1 1-1h8.2c.5 0 1 .4 1 1z"/>
    <path fill="none" stroke="#4D4D4D" stroke-width=".5" stroke-miterlimit="10" d="M99.4 22.8v.2c0 .6-.4 1-1 1h-1.9v-2.2h1.9c.5 0 1 .4 1 1z"/>
    <path fill="none" stroke="#4D4D4D" stroke-width=".5" stroke-miterlimit="10" d="M70.6 26v-6.2c0-1.1.9-2 2-2h14V28h-14c-1.1 0-2-.9-2-2z"/>
    <path fill="none" stroke="#4D4D4D" stroke-width=".5" stroke-miterlimit="10" d="M72 25.7v-5.3c0-.6.4-1 1-1h8.2c.6 0 1 .4 1 1v5.3c0 .6-.4 1-1 1H73c-.5 0-1-.5-1-1z"/>
    <path fill="none" stroke="#4D4D4D" stroke-width=".5" stroke-miterlimit="10" d="M78.5 23.1v-.2c0-.6.4-1 1-1h1.9v2.2h-1.9c-.5 0-1-.5-1-1z"/>
    <path fill="none" stroke="#4D4D4D" stroke-width=".5" stroke-miterlimit="10" d="M186.1 28.5h-6.2c-1.1 0-2-.9-2-2v-14h10.2v14c0 1.1-.9 2-2 2z"/>
    <path fill="none" stroke="#4D4D4D" stroke-width=".5" stroke-miterlimit="10" d="M185.7 27h-5.3c-.6 0-1-.4-1-1v-8.2c0-.6.4-1 1-1h5.3c.6 0 1 .4 1 1V26c0 .6-.4 1-1 1z"/>
    <path fill="none" stroke="#4D4D4D" stroke-width=".5" stroke-miterlimit="10" d="M183.2 20.5h-.2c-.6 0-1-.4-1-1v-1.9h2.2v1.9c0 .6-.5 1-1 1z"/>
    <path fill="none" stroke="#4D4D4D" stroke-width=".5" stroke-miterlimit="10" d="M63 107.4v6.2c0 1.1-.9 2-2 2H47v-10.2h14c1.1 0 2 .9 2 2z"/>
    <path fill="none" stroke="#4D4D4D" stroke-width=".5" stroke-miterlimit="10" d="M61.5 107.7v5.3c0 .6-.4 1-1 1h-8.2c-.6 0-1-.4-1-1v-5.3c0-.6.4-1 1-1h8.2c.5 0 1 .5 1 1z"/>
    <path fill="none" stroke="#4D4D4D" stroke-width=".5" stroke-miterlimit="10" d="M55 110.3v.2c0 .6-.4 1-1 1h-1.9v-2.2H54c.5 0 1 .5 1 1z"/>
    <path fill="none" stroke="#4D4D4D" stroke-width=".5" stroke-miterlimit="10" d="M61.8 141.6l-8.4 1.5v-10l8.4 1.5c1.7.3 3 1.8 3 3.5 0 1.8-1.3 3.2-3 3.5z"/>
    <path fill="none" stroke="#4D4D4D" stroke-width=".5" stroke-miterlimit="10" d="M55.7 133.5v9.1"/>
    <path fill="none" stroke="#4D4D4D" stroke-width=".5" stroke-miterlimit="10" d="M58.9 139.1l-.4.1c-.5.1-1-.3-1-.8v-.4c0-.5.5-.9 1-.8l.4.1c.4.1.6.4.6.8v.3c.1.2-.2.6-.6.7z"/>
    <path fill="#4D4D4D" d="M297.4 181.7c3.9 0 7 3.1 7 7v15.2c0 1.1-.9 2-2 2H248c-1.1 0-2-.9-2-2v-15.2c0-3.9 3.1-7 7-7h44.4m0-.5H253c-4.1 0-7.5 3.4-7.5 7.5v15.2c0 1.4 1.1 2.5 2.5 2.5h54.4c1.4 0 2.5-1.1 2.5-2.5v-15.2c0-4.1-3.4-7.5-7.5-7.5"/>
    <path fill="#4D4D4D" d="M297.4 187.5c1.1 0 2 .9 2 2v16.4h-47v-16.4c0-1.1.9-2 2-2h43m0-.5h-43c-1.4 0-2.5 1.1-2.5 2.5v16.9h48v-16.9c0-1.4-1.2-2.5-2.5-2.5"/>
    <path fill="#4D4D4D" d="M257.8 200.3c.5 0 .9.4.9.9s-.4.9-.9.9-.9-.4-.9-.9.4-.9.9-.9m0-.5c-.8 0-1.4.6-1.4 1.4 0 .8.6 1.4 1.4 1.4.8 0 1.4-.6 1.4-1.4 0-.7-.6-1.4-1.4-1.4"/>
    <path fill="#4D4D4D" d="M257.8 191.2c.5 0 .9.4.9.9s-.4.9-.9.9-.9-.4-.9-.9.4-.9.9-.9m0-.5c-.8 0-1.4.6-1.4 1.4 0 .8.6 1.4 1.4 1.4.8 0 1.4-.6 1.4-1.4 0-.8-.6-1.4-1.4-1.4"/>
    <path fill="#4D4D4D" d="M266.7 200.3c.5 0 .9.4.9.9s-.4.9-.9.9-.9-.4-.9-.9c-.1-.5.3-.9.9-.9m0-.5c-.8 0-1.4.6-1.4 1.4 0 .8.6 1.4 1.4 1.4.8 0 1.4-.6 1.4-1.4 0-.7-.7-1.4-1.4-1.4"/>
    <path fill="#4D4D4D" d="M266.7 191.2c.5 0 .9.4.9.9s-.4.9-.9.9-.9-.4-.9-.9c-.1-.5.3-.9.9-.9m0-.5c-.8 0-1.4.6-1.4 1.4 0 .8.6 1.4 1.4 1.4.8 0 1.4-.6 1.4-1.4 0-.8-.7-1.4-1.4-1.4"/>
    <path fill="#4D4D4D" d="M275.6 200.3c.5 0 .9.4.9.9s-.4.9-.9.9-.9-.4-.9-.9.4-.9.9-.9m0-.5c-.8 0-1.4.6-1.4 1.4 0 .8.6 1.4 1.4 1.4.8 0 1.4-.6 1.4-1.4 0-.7-.6-1.4-1.4-1.4"/>
    <path fill="#4D4D4D" d="M275.6 191.2c.5 0 .9.4.9.9s-.4.9-.9.9-.9-.4-.9-.9.4-.9.9-.9m0-.5c-.8 0-1.4.6-1.4 1.4 0 .8.6 1.4 1.4 1.4.8 0 1.4-.6 1.4-1.4 0-.8-.6-1.4-1.4-1.4"/>
    <path fill="#4D4D4D" d="M284.7 200.3c.5 0 .9.4.9.9s-.4.9-.9.9-.9-.4-.9-.9c-.1-.5.4-.9.9-.9m0-.5c-.8 0-1.4.6-1.4 1.4 0 .8.6 1.4 1.4 1.4.8 0 1.4-.6 1.4-1.4 0-.7-.7-1.4-1.4-1.4"/>
    <path fill="#4D4D4D" d="M284.7 191.2c.5 0 .9.4.9.9s-.4.9-.9.9-.9-.4-.9-.9c-.1-.5.4-.9.9-.9m0-.5c-.8 0-1.4.6-1.4 1.4 0 .8.6 1.4 1.4 1.4.8 0 1.4-.6 1.4-1.4 0-.8-.7-1.4-1.4-1.4"/>
    <path fill="#4D4D4D" d="M293.6 200.3c.5 0 .9.4.9.9s-.4.9-.9.9-.9-.4-.9-.9c-.1-.5.3-.9.9-.9m0-.5c-.8 0-1.4.6-1.4 1.4 0 .8.6 1.4 1.4 1.4.8 0 1.4-.6 1.4-1.4 0-.7-.7-1.4-1.4-1.4"/>
    <path fill="#4D4D4D" d="M293.6 191.2c.5 0 .9.4.9.9s-.4.9-.9.9-.9-.4-.9-.9c-.1-.5.3-.9.9-.9m0-.5c-.8 0-1.4.6-1.4 1.4 0 .8.6 1.4 1.4 1.4.8 0 1.4-.6 1.4-1.4 0-.8-.7-1.4-1.4-1.4"/>
    <path fill="#4D4D4D" d="M447.2 181.7c3.9 0 7 3.1 7 7v15.2c0 1.1-.9 2-2 2h-54.4c-1.1 0-2-.9-2-2v-15.2c0-3.9 3.1-7 7-7h44.4m0-.5h-44.4c-4.1 0-7.5 3.4-7.5 7.5v15.2c0 1.4 1.1 2.5 2.5 2.5h54.4c1.4 0 2.5-1.1 2.5-2.5v-15.2c0-4.1-3.3-7.5-7.5-7.5"/>
    <path fill="#4D4D4D" d="M447.2 187.5c1.1 0 2 .9 2 2v16.4h-47v-16.4c0-1.1.9-2 2-2h43m0-.5h-43c-1.4 0-2.5 1.1-2.5 2.5v16.9h48v-16.9c0-1.4-1.1-2.5-2.5-2.5"/>
    <path fill="#4D4D4D" d="M407.7 200.3c.5 0 .9.4.9.9s-.4.9-.9.9-.9-.4-.9-.9c-.1-.5.3-.9.9-.9m0-.5c-.8 0-1.4.6-1.4 1.4 0 .8.6 1.4 1.4 1.4.8 0 1.4-.6 1.4-1.4 0-.7-.7-1.4-1.4-1.4"/>
    <path fill="#4D4D4D" d="M407.7 191.2c.5 0 .9.4.9.9s-.4.9-.9.9-.9-.4-.9-.9c-.1-.5.3-.9.9-.9m0-.5c-.8 0-1.4.6-1.4 1.4 0 .8.6 1.4 1.4 1.4.8 0 1.4-.6 1.4-1.4 0-.8-.7-1.4-1.4-1.4"/>
    <path fill="#4D4D4D" d="M416.5 200.3c.5 0 .9.4.9.9s-.4.9-.9.9-.9-.4-.9-.9.4-.9.9-.9m0-.5c-.8 0-1.4.6-1.4 1.4 0 .8.6 1.4 1.4 1.4.8 0 1.4-.6 1.4-1.4 0-.7-.6-1.4-1.4-1.4"/>
    <path fill="#4D4D4D" d="M416.5 191.2c.5 0 .9.4.9.9s-.4.9-.9.9-.9-.4-.9-.9.4-.9.9-.9m0-.5c-.8 0-1.4.6-1.4 1.4 0 .8.6 1.4 1.4 1.4.8 0 1.4-.6 1.4-1.4 0-.8-.6-1.4-1.4-1.4"/>
    <path fill="#4D4D4D" d="M425.4 200.3c.5 0 .9.4.9.9s-.4.9-.9.9-.9-.4-.9-.9.4-.9.9-.9m0-.5c-.8 0-1.4.6-1.4 1.4 0 .8.6 1.4 1.4 1.4.8 0 1.4-.6 1.4-1.4.1-.7-.6-1.4-1.4-1.4"/>
    <path fill="#4D4D4D" d="M425.4 191.2c.5 0 .9.4.9.9s-.4.9-.9.9-.9-.4-.9-.9.4-.9.9-.9m0-.5c-.8 0-1.4.6-1.4 1.4 0 .8.6 1.4 1.4 1.4.8 0 1.4-.6 1.4-1.4.1-.8-.6-1.4-1.4-1.4"/>
    <path fill="#4D4D4D" d="M434.5 200.3c.5 0 .9.4.9.9s-.4.9-.9.9-.9-.4-.9-.9.4-.9.9-.9m0-.5c-.8 0-1.4.6-1.4 1.4 0 .8.6 1.4 1.4 1.4.8 0 1.4-.6 1.4-1.4 0-.7-.6-1.4-1.4-1.4"/>
    <path fill="#4D4D4D" d="M434.5 191.2c.5 0 .9.4.9.9s-.4.9-.9.9-.9-.4-.9-.9.4-.9.9-.9m0-.5c-.8 0-1.4.6-1.4 1.4 0 .8.6 1.4 1.4 1.4.8 0 1.4-.6 1.4-1.4 0-.8-.6-1.4-1.4-1.4"/>
    <path fill="#4D4D4D" d="M443.4 200.3c.5 0 .9.4.9.9s-.4.9-.9.9-.9-.4-.9-.9.4-.9.9-.9m0-.5c-.8 0-1.4.6-1.4 1.4 0 .8.6 1.4 1.4 1.4.8 0 1.4-.6 1.4-1.4 0-.7-.6-1.4-1.4-1.4"/>
    <path fill="#4D4D4D" d="M443.4 191.2c.5 0 .9.4.9.9s-.4.9-.9.9-.9-.4-.9-.9.4-.9.9-.9m0-.5c-.8 0-1.4.6-1.4 1.4 0 .8.6 1.4 1.4 1.4.8 0 1.4-.6 1.4-1.4 0-.8-.6-1.4-1.4-1.4"/>
    <path fill="#4D4D4D" d="M530.6 288.1c1.1 0 2 .9 2 2v15.2c0 3.9-3.1 7-7 7h-35.4c-3.9 0-7-3.1-7-7v-15.2c0-1.1.9-2 2-2h45.4m0-.5h-45.4c-1.4 0-2.5 1.1-2.5 2.5v15.2c0 4.1 3.4 7.5 7.5 7.5h35.4c4.1 0 7.5-3.4 7.5-7.5v-15.2c0-1.4-1.1-2.5-2.5-2.5"/>
    <path fill="#4D4D4D" d="M526.2 288.1v16.4c0 1.1-.9 2-2 2h-34c-1.1 0-2-.9-2-2v-16.4h38m.5-.5h-39v16.9c0 1.4 1.1 2.5 2.5 2.5h34c1.4 0 2.5-1.1 2.5-2.5v-16.9z"/>
    <path fill="#4D4D4D" d="M520.7 291.8c.5 0 .9.4.9.9s-.4.9-.9.9-.9-.4-.9-.9.4-.9.9-.9m0-.5c-.8 0-1.4.6-1.4 1.4 0 .8.6 1.4 1.4 1.4.8 0 1.4-.6 1.4-1.4.1-.8-.6-1.4-1.4-1.4"/>
    <path fill="#4D4D4D" d="M520.7 300.9c.5 0 .9.4.9.9s-.4.9-.9.9-.9-.4-.9-.9.4-.9.9-.9m0-.5c-.8 0-1.4.6-1.4 1.4 0 .8.6 1.4 1.4 1.4.8 0 1.4-.6 1.4-1.4.1-.8-.6-1.4-1.4-1.4"/>
    <path fill="#4D4D4D" d="M512 291.8c.5 0 .9.4.9.9s-.4.9-.9.9-.9-.4-.9-.9c-.1-.5.4-.9.9-.9m0-.5c-.8 0-1.4.6-1.4 1.4 0 .8.6 1.4 1.4 1.4.8 0 1.4-.6 1.4-1.4 0-.8-.7-1.4-1.4-1.4"/>
    <path fill="#4D4D4D" d="M512 300.9c.5 0 .9.4.9.9s-.4.9-.9.9-.9-.4-.9-.9c-.1-.5.4-.9.9-.9m0-.5c-.8 0-1.4.6-1.4 1.4 0 .8.6 1.4 1.4 1.4.8 0 1.4-.6 1.4-1.4 0-.8-.7-1.4-1.4-1.4"/>
    <path fill="#4D4D4D" d="M502.9 291.8c.5 0 .9.4.9.9s-.4.9-.9.9-.9-.4-.9-.9.4-.9.9-.9m0-.5c-.8 0-1.4.6-1.4 1.4 0 .8.6 1.4 1.4 1.4.8 0 1.4-.6 1.4-1.4 0-.8-.6-1.4-1.4-1.4"/>
    <path fill="#4D4D4D" d="M502.9 300.9c.5 0 .9.4.9.9s-.4.9-.9.9-.9-.4-.9-.9.4-.9.9-.9m0-.5c-.8 0-1.4.6-1.4 1.4 0 .8.6 1.4 1.4 1.4.8 0 1.4-.6 1.4-1.4 0-.8-.6-1.4-1.4-1.4"/>
    <path fill="#4D4D4D" d="M494 291.8c.5 0 .9.4.9.9s-.4.9-.9.9-.9-.4-.9-.9.4-.9.9-.9m0-.5c-.8 0-1.4.6-1.4 1.4 0 .8.6 1.4 1.4 1.4.8 0 1.4-.6 1.4-1.4 0-.8-.6-1.4-1.4-1.4"/>
    <path fill="#4D4D4D" d="M494 300.9c.5 0 .9.4.9.9s-.4.9-.9.9-.9-.4-.9-.9.4-.9.9-.9m0-.5c-.8 0-1.4.6-1.4 1.4 0 .8.6 1.4 1.4 1.4.8 0 1.4-.6 1.4-1.4 0-.8-.6-1.4-1.4-1.4"/>
    <path fill="#4D4D4D" d="M65.8 282.7c1.1 0 2 .9 2 2v54.4c0 1.1-.9 2-2 2H50.6c-3.9 0-7-3.1-7-7v-44.4c0-3.9 3.1-7 7-7h15.2m0-.5H50.6c-4.1 0-7.5 3.4-7.5 7.5v44.4c0 4.1 3.4 7.5 7.5 7.5h15.2c1.4 0 2.5-1.1 2.5-2.5v-54.4c0-1.4-1.1-2.5-2.5-2.5"/>
    <path fill="#4D4D4D" d="M67.8 287.8v47H51.4c-1.1 0-2-.9-2-2v-43c0-1.1.9-2 2-2h16.4m.5-.5H51.4c-1.4 0-2.5 1.1-2.5 2.5v43c0 1.4 1.1 2.5 2.5 2.5h16.9v-48z"/>
    <path fill="#4D4D4D" d="M63.2 328.4c.5 0 .9.4.9.9s-.4.9-.9.9-.9-.4-.9-.9.4-.9.9-.9m0-.5c-.8 0-1.4.6-1.4 1.4 0 .8.6 1.4 1.4 1.4.8 0 1.4-.6 1.4-1.4 0-.8-.6-1.4-1.4-1.4"/>
    <path fill="#4D4D4D" d="M54.1 328.4c.5 0 .9.4.9.9s-.4.9-.9.9-.9-.4-.9-.9c-.1-.5.3-.9.9-.9m0-.5c-.8 0-1.4.6-1.4 1.4 0 .8.6 1.4 1.4 1.4.8 0 1.4-.6 1.4-1.4 0-.8-.7-1.4-1.4-1.4"/>
    <path fill="#4D4D4D" d="M63.2 319.6c.5 0 .9.4.9.9s-.4.9-.9.9-.9-.4-.9-.9.4-.9.9-.9m0-.5c-.8 0-1.4.6-1.4 1.4s.6 1.4 1.4 1.4c.8 0 1.4-.6 1.4-1.4s-.6-1.4-1.4-1.4"/>
    <path fill="#4D4D4D" d="M54.1 319.6c.5 0 .9.4.9.9s-.4.9-.9.9-.9-.4-.9-.9c-.1-.5.3-.9.9-.9m0-.5c-.8 0-1.4.6-1.4 1.4s.6 1.4 1.4 1.4c.8 0 1.4-.6 1.4-1.4s-.7-1.4-1.4-1.4"/>
    <path fill="#4D4D4D" d="M63.2 310.6c.5 0 .9.4.9.9s-.4.9-.9.9-.9-.4-.9-.9.4-.9.9-.9m0-.5c-.8 0-1.4.6-1.4 1.4 0 .8.6 1.4 1.4 1.4.8 0 1.4-.6 1.4-1.4 0-.7-.6-1.4-1.4-1.4"/>
    <path fill="#4D4D4D" d="M54.1 310.6c.5 0 .9.4.9.9s-.4.9-.9.9-.9-.4-.9-.9c-.1-.5.3-.9.9-.9m0-.5c-.8 0-1.4.6-1.4 1.4 0 .8.6 1.4 1.4 1.4.8 0 1.4-.6 1.4-1.4 0-.7-.7-1.4-1.4-1.4"/>
    <path fill="#4D4D4D" d="M63.2 301.5c.5 0 .9.4.9.9s-.4.9-.9.9-.9-.4-.9-.9c0-.4.4-.9.9-.9m0-.5c-.8 0-1.4.6-1.4 1.4s.6 1.4 1.4 1.4c.8 0 1.4-.6 1.4-1.4s-.6-1.4-1.4-1.4"/>
    <path fill="#4D4D4D" d="M54.1 301.5c.5 0 .9.4.9.9s-.4.9-.9.9-.9-.4-.9-.9c-.1-.4.3-.9.9-.9m0-.5c-.8 0-1.4.6-1.4 1.4s.6 1.4 1.4 1.4c.8 0 1.4-.6 1.4-1.4s-.7-1.4-1.4-1.4"/>
    <path fill="#4D4D4D" d="M63.2 292.7c.5 0 .9.4.9.9s-.4.9-.9.9-.9-.4-.9-.9.4-.9.9-.9m0-.5c-.8 0-1.4.6-1.4 1.4 0 .8.6 1.4 1.4 1.4.8 0 1.4-.6 1.4-1.4 0-.8-.6-1.4-1.4-1.4"/>
    <path fill="#4D4D4D" d="M54.1 292.7c.5 0 .9.4.9.9s-.4.9-.9.9-.9-.4-.9-.9c-.1-.5.3-.9.9-.9m0-.5c-.8 0-1.4.6-1.4 1.4 0 .8.6 1.4 1.4 1.4.8 0 1.4-.6 1.4-1.4 0-.8-.7-1.4-1.4-1.4"/>
    <path fill="#4D4D4D" d="M92.9 242.5c3.9 0 7 3.1 7 7v15.2c0 1.1-.9 2-2 2H70.7c-1.1 0-2-.9-2-2v-15.2c0-3.9 3.1-7 7-7h17.2m0-.5H75.7c-4.1 0-7.5 3.4-7.5 7.5v15.2c0 1.4 1.1 2.5 2.5 2.5h27.2c1.4 0 2.5-1.1 2.5-2.5v-15.2c0-4.1-3.4-7.5-7.5-7.5"/>
    <path fill="#4D4D4D" d="M92.4 248.3c1.1 0 2 .9 2 2v16.4h-20v-16.4c0-1.1.9-2 2-2h16m0-.5h-16c-1.4 0-2.5 1.1-2.5 2.5v16.9h21v-16.9c0-1.3-1.2-2.5-2.5-2.5"/>
    <path fill="#4D4D4D" d="M88.7 260.3c.5 0 .9.4.9.9s-.4.9-.9.9-.9-.4-.9-.9.4-.9.9-.9m0-.5c-.8 0-1.4.6-1.4 1.4s.6 1.4 1.4 1.4c.8 0 1.4-.6 1.4-1.4s-.6-1.4-1.4-1.4"/>
    <path fill="#4D4D4D" d="M79.6 260.3c.5 0 .9.4.9.9s-.4.9-.9.9-.9-.4-.9-.9.4-.9.9-.9m0-.5c-.8 0-1.4.6-1.4 1.4s.6 1.4 1.4 1.4c.8 0 1.4-.6 1.4-1.4s-.6-1.4-1.4-1.4"/>
    <path fill="#4D4D4D" d="M88.7 252.4c.5 0 .9.4.9.9s-.4.9-.9.9-.9-.4-.9-.9.4-.9.9-.9m0-.5c-.8 0-1.4.6-1.4 1.4s.6 1.4 1.4 1.4c.8 0 1.4-.6 1.4-1.4s-.6-1.4-1.4-1.4"/>
    <path fill="#4D4D4D" d="M79.6 252.4c.5 0 .9.4.9.9s-.4.9-.9.9-.9-.4-.9-.9.4-.9.9-.9m0-.5c-.8 0-1.4.6-1.4 1.4s.6 1.4 1.4 1.4c.8 0 1.4-.6 1.4-1.4s-.6-1.4-1.4-1.4"/>
    <circle fill="none" stroke="#4D4D4D" stroke-width=".5" stroke-miterlimit="10" cx="497.4" cy="48.9" r="11.2"/>
    <circle fill="none" stroke="#4D4D4D" stroke-width=".5" stroke-miterlimit="10" cx="589.7" cy="48.9" r="11.2"/>
    <path fill="none" stroke="#4D4D4D" stroke-width=".5" stroke-miterlimit="10" d="M513.4 43l-9.5-9.5c-.8-.8-.8-2.1.1-2.9l10.2-9.1c.8-.7 2-.7 2.7.1l8.4 8.4c.8.8.8 2 .1 2.7l-9.1 10.2c-.8.8-2.1.9-2.9.1z"/>
    <path fill="none" stroke="#4D4D4D" stroke-width=".5" stroke-miterlimit="10" d="M512.1 41.7l-7-7c-.6-.6-.6-1.6.1-2.1l7.5-6.7c.6-.5 1.5-.5 2 .1l6.2 6.2c.5.5.6 1.4.1 2l-6.7 7.5c-.6.6-1.6.6-2.2 0z"/>
    <path fill="none" stroke="#4D4D4D" stroke-width=".5" stroke-miterlimit="10" d="M602.3 38.7l-12.1-5.8c-1-.5-1.4-1.8-.9-2.8l6.6-12c.5-.9 1.7-1.3 2.6-.8l10.7 5.1c1 .5 1.4 1.6 1 2.6L605 37.6c-.4 1.1-1.7 1.6-2.7 1.1z"/>
    <path fill="none" stroke="#4D4D4D" stroke-width=".5" stroke-miterlimit="10" d="M600.7 37.9l-8.9-4.2c-.8-.4-1.1-1.3-.7-2l4.8-8.8c.4-.7 1.2-1 1.9-.6l7.8 3.8c.7.3 1 1.2.7 1.9l-3.8 9.3c-.2.6-1.1.9-1.8.6z"/>
    <path fill="none" stroke="#4D4D4D" stroke-width=".5" stroke-miterlimit="10" d="M580.6 35.3L575 47.5c-.5 1-1.7 1.5-2.8.9l-12-6.4c-.9-.5-1.3-1.6-.9-2.6l5-10.8c.4-1 1.6-1.4 2.5-1l12.7 5c1.1.4 1.6 1.6 1.1 2.7z"/>
    <path fill="none" stroke="#4D4D4D" stroke-width=".5" stroke-miterlimit="10" d="M579.9 36.9l-4.1 8.9c-.4.8-1.3 1.1-2 .7l-8.9-4.7c-.7-.4-1-1.2-.6-1.9l3.6-7.9c.3-.7 1.1-1 1.9-.8l9.3 3.7c.8.3 1.1 1.2.8 2z"/>
    <path fill="none" stroke="#4D4D4D" stroke-width=".5" stroke-miterlimit="10" d="M605.1 56.9l-1.4-13.4c-.1-1.1.8-2.1 1.9-2.2l13.7-.6c1.1 0 2 .7 2.1 1.8l1.2 11.8c.1 1.1-.6 2-1.7 2.2l-13.5 2.2c-1.1.2-2.2-.6-2.3-1.8z"/>
    <path fill="none" stroke="#4D4D4D" stroke-width=".5" stroke-miterlimit="10" d="M604.9 55.1l-1-9.8c-.1-.8.5-1.6 1.4-1.6l10-.5c.8 0 1.4.5 1.5 1.3l.9 8.7c.1.8-.5 1.5-1.2 1.6l-9.9 1.6c-.8.2-1.6-.4-1.7-1.3z"/>
    <path fill="none" stroke="#4D4D4D" stroke-width=".5" stroke-miterlimit="10" d="M584.2 65.3l13.4-1c1.1-.1 2.1.8 2.1 2L600 80c0 1.1-.8 1.9-1.9 2l-11.9.9c-1.1.1-2-.7-2.1-1.7l-1.8-13.6c-.1-1.2.8-2.2 1.9-2.3z"/>
    <path fill="none" stroke="#4D4D4D" stroke-width=".5" stroke-miterlimit="10" d="M586 65.2l9.8-.7c.8-.1 1.6.6 1.6 1.4l.2 10c0 .8-.6 1.4-1.4 1.5l-8.7.6c-.8.1-1.5-.5-1.6-1.3l-1.3-9.9c0-.8.6-1.6 1.4-1.6z"/>
    <path fill="none" stroke="#4D4D4D" stroke-width=".5" stroke-miterlimit="10" d="M510.4 60.4l2.9-13.1c.2-1.1 1.4-1.8 2.5-1.5l13.2 3.7c1 .3 1.6 1.3 1.4 2.4l-2.6 11.6c-.2 1-1.2 1.7-2.3 1.5L512 62.8c-1.1-.2-1.8-1.3-1.6-2.4z"/>
    <path fill="none" stroke="#4D4D4D" stroke-width=".5" stroke-miterlimit="10" d="M510.8 58.7l2.1-9.6c.2-.8 1-1.3 1.8-1.1l9.7 2.7c.7.2 1.2 1 1 1.7l-1.9 8.5c-.2.8-.9 1.3-1.7 1.1l-9.9-1.6c-.7-.1-1.3-.9-1.1-1.7z"/>
    <path fill="none" stroke="#4D4D4D" stroke-width=".5" stroke-miterlimit="10" d="M488.2 35.8l-9.6 9.4c-.8.8-2.1.8-2.9-.1l-9.1-10.3c-.7-.8-.7-2 .1-2.7l8.5-8.4c.8-.7 2-.8 2.7-.1l10.2 9.2c.9.8 1 2.2.1 3z"/>
    <path fill="none" stroke="#4D4D4D" stroke-width=".5" stroke-miterlimit="10" d="M487 37l-7 6.9c-.6.6-1.6.6-2.1-.1l-6.6-7.5c-.5-.6-.5-1.5.1-2l6.2-6.1c.6-.5 1.4-.6 2 0l7.4 6.7c.5.6.6 1.5 0 2.1z"/>
    <path fill="none" stroke="#4D4D4D" stroke-width=".5" stroke-miterlimit="10" d="M487.4 60.3l12.3 5.5c1 .5 1.5 1.7 1 2.7l-6.3 12.2c-.5.9-1.6 1.3-2.6.9l-10.9-4.8c-1-.4-1.4-1.5-1.1-2.5l4.9-12.8c.4-1.2 1.6-1.7 2.7-1.2z"/>
    <path fill="none" stroke="#4D4D4D" stroke-width=".5" stroke-miterlimit="10" d="M489 61l9 4c.8.3 1.1 1.3.7 2l-4.6 8.9c-.4.7-1.2 1-1.9.7l-8-3.5c-.7-.3-1-1.1-.8-1.9l3.6-9.4c.4-.8 1.2-1.1 2-.8z"/>
    <path fill="#4D4D4D" d="M205.1 77.6H135V60.1h70.1v17.5zm.5-18h-71.1v18.5h71.1V59.6z"/>
    <circle fill="none" stroke="#4D4D4D" stroke-width=".5" stroke-miterlimit="10" cx="145.7" cy="73.1" r="2.3"/>
    <circle fill="none" stroke="#4D4D4D" stroke-width=".5" stroke-miterlimit="10" cx="145.7" cy="66.1" r="3.2"/>
    <path fill="none" stroke="#4D4D4D" stroke-width=".5" stroke-miterlimit="10" d="M169.9 74.8h-7.6c-1.1 0-2-.9-2-2v-8c0-1.1.9-2 2-2h7.6c1.1 0 2 .9 2 2v8c0 1.1-.9 2-2 2z"/>
    <path fill="none" stroke="#4D4D4D" stroke-width=".5" stroke-miterlimit="10" d="M176.6 74.8h-2.1c-.7 0-1.3-.6-1.3-1.3V64c0-.7.6-1.3 1.3-1.3h2.1c.7 0 1.3.6 1.3 1.3v9.5c0 .7-.6 1.3-1.3 1.3z"/>
    <circle fill="none" stroke="#4D4D4D" stroke-width=".5" stroke-miterlimit="10" cx="170.4" cy="68.8" r=".7"/>
    <circle fill="none" stroke="#4D4D4D" stroke-width=".5" stroke-miterlimit="10" cx="174.5" cy="68.8" r=".6"/>
    <path fill="none" stroke="#4D4D4D" stroke-width=".5" stroke-linecap="round" stroke-miterlimit="10" d="M193.1 69.2h6.2"/>
    <path fill="none" stroke="#4D4D4D" stroke-width=".5" stroke-linecap="round" stroke-miterlimit="10" d="M195.1 66.1l2 6"/>
    <path fill="none" stroke="#4D4D4D" stroke-width=".5" stroke-linecap="round" stroke-miterlimit="10" d="M197.1 66.1l-2 6"/>
    <path fill="none" stroke="#4D4D4D" stroke-width=".5" stroke-linecap="round" stroke-miterlimit="10" d="M193.6 67.2l5.3 4"/>
    <path fill="none" stroke="#4D4D4D" stroke-width=".5" stroke-linecap="round" stroke-miterlimit="10" d="M193.6 71.2l5.3-4"/>
    <path fill="none" stroke="#939393" stroke-width=".5" stroke-linecap="round" stroke-miterlimit="10" stroke-dasharray="2,1" d="M188.1 60.1v17.5"/>
    <path fill="#4D4D4D" d="M204.7 186.5h-19.9V164h19.9v22.5zm.5-23h-20.9V187h20.9v-23.5z"/>
    <path fill="#4D4D4D" d="M150.8 210.2h-14.2V107.3h14.2v102.9zm.5-103.4h-15.2v103.9h15.2V106.8z"/>
    <path fill="#4D4D4D" d="M160.8 151.9c4 0 7.2 3.2 7.2 7.2s-3.2 7.2-7.2 7.2-7.2-3.2-7.2-7.2c.1-4 3.3-7.2 7.2-7.2m0-.5c-4.2 0-7.7 3.4-7.7 7.7 0 4.2 3.4 7.7 7.7 7.7 4.2 0 7.7-3.4 7.7-7.7 0-4.2-3.5-7.7-7.7-7.7"/>
    <path fill="#4D4D4D" d="M160.8 171.7c4 0 7.2 3.2 7.2 7.2s-3.2 7.2-7.2 7.2-7.2-3.2-7.2-7.2c.1-4 3.3-7.2 7.2-7.2m0-.5c-4.2 0-7.7 3.4-7.7 7.7 0 4.2 3.4 7.7 7.7 7.7 4.2 0 7.7-3.4 7.7-7.7 0-4.3-3.5-7.7-7.7-7.7"/>
    <path fill="#4D4D4D" d="M160.8 191.4c4 0 7.2 3.2 7.2 7.2s-3.2 7.2-7.2 7.2-7.2-3.2-7.2-7.2c.1-4 3.3-7.2 7.2-7.2m0-.5c-4.2 0-7.7 3.4-7.7 7.7 0 4.2 3.4 7.7 7.7 7.7 4.2 0 7.7-3.4 7.7-7.7 0-4.3-3.5-7.7-7.7-7.7"/>
    <path fill="#4D4D4D" d="M196.3 145c3.6 0 6.5 2.9 6.5 6.5v7.3c0 1.2-1 2.2-2.2 2.2h-12.1c-1.2 0-2.2-1-2.2-2.2v-7.3c0-3.6 2.9-6.5 6.5-6.5h3.5m0-.5h-3.6c-3.8 0-7 3.1-7 7v7.3c0 1.5 1.2 2.7 2.7 2.7h12.1c1.5 0 2.7-1.2 2.7-2.7v-7.3c.1-3.8-3-7-6.9-7"/>
    <path fill="none" stroke="#4D4D4D" stroke-width=".5" stroke-linecap="round" stroke-miterlimit="10" d="M187.8 154.8v-3c0-2.9 2.4-5.3 5.3-5.3h3c2.9 0 5.3 2.4 5.3 5.3v3"/>
    <path fill="#4D4D4D" d="M200.6 188.8c1.2 0 2.2 1 2.2 2.2v7.3c0 3.6-2.9 6.5-6.5 6.5h-3.6c-3.6 0-6.5-2.9-6.5-6.5V191c0-1.2 1-2.2 2.2-2.2h12.2m0-.5h-12.1c-1.5 0-2.7 1.2-2.7 2.7v7.3c0 3.8 3.1 7 7 7h3.6c3.8 0 7-3.1 7-7V191c-.1-1.5-1.3-2.7-2.8-2.7"/>
    <path fill="none" stroke="#4D4D4D" stroke-width=".5" stroke-linecap="round" stroke-miterlimit="10" d="M201.3 195.1v3c0 2.9-2.4 5.3-5.3 5.3h-3c-2.9 0-5.3-2.4-5.3-5.3v-3"/>
    <path fill="#4D4D4D" d="M160.8 132.2c4 0 7.2 3.2 7.2 7.2s-3.2 7.2-7.2 7.2-7.2-3.2-7.2-7.2c.1-4 3.3-7.2 7.2-7.2m0-.5c-4.2 0-7.7 3.4-7.7 7.7 0 4.2 3.4 7.7 7.7 7.7 4.2 0 7.7-3.4 7.7-7.7 0-4.3-3.5-7.7-7.7-7.7"/>
    <path fill="none" stroke="#4D4D4D" stroke-width=".5" stroke-linecap="round" stroke-miterlimit="10" d="M160.8 133.9c3 0 5.5 2.5 5.5 5.5s-2.5 5.5-5.5 5.5"/>
    <path fill="#4D4D4D" d="M160.8 111.5c4 0 7.2 3.2 7.2 7.2s-3.2 7.2-7.2 7.2-7.2-3.2-7.2-7.2c.1-4 3.3-7.2 7.2-7.2m0-.5c-4.2 0-7.7 3.4-7.7 7.7 0 4.2 3.4 7.7 7.7 7.7 4.2 0 7.7-3.4 7.7-7.7 0-4.2-3.5-7.7-7.7-7.7"/>
    <path fill="none" stroke="#4D4D4D" stroke-width=".5" stroke-linecap="round" stroke-miterlimit="10" d="M160.8 113.2c3 0 5.5 2.5 5.5 5.5s-2.5 5.5-5.5 5.5"/>
    <path fill="none" stroke="#4D4D4D" stroke-width=".5" stroke-linecap="round" stroke-miterlimit="10" d="M160.8 153.6c3 0 5.5 2.5 5.5 5.5s-2.5 5.5-5.5 5.5"/>
    <path fill="none" stroke="#4D4D4D" stroke-width=".5" stroke-linecap="round" stroke-miterlimit="10" d="M160.8 173.4c3 0 5.5 2.5 5.5 5.5s-2.5 5.5-5.5 5.5"/>
    <path fill="none" stroke="#4D4D4D" stroke-width=".5" stroke-linecap="round" stroke-miterlimit="10" d="M160.8 193.1c3 0 5.5 2.5 5.5 5.5s-2.5 5.5-5.5 5.5"/>
    <path fill="none" stroke="#4D4D4D" stroke-width=".5" stroke-miterlimit="10" d="M94 123.7v-16.6c-9.5 0-17.1 7.5-17.1 16.6"/>
    <path fill="none" stroke="#4D4D4D" stroke-width=".5" stroke-miterlimit="10" d="M95.7 206.1H73.5c0-12.6 9.9-22.8 22.2-22.8"/>
    <path fill="none" stroke="#4D4D4D" stroke-width=".5" stroke-miterlimit="10" d="M132.1 96V72c-13.7 0-24.7 10.8-24.7 24"/>
    <circle fill="none" stroke="#4D4D4D" stroke-width=".5" stroke-miterlimit="10" cx="456.7" cy="175" r="1.7"/>
    <circle fill="none" stroke="#4D4D4D" stroke-width=".5" stroke-miterlimit="10" cx="451.7" cy="175" r="1.7"/>
    <circle fill="none" stroke="#4D4D4D" stroke-width=".5" stroke-miterlimit="10" cx="446.7" cy="175" r="1.7"/>
    <circle fill="none" stroke="#4D4D4D" stroke-width=".5" stroke-miterlimit="10" cx="441.7" cy="175" r="1.7"/>
    <circle fill="none" stroke="#4D4D4D" stroke-width=".5" stroke-miterlimit="10" cx="436.7" cy="175" r="1.7"/>
    <circle fill="none" stroke="#4D4D4D" stroke-width=".5" stroke-miterlimit="10" cx="431.7" cy="175" r="1.7"/>
    <circle fill="none" stroke="#4D4D4D" stroke-width=".5" stroke-miterlimit="10" cx="426.7" cy="175" r="1.7"/>
    <circle fill="none" stroke="#4D4D4D" stroke-width=".5" stroke-miterlimit="10" cx="421.7" cy="175" r="1.7"/>
    <circle fill="none" stroke="#4D4D4D" stroke-width=".5" stroke-miterlimit="10" cx="416.7" cy="175" r="1.7"/>
    <circle fill="none" stroke="#4D4D4D" stroke-width=".5" stroke-miterlimit="10" cx="411.7" cy="175" r="1.7"/>
    <circle fill="none" stroke="#4D4D4D" stroke-width=".5" stroke-miterlimit="10" cx="406.7" cy="175" r="1.7"/>
    <circle fill="none" stroke="#4D4D4D" stroke-width=".5" stroke-miterlimit="10" cx="401.7" cy="175" r="1.7"/>
    <circle fill="none" stroke="#4D4D4D" stroke-width=".5" stroke-miterlimit="10" cx="396.7" cy="175" r="1.7"/>
    <circle fill="none" stroke="#4D4D4D" stroke-width=".5" stroke-miterlimit="10" cx="391.7" cy="175" r="1.7"/>
    <circle fill="none" stroke="#4D4D4D" stroke-width=".5" stroke-miterlimit="10" cx="386.7" cy="175" r="1.7"/>
    <circle fill="none" stroke="#4D4D4D" stroke-width=".5" stroke-miterlimit="10" cx="381.7" cy="175" r="1.7"/>
    <circle fill="none" stroke="#4D4D4D" stroke-width=".5" stroke-miterlimit="10" cx="376.7" cy="175" r="1.7"/>
    <circle fill="none" stroke="#4D4D4D" stroke-width=".5" stroke-miterlimit="10" cx="371.7" cy="175" r="1.7"/>
    <circle fill="none" stroke="#4D4D4D" stroke-width=".5" stroke-miterlimit="10" cx="366.7" cy="175" r="1.7"/>
    <circle fill="none" stroke="#4D4D4D" stroke-width=".5" stroke-miterlimit="10" cx="361.7" cy="175" r="1.7"/>
    <circle fill="none" stroke="#4D4D4D" stroke-width=".5" stroke-miterlimit="10" cx="356.7" cy="175" r="1.7"/>
    <circle fill="none" stroke="#4D4D4D" stroke-width=".5" stroke-miterlimit="10" cx="351.7" cy="175" r="1.7"/>
    <circle fill="none" stroke="#4D4D4D" stroke-width=".5" stroke-miterlimit="10" cx="346.7" cy="175" r="1.7"/>
    <circle fill="none" stroke="#4D4D4D" stroke-width=".5" stroke-miterlimit="10" cx="341.7" cy="175" r="1.7"/>
    <circle fill="none" stroke="#4D4D4D" stroke-width=".5" stroke-miterlimit="10" cx="336.7" cy="175" r="1.7"/>
    <circle fill="none" stroke="#4D4D4D" stroke-width=".5" stroke-miterlimit="10" cx="331.7" cy="175" r="1.7"/>
    <circle fill="none" stroke="#4D4D4D" stroke-width=".5" stroke-miterlimit="10" cx="326.7" cy="175" r="1.7"/>
    <circle fill="none" stroke="#4D4D4D" stroke-width=".5" stroke-miterlimit="10" cx="321.7" cy="175" r="1.7"/>
    <circle fill="none" stroke="#4D4D4D" stroke-width=".5" stroke-miterlimit="10" cx="316.7" cy="175" r="1.7"/>
    <circle fill="none" stroke="#4D4D4D" stroke-width=".5" stroke-miterlimit="10" cx="311.7" cy="175" r="1.7"/>
    <circle fill="none" stroke="#4D4D4D" stroke-width=".5" stroke-miterlimit="10" cx="306.7" cy="175" r="1.7"/>
    <circle fill="none" stroke="#4D4D4D" stroke-width=".5" stroke-miterlimit="10" cx="301.7" cy="175" r="1.7"/>
    <circle fill="none" stroke="#4D4D4D" stroke-width=".5" stroke-miterlimit="10" cx="296.7" cy="175" r="1.7"/>
    <circle fill="none" stroke="#4D4D4D" stroke-width=".5" stroke-miterlimit="10" cx="291.7" cy="175" r="1.7"/>
    <circle fill="none" stroke="#4D4D4D" stroke-width=".5" stroke-miterlimit="10" cx="286.7" cy="175" r="1.7"/>
    <circle fill="none" stroke="#4D4D4D" stroke-width=".5" stroke-miterlimit="10" cx="281.7" cy="175" r="1.7"/>
    <circle fill="none" stroke="#4D4D4D" stroke-width=".5" stroke-miterlimit="10" cx="276.7" cy="175" r="1.7"/>
    <circle fill="none" stroke="#4D4D4D" stroke-width=".5" stroke-miterlimit="10" cx="271.7" cy="175" r="1.7"/>
    <circle fill="none" stroke="#4D4D4D" stroke-width=".5" stroke-miterlimit="10" cx="266.7" cy="175" r="1.7"/>
    <circle fill="none" stroke="#4D4D4D" stroke-width=".5" stroke-miterlimit="10" cx="261.7" cy="175" r="1.7"/>
    <circle fill="none" stroke="#4D4D4D" stroke-width=".5" stroke-miterlimit="10" cx="256.7" cy="175" r="1.7"/>
    <circle fill="none" stroke="#4D4D4D" stroke-width=".5" stroke-miterlimit="10" cx="251.7" cy="175" r="1.7"/>
    <circle fill="none" stroke="#4D4D4D" stroke-width=".5" stroke-miterlimit="10" cx="246.7" cy="175" r="1.7"/>
    <circle fill="none" stroke="#4D4D4D" stroke-width=".5" stroke-miterlimit="10" cx="241.7" cy="175" r="1.7"/>
    <path fill="none" stroke="#4D4D4D" stroke-width=".5" stroke-miterlimit="10" d="M490.1 256.8h37.3v3.5h-37.3z"/>
    <path fill="none" stroke="#4D4D4D" stroke-width=".5" stroke-miterlimit="10" d="M440.1 275.4h20.8v39.7h-20.8z"/>
    <path fill="none" stroke="#4D4D4D" stroke-width=".5" stroke-miterlimit="10" d="M441.6 278.3h17.7v33.9h-17.7z"/>
    <path fill="none" stroke="#4D4D4D" stroke-width=".5" stroke-linecap="round" stroke-miterlimit="10" d="M429.5 280.1h36.9"/>
    <path fill="none" stroke="#4D4D4D" stroke-width=".5" stroke-linecap="round" stroke-miterlimit="10" d="M428.7 285.1h36.9"/>
    <path fill="none" stroke="#4D4D4D" stroke-width=".5" stroke-linecap="round" stroke-miterlimit="10" d="M433.9 289.1h36.9"/>
    <path fill="none" stroke="#4D4D4D" stroke-width=".5" stroke-linecap="round" stroke-miterlimit="10" d="M428.7 293.1h36.9"/>
    <path fill="none" stroke="#4D4D4D" stroke-width=".5" stroke-linecap="round" stroke-miterlimit="10" d="M433.9 297.1h36.9"/>
    <path fill="none" stroke="#4D4D4D" stroke-width=".5" stroke-linecap="round" stroke-miterlimit="10" d="M432.9 302.1h36.9"/>
    <path fill="none" stroke="#4D4D4D" stroke-width=".5" stroke-linecap="round" stroke-miterlimit="10" d="M434.8 306.1h36.8"/>
    <path fill="none" stroke="#4D4D4D" stroke-width=".5" stroke-linecap="round" stroke-miterlimit="10" d="M428.3 310.1h36.9"/>
    <path fill="none" stroke="#4D4D4D" stroke-width=".25" stroke-linecap="round" stroke-miterlimit="10" d="M405.9 251.9h142.3v86.4H405.9z"/>
</svg>
