<svg width="80" height="40" viewBox="0 0 80 40" xmlns="http://www.w3.org/2000/svg">
    <title>
        m_3
    </title>
    <g fill="none" fill-rule="evenodd">
        <path fill="#FCC30B" d="M16.06 30.56l16.06 9.344 15.956-9.344-16.06-9.343z"/>
        <path fill="#FFD527" d="M0 21.217l16.06 9.344 15.956-9.344-16.06-9.343z"/>
        <path fill="#FCC30B" d="M64.032 21.217l-16.06-9.343-15.956 9.343 16.06 9.343z"/>
        <path fill="#FCC30B" d="M47.972 11.874l16.06 9.343 15.959-9.345-16.06-9.343z"/>
        <path fill="#FCC30B" d="M16.06 30.56l16.06 9.344 15.956-9.344-16.06-9.343z"/>
        <path fill="#FCC30B" d="M0 21.217l16.06 9.344 15.956-9.344-16.06-9.343z"/>
        <path fill="#FFD527" d="M64.032 21.217l-16.06-9.343-15.956 9.343 16.06 9.343z"/>
        <path fill="#FFD527" d="M47.972 11.874l16.06 9.343 15.959-9.345-16.06-9.343z"/>
        <path fill="#F1B20F" d="M75.999 9.547l-.007 2.325-12.046-7.008.007-2.325z"/>
        <path fill="#F1B20F" d="M15.975 11.883l-.006 2.325L4 21.215l.007-2.324z"/>
        <path fill="#F1B20F" d="M30.03 20.06l-.007 2.324-14.054-8.176.006-2.325z"/>
        <path fill="#F1B20F" d="M34.034 20.06l-.006 2.324-1.996 1.169.006-2.325z"/>
        <path fill="#F1B20F" d="M32.038 21.228l-.006 2.325-2.009-1.169.007-2.325z"/>
        <path d="M63.937.204L32.025 18.891l-16.06-9.343L.007 18.893l32.12 18.686 47.87-28.032L63.937.204zM34.034 20.059L63.953 2.54l12.046 7.008-43.882 25.697-28.11-16.353 11.968-7.008 14.055 8.176 2.008 1.169 1.996-1.169z" fill="#FFD527"/>
        <path fill="#F1B20F" d="M63.953 2.54l-.007 2.324-29.919 17.52.007-2.324z"/>
        <path fill="#F1B20F" d="M0 21.217l32.12 18.687.007-2.325L.007 18.893z"/>
        <path fill="#F1B20F" d="M32.127 37.58l-.007 2.324 47.87-28.032.007-2.325z"/>
    </g>
</svg>
