<svg width="18" height="18" viewBox="0 0 18 18" xmlns="http://www.w3.org/2000/svg">
    <title>
        google logo
    </title>
    <g fill="none" fill-rule="evenodd">
        <path d="M17.991 9.168c0-.737-.06-1.275-.193-1.833H9.179v3.328h5.06c-.103.827-.654 2.073-1.878 2.91l-.017.112 2.725 2.062.189.019c1.734-1.565 2.733-3.867 2.733-6.598" fill="#4285F4"/>
        <path d="M9.18 17.938c2.478 0 4.558-.797 6.078-2.172l-2.897-2.193c-.775.528-1.815.897-3.182.897a5.514 5.514 0 0 1-5.222-3.727l-.107.009-2.834 2.142-.037.101c1.51 2.93 4.61 4.943 8.2 4.943" fill="#34A853"/>
        <path d="M3.957 10.743a5.407 5.407 0 0 1-.306-1.774c0-.618.112-1.216.296-1.774l-.005-.119L1.073 4.9l-.094.044A8.81 8.81 0 0 0 0 8.969c0 1.445.357 2.81.98 4.026l2.977-2.252" fill="#FBBC05"/>
        <path d="M9.18 3.468c1.723 0 2.886.728 3.549 1.335l2.59-2.471C13.73.887 11.658 0 9.18 0 5.59 0 2.49 2.013.98 4.943l2.968 2.252A5.537 5.537 0 0 1 9.18 3.468" fill="#EB4335"/>
    </g>
</svg>
