<svg width="130" height="32" viewBox="0 0 130 32" xmlns="http://www.w3.org/2000/svg" xmlns:xlink="http://www.w3.org/1999/xlink">
    <title>
        platform
    </title>
    <defs>
        <path id="a" d="M.116.004h10.853v11.84H.116z"/>
    </defs>
    <g fill="none" fill-rule="evenodd">
        <path d="M15.5 0C6.94 0 0 7.163 0 16c0 8.835 6.94 16 15.5 16C24.06 32 31 24.835 31 16c0-8.837-6.94-16-15.5-16m0 30C8.009 30 1.937 23.73 1.937 16 1.938 8.267 8.01 2 15.5 2c7.489 0 13.563 6.267 13.563 14 0 7.73-6.074 14-13.563 14m0-26C9.08 4 3.875 9.372 3.875 16c0 6.626 5.205 12 11.625 12s11.625-5.374 11.625-12c0-6.628-5.205-12-11.625-12" fill="#1A1A1A"/>
        <path fill="#1A1A1A" d="M57.44 19.75V10h-2.43v9.75L55 22h7v-2.25z"/>
        <path d="M72.5 22H75l-5.044-12H67.956L63 22h2.5l.742-1.999h5.498L72.5 22zm-5.424-4.249l1.89-5.087 1.925 5.087h-3.815z" fill="#1A1A1A"/>
        <path fill="#1A1A1A" d="M83 10h-9v2.251h3.263V22h2.474v-9.749H83z"/>
        <g transform="translate(119 10)">
            <mask id="b" fill="#fff">
                <use xlink:href="#a"/>
            </mask>
            <path fill="#1A1A1A" mask="url(#b)" d="M8.502.004l-2.96 3.948L2.582.004H.116v11.84h2.466V3.953l2.96 3.946 2.96-3.946v7.893h2.467V.004z"/>
        </g>
        <path fill="#1A1A1A" d="M93 12.25V10h-8v12h2.622v-4.292h4.85V15.46h-4.85v-3.21z"/>
        <path d="M106 16a6 6 0 1 1-12 0 6 6 0 0 1 12 0m-5.975-3.697a3.75 3.75 0 1 0-.001 7.5 3.75 3.75 0 0 0 .001-7.5" fill="#1A1A1A"/>
        <path d="M52 14.265c0-2.458-1.902-4.254-4.254-4.264V10H43v12h2.374v-3.468h2.372v-.002C50.098 18.519 52 16.724 52 14.265m-4.254 2.029v.005h-2.372v-4.068h2.372v.005c1.177 0 2.13.8 2.13 2.03 0 1.23-.953 2.028-2.13 2.028" fill="#1A1A1A"/>
        <path d="M114.778 17.841c1.325-.763 2.222-1.945 2.222-3.646 0-2.474-1.902-4.183-4.254-4.194V10H108v11.983h2.373v-3.591h1.948L114.2 22h2.8l-1.906-3.651-.316-.508zm-2.032-5.594v.005c1.18 0 2.134.705 2.134 1.943 0 1.24-.954 1.944-2.134 1.944v.006h-2.373v-3.898h2.373z" fill="#1A1A1A"/>
    </g>
</svg>
