<svg width="80" height="39" viewBox="0 0 80 39" xmlns="http://www.w3.org/2000/svg">
    <title>
        m_1
    </title>
    <g fill="none" fill-rule="evenodd">
        <path fill="#45C7F4" d="M47.975 20.594l16.06 9.157 15.958-9.158-16.06-9.157z"/>
        <path fill="#F43959" d="M79.993 20.593l-16.06-9.157-15.958 9.158 16.06 9.157z"/>
        <path fill="#45C7F4" d="M47.975 20.594L31.91 11.436l-15.955 9.157 16.063 9.158z"/>
        <path fill="#F43959" d="M47.975 20.594L31.91 11.436l-15.955 9.157 16.063 9.158z"/>
        <path fill="#FF4867" d="M63.933 11.436L47.87 2.278l-15.959 9.158 16.064 9.158z"/>
        <path fill="#FF4867" d="M0 29.75l16.063 9.158L32.02 29.75l-16.063-9.158z"/>
        <path fill="#F43959" d="M79.993 20.593l-16.06-9.157-15.958 9.158 16.06 9.157z"/>
        <path fill="#FF4867" d="M47.975 20.594L31.91 11.436l-15.955 9.157 16.063 9.158z"/>
        <path fill="#FF4867" d="M63.933 11.436L47.87 2.278l-15.959 9.158 16.064 9.158z"/>
        <path fill="#FF4867" d="M0 29.75l16.063 9.158L32.02 29.75l-16.063-9.158z"/>
        <path fill="#E33552" d="M75.996 18.315l-.007 2.278L47.883 4.569l.007-2.279z"/>
        <path fill="#E33552" d="M64.044 27.471l-.006 2.278 15.955-9.156.007-2.278z"/>
        <path fill="#E33552" d="M64.044 27.471l-.006 2.278-16.063-9.158.006-2.278z"/>
        <path fill="#E33552" d="M47.89 2.29l-.007 2.279-43.879 25.18.007-2.278z"/>
        <path d="M47.877 0L.007 27.471l16.06 9.157L47.98 18.313l16.063 9.158L80 18.314 47.877 0zM4.01 27.471L47.89 2.291l28.106 16.023-11.968 6.868-14.054-8.013-2.006-1.143-1.993 1.143-29.918 17.17L4.01 27.471z" fill="#FF4867"/>
        <path fill="#E33552" d="M16.067 36.628l-.007 2.278L47.975 20.59l.006-2.278z"/>
        <path fill="#E33552" d="M0 29.75l16.06 9.156.007-2.278-16.06-9.156z"/>
    </g>
</svg>
