<?xml version="1.0" encoding="UTF-8"?><!DOCTYPE svg PUBLIC "-//W3C//DTD SVG 1.1//EN" "http://www.w3.org/Graphics/SVG/1.1/DTD/svg11.dtd"><svg xmlns="http://www.w3.org/2000/svg"><symbol id="icon-arrow-right" viewBox="0 0 13.4 14.8">
    <title>
        arrow-right
    </title>
    <path d="M0 6.4h11v2H0z"/>
    <path d="M4.606 13.374l7.424-7.425 1.415 1.415-7.425 7.424z"/>
    <path d="M4.606 1.434L6.02.02l7.425 7.425-1.415 1.414z"/>
</symbol><symbol id="icon-fb" viewBox="0 0 11 17">
    <title>
        Fill 1
    </title>
    <path d="M3.225 17L3.2 9.273H0V6.182h3.2V4.25C3.2 1.382 5.038 0 7.687 0c1.269 0 2.36.091 2.677.132V3.13H8.527c-1.44 0-1.72.661-1.72 1.632v1.42H11l-1.6 3.09H6.807V17H3.225z" fill-rule="evenodd" opacity=".5"/>
</symbol><symbol id="icon-figure-from" viewBox="0 0 300 400">
    <title>
        figure-from
    </title>
    <g fill-rule="evenodd">
        <path d="M100 300h200v100H100z"/>
        <path d="M0 200h100v200H0z"/>
        <path d="M0 200h10v200H0z"/>
        <path d="M90 200h10v110H90z"/>
        <path d="M10 390h90v10H10z"/>
        <path d="M10 200h80v10H10z"/>
        <g>
            <path d="M200 200h100v100H200z"/>
            <path d="M0 100h100v100H0z"/>
            <path d="M100 100h100v200H100z"/>
            <path d="M100 190h10v110h-10z"/>
            <path d="M110 290h90v10h-90z"/>
            <path d="M100 100h90v10h-90z"/>
            <path d="M190 100h10v110h-10z"/>
        </g>
        <g>
            <path d="M0 0h300v100H0z"/>
            <path d="M200 100h100v100H200z"/>
            <path d="M200 100h10v100h-10z"/>
            <path d="M210 190h80v10h-80z"/>
            <path d="M290 100h10v100h-10z"/>
        </g>
    </g>
</symbol><symbol id="icon-fugure-to" viewBox="0 0 395 402">
    <title>
        fugure-to
    </title>
    <g fill-rule="evenodd">
        <path d="M79.297 355.747l79.296 45.782 78.782-45.783-79.297-45.782z"/>
        <path d="M0 309.965l79.297 45.782 78.782-45.783-79.297-45.782z"/>
        <path d="M316.157 309.963l-79.297-45.782-78.782 45.783 79.297 45.782z"/>
        <path d="M236.86 264.18l79.297 45.783 78.796-45.791-79.297-45.782z"/>
        <path d="M79.297 355.747l79.296 45.782 78.782-45.783-79.297-45.782z"/>
        <path d="M0 309.965l79.297 45.782 78.782-45.783-79.297-45.782z"/>
        <path d="M316.157 309.963l-79.297-45.782-78.782 45.783 79.297 45.782z"/>
        <path d="M236.86 264.18l79.297 45.783 78.796-45.791-79.297-45.782z"/>
        <path d="M375.244 252.781l-.032 11.391-59.477-34.339.032-11.39z"/>
        <path d="M78.878 264.227l-.033 11.39-59.089 34.339.032-11.39z"/>
        <path d="M148.272 304.291l-.032 11.391-69.395-40.065.033-11.39z"/>
        <path d="M168.043 304.291l-.032 11.391-9.853 5.725.032-11.39z"/>
        <path d="M158.19 310.017l-.032 11.39-9.918-5.725.033-11.391z"/>
        <path d="M315.688 207l-157.563 91.564-79.296-45.78-78.796 45.79 158.593 91.564 236.359-137.357L315.688 207zM168.043 304.29l147.724-85.848 59.478 34.338-216.668 125.915-138.788-80.13 59.09-34.34 69.394 40.065 9.917 5.726 9.852-5.726z"/>
        <path d="M315.767 218.443l-.031 11.39-147.725 85.849.031-11.39z"/>
        <path d="M0 309.965l158.593 91.564.033-11.39L.032 298.575z"/>
        <path d="M158.626 390.139l-.032 11.39 236.359-137.357.032-11.39z"/>
        <g>
            <path d="M236.875 184.173l-79.297-45.782-78.782 45.782 79.297 45.782z"/>
            <path d="M.014 229.956l79.297 45.783 78.782-45.784-79.298-45.781z"/>
            <path d="M158.093 229.955l79.311 45.791 78.782-45.783-79.31-45.79z"/>
            <path d="M236.875 184.173l79.312 45.79 78.795-45.791-79.311-45.79z"/>
            <path d="M236.875 184.173l-79.297-45.782-78.782 45.782 79.297 45.782z"/>
            <path d="M.014 229.956l79.297 45.783 78.782-45.784-79.298-45.781z"/>
            <path d="M158.093 229.955l79.311 45.791 78.782-45.783-79.31-45.79z"/>
            <path d="M236.875 184.173l79.312 45.79 78.795-45.791-79.311-45.79z"/>
            <path d="M375.244 172.782l-.032 11.39-59.477-34.338.032-11.391z"/>
            <path d="M315.767 138.443l-.031 11.391-68.944 40.065.032-11.39z"/>
            <path d="M227.054 178.508l-.032 11.391-69.38-40.057.033-11.39z"/>
            <path d="M236.972 184.235l-.032 11.39-9.918-5.725.032-11.391z"/>
            <path d="M246.824 178.508l-.032 11.39-9.853 5.727.032-11.39z"/>
            <path d="M157.674 138.452l-.032 11.391-137.87 80.122.031-11.39z"/>
            <path d="M158.093 229.955l79.311 45.791.033-11.39-79.312-45.79z"/>
            <path d="M237.437 264.356l-.033 11.39 157.564-91.565.032-11.39z"/>
            <path d="M0 229.965l79.297 45.782.032-11.39L.032 218.575z"/>
            <path d="M79.329 264.357l-.032 11.39 78.796-45.792.033-11.39z"/>
            <path d="M315.688 127l-78.781 45.782L157.608 127 .032 218.576l79.297 45.782 78.796-45.792 79.313 45.79L395 172.79 315.688 127zm-68.863 51.508l68.942-40.066 59.478 34.34-137.888 80.13-69.393-40.065-9.904-5.717-9.838 5.717-68.943 40.066-59.475-34.339 137.87-80.123 69.38 40.057 9.917 5.726 9.853-5.726z"/>
        </g>
        <g>
            <path d="M236.875 102.972l79.297 45.782 78.796-45.791-79.297-45.782z"/>
            <path d="M394.968 102.963L315.67 57.18l-78.796 45.79 79.297 45.784z"/>
            <path d="M236.875 102.972l-79.312-45.79-78.781 45.782 79.31 45.791z"/>
            <path d="M236.875 102.972l-79.312-45.79-78.781 45.782 79.31 45.791z"/>
            <path d="M315.67 57.181l-79.311-45.79-78.796 45.79 79.312 45.791z"/>
            <path d="M0 148.748l79.312 45.79 78.781-45.783-79.311-45.79z"/>
            <path d="M394.968 102.963L315.67 57.18l-78.796 45.79 79.297 45.784z"/>
            <path d="M236.875 102.972l-79.312-45.79-78.781 45.782 79.31 45.791z"/>
            <path d="M315.67 57.181l-79.311-45.79-78.796 45.79 79.312 45.791z"/>
            <path d="M0 148.748l79.312 45.79 78.781-45.783-79.311-45.79z"/>
            <path d="M375.23 91.573l-.033 11.39-138.774-80.12.033-11.391z"/>
            <path d="M316.219 137.356l-.032 11.39 78.78-45.783.033-11.39z"/>
            <path d="M316.219 137.356l-.032 11.39-79.312-45.79.032-11.392z"/>
            <path d="M236.456 11.452l-.032 11.39L19.771 148.748l.032-11.39z"/>
            <path d="M236.391 0L.032 137.357l79.296 45.781 157.58-91.573 79.31 45.79L395 91.572 236.391 0zM19.803 137.357L236.456 11.452l138.774 80.12-59.09 34.34-69.395-40.066-9.902-5.716-9.84 5.716-147.724 85.85-59.476-34.339z"/>
            <path d="M79.329 183.139l-.032 11.39 157.578-91.574.032-11.39z"/>
            <path d="M0 148.748l79.297 45.782.032-11.391L.032 137.358z"/>
        </g>
    </g>
</symbol><symbol id="icon-insta" viewBox="0 0 16 16">
    <title>
        insta
    </title>
    <path d="M13.278 14H2.656c-.399 0-.664-.267-.664-.667V6.667H3.32c-.2.733-.266 1.6-.067 2.4a4.768 4.768 0 0 0 3.784 3.666c3.12.6 5.843-1.733 5.843-4.733 0-.467-.133-.933-.2-1.333h1.328v6.666c-.066.4-.332.667-.73.667M7.967 4.933c1.66 0 3.054 1.4 3.054 3.067 0 1.667-1.394 3.067-3.054 3.067S4.913 9.667 4.913 8c0-1.667 1.394-3.067 3.054-3.067M11.95 2h1.328c.398 0 .664.267.664.667V4c0 .4-.266.667-.664.667H11.95c-.398 0-.664-.267-.664-.667V2.667c0-.4.266-.667.664-.667m2.058-2H1.925C.863 0 0 .867 0 1.867v12.2A1.93 1.93 0 0 0 1.925 16h12.15C15.137 16 16 15.133 16 14.133V1.867C15.934.867 15.07 0 14.008 0" fill-rule="evenodd" opacity=".5"/>
</symbol><symbol id="icon-logo" viewBox="0 0 29 31.5">
    <title>
        logo
    </title>
    <path d="M26 31.5H3c-1.7 0-3-1.3-3-3v-17c0-1 .5-1.9 1.3-2.4l12-8.5c1.1-.8 2.5-.7 3.6.1l11 8.5c.7.6 1.2 1.5 1.2 2.4v17c-.1 1.6-1.4 2.9-3.1 2.9zM15 2c-.2 0-.4.1-.6.2l-12 8.5c-.2.2-.4.5-.4.8v17c0 .6.4 1 1 1h23c.6 0 1-.4 1-1v-17c0-.3-.1-.6-.4-.8l-11-8.5c-.2-.1-.4-.2-.6-.2z"/>
    <path d="M6 27.5h17c1.1 0 2-.9 2-2v-12c0-.6-.3-1.2-.8-1.6l-8.1-6.4c-.7-.6-1.7-.6-2.4-.1l-8.9 6.5c-.5.4-.8 1-.8 1.6v12c0 1.1.9 2 2 2z"/>
</symbol><symbol id="icon-plus" viewBox="0 0 10 10">
    <title>
        plus
    </title>
    <g fill-rule="evenodd">
        <path d="M0 4h10v2H0z"/>
        <path d="M4 0h2v10H4z"/>
    </g>
</symbol><symbol id="icon-user" viewBox="0 0 13.7 16">
    <title>
        user
    </title>
    <path d="M12 16H1.7c-.6 0-1-.2-1.4-.6C0 15-.1 14.5 0 14c0-.8.3-1.7.8-2.5C1.9 9.8 4 9 6.9 9s5 .8 6.1 2.5c.5.8.8 1.6.7 2.4v.1c.1.5-.1 1-.4 1.3-.3.5-.7.7-1.3.7zM2 14h10.4-.6c0-.2 0-.7-.4-1.4-.8-1.1-2.3-1.6-4.5-1.6s-3.7.5-4.4 1.6c-.4.5-.5 1-.5 1.4z"/>
    <path d="M6.9 6c-1.7 0-3-1.3-3-3s1.3-3 3-3 3 1.3 3 3-1.4 3-3 3zm0-4c-.6 0-1 .4-1 1s.4 1 1 1 1-.4 1-1-.5-1-1-1z"/>
</symbol></svg>