<svg width="80" height="30" viewBox="0 0 80 30" xmlns="http://www.w3.org/2000/svg">
    <title>
        m_2
    </title>
    <g fill="none" fill-rule="evenodd">
        <path fill="#49A3EF" d="M47.854 11.511l-16.02-9.217-15.916 9.217 16.02 9.218z"/>
        <path fill="#49A3EF" d="M.003 20.73l16.02 9.217 15.915-9.218-16.02-9.217z"/>
        <path fill="#49A3EF" d="M31.938 20.73l16.022 9.219 15.916-9.218-16.022-9.22z"/>
        <path fill="#54B6ED" d="M47.853 11.511l16.023 9.22 15.918-9.22-16.022-9.22z"/>
        <path fill="#49A3EF" d="M47.854 11.511l-16.02-9.217-15.916 9.217 16.02 9.218z"/>
        <path fill="#54B6ED" d="M.003 20.73l16.02 9.217 15.915-9.218-16.02-9.217z"/>
        <path fill="#49A3EF" d="M31.938 20.73l16.022 9.219 15.916-9.218-16.022-9.22z"/>
        <path fill="#54B6ED" d="M47.853 11.511l16.023 9.22 15.918-9.22-16.022-9.22z"/>
        <path fill="#4495DD" d="M75.807 9.218L75.8 11.51 63.785 4.597l.006-2.293z"/>
        <path fill="#4495DD" d="M63.791 2.304l-.006 2.293-13.928 8.067.007-2.293z"/>
        <path fill="#4495DD" d="M45.87 10.37l-.007 2.294L31.847 4.6l.006-2.293z"/>
        <path fill="#4495DD" d="M47.873 11.524l-.006 2.293-2.004-1.153.006-2.293z"/>
        <path fill="#4495DD" d="M49.863 10.37l-.006 2.294-1.99 1.153.006-2.293z"/>
        <path fill="#4495DD" d="M31.853 2.306l-.006 2.293L3.994 20.731l.007-2.293z"/>
        <path fill="#4495DD" d="M31.938 20.73l16.022 9.219.007-2.293-16.023-9.22z"/>
        <path fill="#4495DD" d="M47.967 27.656l-.007 2.293 31.832-18.436.006-2.293z"/>
        <path fill="#4495DD" d="M0 20.731l16.02 9.218.006-2.293-16.02-9.218z"/>
        <path fill="#4495DD" d="M16.026 27.656l-.006 2.293 15.918-9.22.007-2.293z"/>
        <path d="M63.775 0L47.86 9.218 31.84 0 .007 18.438l16.019 9.218 15.919-9.22 16.022 9.22L79.798 9.22 63.775 0zM49.864 10.37L63.79 2.305l12.016 6.914-27.856 16.134-14.019-8.067-2-1.151-1.988 1.15-13.928 8.068-12.015-6.914L31.853 2.306 45.87 10.37l2.004 1.153 1.99-1.153z" fill="#54B6ED"/>
    </g>
</svg>
